<svg width="218" height="75" viewBox="0 0 218 75" fill="none" xmlns="http://www.w3.org/2000/svg">
<path d="M108.76 0.411616C72.52 1.09162 36.28 2.05163 0.0400164 2.73163L0.0400169 13.8116C29.25 12.6616 58.46 11.9116 87.68 11.2516C102.86 10.9116 118.05 10.6516 133.24 10.2516C147.89 9.87161 162.58 8.57162 177.24 8.57162C189.75 8.57162 203.24 12.3016 206.64 26.8216C209.49 39.0216 202.55 51.6616 192.36 57.2316C179.36 64.3316 162.51 63.8516 148.36 64.7316C132.82 65.7316 117.24 66.0916 101.68 66.2816C67.74 66.7116 33.89 65.6916 0.020019 63.6416L0.0200195 74.5116C33.16 74.8716 66.3167 74.5549 99.49 73.5616C116.38 73.0616 133.26 72.4416 150.15 71.9016C158.5 71.6416 166.85 71.5616 175.2 71.3316C182.26 71.1416 189.2 70.3316 195.75 67.3316C206.96 62.0716 215.75 50.5416 216.99 37.4516C218.23 24.3616 211.5 11.6316 200.64 5.58163C188.35 -1.26837 172.72 0.43161 159.3 0.161614C142.42 -0.188384 125.59 0.0916159 108.76 0.411616Z" fill="#F4DFCE"/>
<path d="M40.02 18.1516C26.71 18.4216 13.35 19.1516 0.0199976 19.2516L0.019998 28.3616C22.43 26.6616 45.17 26.8116 67.57 26.6416C93.66 26.4516 119.74 26.5816 145.81 25.7216C152.08 25.5116 158.37 25.5816 164.63 25.7816C170.16 25.9516 179.25 24.9516 182.73 30.3216C189.41 40.5916 163.28 43.7116 158.11 44.4116C132.492 48.0557 106.672 50.0964 80.8 50.5216C53.74 50.8016 26.96 48.5916 -1.20222e-06 47.1516L-7.75601e-07 56.9116C26.85 57.5216 53.81 57.2316 80.66 57.0816C108.86 56.9216 137.08 56.6016 165.05 52.6116C174.88 51.2116 188.05 48.3216 192.12 37.7916C196.75 25.7116 183.97 19.7016 174.06 19.4516C145.53 18.7316 117.06 17.0416 88.55 17.2716C72.36 17.4016 56.19 17.8216 40.02 18.1516Z" fill="#F4DFCE"/>
</svg>
