<svg width="255" height="323" viewBox="0 0 255 323" fill="none" xmlns="http://www.w3.org/2000/svg">
  <path
    d="M47.3275 224.692C48.1028 228.592 48.2989 232.585 47.9095 236.541C47.7099 238.019 47.9455 239.525 48.5874 240.873C49.3496 242.683 49.8366 244.598 50.0323 246.552C50.3088 248.63 50.8087 250.672 51.5234 252.643C51.8376 253.309 52.0491 254.019 52.1508 254.748C52.3167 256.966 52.9074 259.132 53.8906 261.128C54.2832 262.164 54.515 263.253 54.578 264.359C55.0148 266.904 55.1183 269.494 54.886 272.064C54.736 273.187 54.4517 274.287 54.0394 275.341L50.4513 283.838C49.7964 285.438 48.9784 286.967 48.0102 288.4C47.7062 288.92 47.4361 289.459 47.2015 290.014C47.2015 290.014 47.3005 290.228 47.3444 290.323C47.3884 290.418 47.4543 290.561 47.6204 290.484C48.6913 290.205 49.7037 289.737 50.6099 289.102C51.9456 288.254 53.3379 287.466 54.6406 286.546C56.9358 284.908 59.2438 283.235 61.4714 281.513C63.2082 280.162 64.8442 278.656 66.57 277.281C69.241 275.291 71.5959 272.909 73.555 270.214C73.9647 269.604 74.4364 269.038 74.9627 268.525C77.16 266.379 79.1779 264.057 80.9963 261.581C83.0067 258.931 85.2702 256.484 87.7547 254.273C88.4035 253.715 89.0082 253.107 89.5638 252.456C89.8158 252.194 89.9634 251.849 89.9788 251.485C89.9157 250.988 89.9963 250.484 90.211 250.031C90.4256 249.579 90.7654 249.199 91.1899 248.934C91.4983 248.792 91.7079 248.435 92.0071 248.21C94.6369 246.124 96.4247 243.156 97.0418 239.853C97.926 236.364 97.5645 232.673 96.0197 229.419C95.9278 229.061 95.7713 228.723 95.5581 228.421C94.3308 227.045 93.3489 225.469 92.6554 223.761C92.2718 223.432 91.8574 223.14 91.4179 222.891C89.5189 221.754 87.7712 220.38 86.2167 218.803C85.8542 218.481 85.5313 218.117 85.2548 217.719C85.1009 217.386 84.947 217.053 84.6508 216.786C83.9872 215.612 83.1917 214.518 82.2796 213.526C81.2888 212.791 80.1942 212.207 79.032 211.795C78.1163 211.341 77.2674 210.763 76.5095 210.076C75.4947 209.189 74.3833 208.405 73.2517 207.514C72.7139 206.027 71.7622 204.725 70.5092 203.762C68.8623 201.32 66.9526 199.058 65.1378 196.752C64.8856 196.474 64.7245 196.126 64.6763 195.754C64.4167 194.303 63.8996 192.91 63.1495 191.641C62.8999 191.08 62.7667 190.474 62.7581 189.86C62.7709 187.77 62.9427 185.685 63.2721 183.621C63.7468 181.292 64.684 179.083 66.0283 177.125C66.8757 175.781 67.7086 174.531 68.7093 173.145C68.8132 172.928 68.9581 172.734 69.1359 172.572C70.3704 171.564 71.5435 170.482 72.6489 169.333C72.9517 169.103 73.3096 168.957 73.6867 168.909C74.0639 168.861 74.4472 168.913 74.7981 169.06L75.453 169.854C76.9251 172.569 79.0577 174.868 81.6529 176.538C83.2635 177.842 84.7156 179.364 86.4102 180.6C87.334 181.41 88.1301 182.355 88.7716 183.403C90.4588 185.82 92.0049 188.333 93.4021 190.928C93.8079 191.706 94.1286 192.525 94.3587 193.371C94.9346 195.24 95.4157 197.153 96.0027 199.045C96.5316 200.561 96.6879 202.181 96.4582 203.769C96.2418 205.353 96.1238 206.949 96.1049 208.548C96.0449 210.396 95.8256 212.235 95.4493 214.045C95.3346 214.522 95.403 215.026 95.6412 215.456C96.8558 217.462 97.5856 219.723 97.7721 222.059C97.925 222.931 98.1742 223.784 98.5152 224.601C98.9877 225.623 99.2832 226.699 99.7448 227.697C100.389 229.039 100.732 230.505 100.751 231.992C100.773 232.478 100.877 232.957 101.06 233.408C101.107 233.52 101.176 233.621 101.264 233.705C101.353 233.788 101.457 233.852 101.572 233.892C101.689 233.921 101.811 233.923 101.93 233.898C102.048 233.874 102.159 233.823 102.255 233.75C102.765 233.226 103.211 232.642 103.582 232.011C104.997 229.279 106.723 226.721 108.391 224.162C108.933 223.336 109.42 222.474 109.848 221.584C110.63 219.931 111.723 218.446 113.068 217.21C114.776 215.602 116.214 213.729 117.328 211.663C117.448 211.447 117.583 211.24 117.733 211.043C120.103 207.729 121.826 203.996 122.811 200.04C123.111 199.224 123.162 198.337 122.958 197.491C122.438 195.338 122.385 193.1 122.803 190.926C123 189.995 122.931 189.027 122.605 188.132C122.387 187.555 122.244 186.952 122.179 186.339C121.767 183.274 120.701 180.332 119.056 177.713C117.951 175.649 116.675 173.681 115.242 171.83C113.475 169.622 111.826 167.322 110.3 164.94C107.758 161.235 106.694 156.713 107.321 152.266C107.571 150.564 108.054 148.869 108.187 147.163C108.32 145.457 108.044 143.738 108.025 142.015C108.006 140.293 108.041 139.123 108.076 137.577C108.11 136.032 108.203 134.864 108.372 133.546C108.671 130.713 109.647 127.996 111.217 125.623C111.902 124.614 112.577 123.581 113.297 122.584C114.235 121.294 115.08 119.938 115.828 118.529C116.757 116.801 117.871 115.161 118.95 113.508C119.627 112.636 120.564 112.001 121.624 111.694C121.738 111.667 121.858 111.67 121.97 111.705C122.082 111.739 122.183 111.803 122.262 111.89C122.926 112.782 123.342 113.834 123.47 114.938C123.628 115.807 123.953 116.636 124.426 117.382C125.415 119.521 126.691 121.47 127.835 123.509C128.519 124.828 128.99 126.246 129.23 127.711C129.583 129.773 130.159 131.79 130.946 133.727C132.402 137.531 133.522 141.454 134.293 145.452C134.675 147.252 135.185 149.021 135.819 150.748L136.728 153.213C137.993 156.699 138.269 160.466 137.527 164.096C137.44 164.704 137.406 165.318 137.425 165.932C137.45 168.148 137.14 170.353 136.504 172.475C136.072 174.027 135.211 175.425 134.02 176.508C132.915 177.481 131.777 178.382 130.614 179.294C130.282 179.448 129.95 179.601 129.673 179.874C128.956 180.246 128.36 180.814 127.954 181.513C127.548 182.211 127.348 183.011 127.379 183.82C127.4 184.675 127.246 185.525 127.244 186.392C127.276 187.502 127.18 188.611 126.958 189.698C126.711 190.638 126.73 191.628 127.013 192.558C127.013 192.558 127.134 192.819 127.145 192.843C127.156 192.867 127.716 192.896 127.802 192.77C129.26 190.942 130.776 189.174 132.36 187.431C133.592 186.058 134.637 184.527 135.468 182.879C137.858 178.428 140.603 174.178 143.675 170.17C144.118 169.588 144.608 169.044 145.139 168.541C146.762 167.029 147.975 165.128 148.662 163.017C149.897 159.786 151.324 156.631 152.933 153.57C153.033 153.35 153.203 153.156 153.303 152.937C155.028 149.255 156.705 145.594 158.742 142.027C159.332 140.947 159.585 139.715 159.467 138.489C159.307 136.275 159.441 134.05 159.864 131.871C160.397 129.965 160.457 127.956 160.039 126.02C160.175 123.16 160.12 120.294 159.874 117.441C159.91 116.709 159.986 115.98 160.103 115.257C160.382 112.667 159.912 110.05 158.749 107.718L156.737 103.368C156.375 102.584 155.893 101.854 155.449 101.079C154.254 99.2834 152.692 97.7626 150.866 96.6167C149.041 95.4709 146.994 94.7264 144.86 94.4324C144.619 94.3793 144.373 94.348 144.126 94.339C142.466 94.1818 140.856 93.6778 139.401 92.8593C137.947 92.0409 136.679 90.9263 135.681 89.5874C134.799 88.5524 133.988 87.4844 133.131 86.4384C131.548 84.3255 130.337 81.9582 129.549 79.4384C129.448 79.2188 129.388 78.9828 129.371 78.7417C129.256 76.4065 128.926 74.0865 128.385 71.8115C128.325 70.8256 128.101 69.8563 127.721 68.9443C127.252 67.5495 127.088 66.07 127.243 64.607C127.36 64.0024 127.433 63.3901 127.461 62.7748C127.395 59.8202 127.803 56.8747 128.669 54.051C128.72 53.6814 128.825 53.3215 128.982 52.9833C130.123 50.6588 131.685 48.567 133.589 46.8143C135.365 45.3005 137.221 43.8947 139.054 42.4412C139.337 42.1974 139.696 42.059 140.069 42.0494C140.442 42.0398 140.808 42.1596 141.103 42.3884C143.044 43.4644 144.773 44.884 146.208 46.5782C146.974 47.551 147.885 48.3996 148.677 49.303C151.378 52.1977 153.437 55.6318 154.717 59.3789C155.797 62.7746 157.078 66.1064 158.264 69.482C159.311 72.5168 160.751 75.4014 162.547 78.0619C163.95 80.0898 165.143 82.2544 166.11 84.5226C166.642 85.6416 166.867 86.8816 166.763 88.1156C166.674 90.0878 166.851 92.0634 167.29 93.9889C167.637 95.5625 167.431 97.207 166.706 98.6443C166.157 99.6246 165.904 100.744 165.978 101.866C165.986 104.075 165.842 106.282 165.547 108.471C165.52 108.974 165.424 109.451 165.421 109.943C165.394 111.301 165.104 112.64 164.566 113.887C163.778 116.078 163.415 118.4 163.496 120.729C163.574 123.203 163.524 125.649 163.544 128.122C163.461 129.718 163.106 131.287 162.493 132.762C162.177 133.695 161.915 134.645 161.706 135.607C161.599 136.209 161.534 136.818 161.511 137.428C161.772 137.308 162.141 137.483 162.262 137.37C162.789 136.859 163.275 136.306 163.715 135.717C164.597 134.386 165.373 133.075 166.27 131.651C167.266 129.926 168.457 128.32 169.817 126.866C170.643 125.953 171.331 124.925 171.862 123.815C173.405 121.004 174.616 118.023 175.474 114.932C176.529 111.498 177.877 108.163 179.504 104.962C179.938 104.081 180.306 103.168 180.603 102.232C181.729 98.7143 183.082 95.2744 184.654 91.934C186.006 89.1706 187.181 86.3242 188.173 83.4117C189.637 79.4636 190.105 75.2137 189.537 71.0382C189.37 69.8243 189.286 68.6007 189.284 67.3756C189.281 63.8055 189 60.2407 188.444 56.7134C188.302 55.745 188.056 54.7948 187.71 53.8791C186.974 51.4016 186.474 48.86 186.217 46.2887C186.12 45.6811 186.147 45.0605 186.295 44.4638C186.765 40.9215 187.539 37.4266 188.607 34.0178C190.038 29.801 192.414 25.9691 195.552 22.8152C197.994 20.0252 200.917 17.6969 204.181 15.9411C205.628 15.272 206.955 14.3414 208.347 13.5535C211.427 11.7493 214.714 10.3265 218.137 9.31621C218.735 9.17204 219.32 8.97881 219.886 8.73857C224.204 6.9523 228.63 5.43657 233.137 4.20002C235.498 3.49359 237.73 2.41288 239.749 0.999046C240.178 0.57823 240.74 0.318682 241.339 0.26416C241.437 0.478109 241.569 0.763383 241.434 0.96999C240.902 2.20615 240.704 3.56139 240.861 4.89941C241.104 8.34044 241.525 11.7669 242.122 15.1649C242.642 18.3182 243.362 21.4355 244.277 24.4979C245.742 29.2283 245.839 34.2758 244.556 39.0549C244.216 40.2507 243.969 41.4611 243.653 42.646C243.068 45.009 242.186 47.2878 241.028 49.4277C239.622 51.8668 238.502 54.4906 237.2 56.9681C236.378 58.6173 235.592 60.2794 234.701 61.903C234.27 62.6438 233.759 63.3348 233.177 63.9635C231.508 65.7736 229.794 67.547 228.036 69.2254C226.893 70.5267 225.392 71.4615 223.72 71.9128C222.419 72.2994 221.258 73.0565 220.379 74.092C219.511 74.9549 218.689 75.8545 217.797 76.7284C216.644 77.8508 215.222 78.6572 213.667 79.0702C212.587 79.2957 211.573 79.7646 210.701 80.4412C210.121 80.9044 209.443 81.2284 208.719 81.3884C207.994 81.5483 207.242 81.54 206.521 81.3641C204.948 81.1187 203.363 80.9556 201.773 80.8753C200.414 80.8059 199.056 81.0394 197.799 81.5587C197.325 81.6898 196.876 81.8973 196.47 82.173C193.976 83.9632 191.811 86.1742 190.074 88.7073C189.072 90.5265 187.668 92.0989 186.768 94.0151C185.869 95.9313 184.545 97.5531 183.784 99.5205C183.454 100.182 183.059 100.809 182.605 101.393C181.305 103.217 180.294 105.232 179.607 107.366C179.295 108.434 178.843 109.451 178.426 110.48C177.695 112.303 177.077 114.169 176.575 116.068C175.798 119.181 174.566 122.162 172.918 124.914C171.9 126.698 170.771 128.415 169.535 130.055C168.706 131.126 167.972 132.267 167.339 133.465C166.944 134.167 166.154 134.763 166.581 135.749C167.031 135.765 167.48 135.687 167.899 135.518C168.317 135.35 168.695 135.095 169.008 134.771C171.086 133.472 173.021 131.959 174.782 130.255C176.335 128.696 177.422 126.735 177.923 124.591C178.714 121.084 180.454 117.865 182.951 115.284C184.523 113.576 186.038 111.808 187.712 110.198C189.662 108.366 191.836 106.789 194.182 105.505L197.396 103.673C199.736 102.305 202.293 101.348 204.956 100.841C207.026 100.461 209.084 100.116 211.109 99.6993C215.972 98.9202 220.908 98.6903 225.824 99.0136C226.44 99.043 227.05 99.1487 227.64 99.3283C229.791 99.8578 232 100.116 234.215 100.097C237.548 100.17 240.867 100.568 244.124 101.287C246.17 101.726 248.231 102.072 250.289 102.476C251.519 102.668 252.7 103.104 253.761 103.757C253.951 103.902 254.081 104.112 254.126 104.347C254.171 104.582 254.127 104.825 254.004 105.029C253.396 105.772 252.788 106.572 252.147 107.243C251.014 108.371 250.071 109.674 249.353 111.103C247.875 113.656 246.75 116.399 246.009 119.256C245.73 120.466 245.163 121.589 244.355 122.531C242.97 124.268 241.608 125.994 240.177 127.694C239.082 129.031 237.771 130.174 236.297 131.074C234.629 132.076 232.959 133.137 231.324 134.21C229.364 135.237 227.305 136.063 225.179 136.676C224.823 136.772 224.455 136.816 224.087 136.805C220.886 136.943 217.699 137.317 214.553 137.923C213.73 138.073 212.852 138.104 212.026 138.312C210.579 138.693 209.04 138.52 207.712 137.825C207.272 137.606 206.797 137.465 206.309 137.407C204.345 137.338 202.404 136.949 200.564 136.254C199.735 135.992 198.849 135.981 198.014 136.221C196.804 136.466 195.559 136.494 194.338 136.304C193.371 136.212 192.398 136.19 191.427 136.236C190.323 136.336 189.21 136.245 188.136 135.969C187.668 135.806 187.175 135.731 186.68 135.748C184.835 135.888 182.98 135.634 181.239 135.003C180.945 134.902 180.634 134.866 180.325 134.899C180.017 134.932 179.72 135.032 179.455 135.193C177.931 135.988 176.292 136.541 174.597 136.832C172.984 137.434 171.302 137.833 169.59 138.022C168.85 138.063 168.135 138.303 167.521 138.718C166.472 139.376 165.401 139.987 164.363 140.669C163.21 141.385 162.277 142.406 161.666 143.618C160.823 145.111 159.894 146.552 158.881 147.935C157.923 149.039 157.228 150.347 156.848 151.76C156.8 152.131 156.639 152.478 156.386 152.753C155.178 153.629 154.984 155.016 154.421 156.229C154.071 157.145 153.642 158.029 153.138 158.871C151.902 160.873 150.966 163.045 150.359 165.319C149.465 168.532 147.712 171.437 145.288 173.723C145.021 173.98 144.774 174.258 144.55 174.555C144.222 174.966 144.212 175.692 144.509 175.9C144.666 175.99 144.845 176.033 145.025 176.027C145.205 176.02 145.379 175.963 145.529 175.862C145.962 175.649 146.376 175.399 146.767 175.116C148.844 173.552 151.23 172.449 153.767 171.881L154.075 171.738C157.443 170.613 160.891 169.743 164.39 169.134C167.28 168.539 170.123 167.735 172.897 166.73C174.299 166.263 175.729 165.881 177.178 165.588C179.935 164.948 182.659 164.237 185.447 163.727C188.698 163.04 192.059 163.049 195.308 163.756C198.348 164.297 201.446 164.418 204.517 164.116C207.211 164.066 209.896 163.79 212.544 163.29C214.122 163.09 215.712 162.991 217.303 162.995C220.246 162.759 223.181 162.441 226.124 162.206C226.601 162.189 227.078 162.22 227.549 162.297C227.549 162.297 227.766 162.456 227.81 162.551C227.843 162.647 227.84 162.751 227.802 162.844C227.752 162.956 227.681 163.057 227.594 163.142C225.202 164.882 223.229 167.093 220.859 168.881C219.742 169.84 218.705 170.889 217.759 172.016C216.901 172.903 216.125 173.839 215.279 174.75C213.737 176.506 211.81 177.88 209.648 178.766C208.628 179.238 207.631 179.699 206.635 180.159C204.558 181.244 202.295 181.928 199.964 182.175C199.359 182.24 198.763 182.37 198.186 182.565C196.324 183.236 194.327 183.446 192.365 183.178C191.527 183.047 190.646 183.136 189.806 183.063C187.949 183.073 186.112 182.659 184.437 181.852C182.245 181.434 180.234 180.348 178.68 178.742C178.13 178.241 177.48 177.862 176.773 177.632C176.066 177.402 175.318 177.325 174.579 177.407C173.982 177.424 173.37 177.533 172.771 177.608C172.176 177.726 171.561 177.697 170.979 177.523C170.397 177.35 169.866 177.038 169.431 176.613C169.266 176.414 169.04 176.275 168.788 176.218C166.971 175.962 165.316 174.938 163.561 174.566C161.247 174.215 158.98 173.598 156.807 172.726C156.41 172.557 155.981 172.477 155.55 172.492C155.119 172.507 154.696 172.616 154.312 172.811C152.023 173.711 149.789 174.743 147.621 175.904C145.572 177.257 143.613 178.741 141.756 180.347C140.702 181.181 139.757 182.252 138.739 183.04C136.479 184.794 134.869 187.254 134.166 190.03C133.725 191.568 132.96 192.994 131.924 194.212C130.905 195.433 129.931 196.691 128.888 197.923C127.287 199.794 125.978 201.898 125.005 204.162C124.433 205.53 123.666 206.808 122.727 207.955C120.373 210.775 118.281 213.848 115.755 216.545C114.882 217.417 114.263 218.511 113.964 219.71C114.019 219.829 114.151 220.114 114.239 220.304C114.327 220.494 114.46 220.346 114.577 220.35C114.684 220.313 114.787 220.265 114.885 220.207C117.5 218.825 120.159 217.538 122.685 216.025C125.21 214.511 128.298 212.968 131.16 211.559C131.591 211.33 132.035 211.125 132.489 210.944C134.712 210.147 136.55 208.535 137.631 206.432C138.428 204.897 139.521 203.536 140.847 202.428C142.174 201.319 143.707 200.486 145.358 199.975C147.871 199.061 150.48 198.436 153.135 198.111C155.692 197.91 158.235 197.369 160.854 197.428C165.758 197.293 170.653 197.953 175.35 199.382C177.586 200.109 179.658 201.269 181.449 202.795C183.915 204.829 186.272 207 188.508 209.284C191.196 211.984 194.216 214.33 197.496 216.266C197.941 216.492 198.364 216.761 198.759 217.067C200.9 218.918 203.37 220.351 206.038 221.29C206.184 221.339 206.316 221.424 206.42 221.537C206.525 221.65 206.599 221.788 206.637 221.937C206.674 222.087 206.674 222.243 206.635 222.392C206.596 222.541 206.52 222.678 206.415 222.79C205.389 223.854 204.259 224.811 203.042 225.647C199.635 228.083 195.832 229.909 191.801 231.045C189.211 231.812 186.55 232.317 183.859 232.553C181.896 232.683 179.925 232.482 178.027 231.96C176.483 231.548 174.941 231.078 173.37 230.794C169.262 229.975 165.29 228.577 161.573 226.64C160.569 226.152 159.566 225.664 158.528 225.163C157.717 224.872 156.979 224.405 156.369 223.795C156.012 223.459 155.617 223.167 155.19 222.926C151.585 221.044 148.128 218.862 144.397 217.269C142.672 216.601 141.098 215.592 139.771 214.301C139.065 213.605 138.225 213.061 137.303 212.7C136.769 212.4 136.175 212.225 135.564 212.187C134.953 212.15 134.342 212.251 133.776 212.484C132.329 213.153 130.616 212.936 129.176 213.745C127.736 214.555 126.651 215.259 125.322 215.873C124.204 216.388 123.146 217.023 122.165 217.765C121.682 218.148 121.145 218.455 120.57 218.676C118.738 219.377 116.998 220.298 115.387 221.418C114.871 221.747 114.335 222.043 113.781 222.305C112.217 223.059 110.896 224.239 109.971 225.711C109.444 226.571 108.864 227.398 108.236 228.186C106.799 229.888 105.809 231.922 105.356 234.105C104.536 237.07 103.387 239.933 101.931 242.642C101.312 243.96 100.477 245.165 99.461 246.207C97.8572 247.727 96.4151 249.408 95.1578 251.226C94.961 251.548 94.6727 251.796 94.5106 252.131C93.5553 253.985 92.1956 255.6 90.5322 256.855C89.148 258.102 87.8387 259.43 86.6111 260.832C86.2117 261.293 85.8775 261.807 85.6178 262.359C85.5853 262.476 85.5814 262.599 85.6063 262.718C85.6312 262.837 85.6844 262.948 85.7612 263.043C85.8381 263.209 86.1962 263.361 86.3258 263.33C89.3928 262.431 92.4053 261.356 95.3486 260.111C97.0924 259.186 99.0163 258.651 100.988 258.543C102.457 258.401 103.902 258.072 105.287 257.565C105.83 257.432 106.334 257.177 106.763 256.819C107.191 256.461 107.532 256.009 107.759 255.499C108.38 254.154 109.285 252.96 110.413 252C111.541 251.041 112.863 250.338 114.29 249.941C116.157 249.309 117.98 248.581 119.879 248.078C124.657 246.838 129.685 246.939 134.413 248.371C134.996 248.556 135.564 248.785 136.112 249.057C136.781 249.382 137.437 249.743 138.093 250.103C143.198 252.55 148.042 255.512 152.547 258.944C153.571 259.627 154.505 260.436 155.33 261.351C156.869 262.956 158.521 264.448 160.274 265.816C162.047 267.375 164.183 268.462 166.485 268.975L167.556 269.173C168.044 269.293 168.314 269.63 168.189 269.919C168.063 270.208 167.999 270.381 167.821 270.493C165.606 271.806 163.3 272.958 160.92 273.942C159.234 274.699 157.472 275.272 155.663 275.651C155.301 275.731 154.946 275.837 154.6 275.97C150.911 277.373 146.951 277.922 143.017 277.574C141.177 277.525 139.336 277.577 137.502 277.728C136.146 277.826 134.786 277.57 133.558 276.984C131.91 276.159 130.26 275.392 128.675 274.394C126.39 272.94 123.994 271.682 121.673 270.273C118.148 268.196 114.747 265.915 111.488 263.441L109.702 262.131C109.252 261.798 108.734 261.569 108.185 261.458C107.636 261.348 107.07 261.36 106.527 261.493C104.73 261.848 102.909 262.073 101.079 262.165C99.1184 262.283 97.1918 262.725 95.3769 263.473C92.6586 264.625 89.8707 265.606 87.0295 266.409C85.9797 266.692 84.8751 266.857 83.7907 267.127C81.8637 267.583 80.1343 268.645 78.8566 270.158C76.7996 272.436 74.4921 274.484 72.2871 276.629C71.4919 277.4 70.6747 278.124 69.9142 278.909C68.8186 280.071 67.6489 281.161 66.4122 282.172C65.5573 282.882 64.7454 283.643 63.9809 284.45C63.0202 285.465 61.9536 286.374 60.7996 287.161C58.2588 289.086 55.5624 290.796 52.7381 292.273C52.2093 292.585 51.7287 292.972 51.3115 293.423L47.2256 297.043C45.8186 298.238 44.2534 299.234 42.5744 300.001C40.1153 301.123 37.8023 302.542 35.6861 304.224C34.516 305.134 33.2749 305.949 31.9747 306.661C29.929 307.78 27.962 309.006 25.9713 310.244C25.8526 310.299 25.8439 310.591 25.8496 310.791C25.9375 310.864 26.0478 310.905 26.162 310.906C29.0779 310.424 32.014 310.047 34.8657 309.364C36.9049 308.854 39.0088 308.92 41.0591 308.434C43.9217 307.774 46.8376 307.292 49.7205 306.738C51.0408 306.444 52.3924 306.313 53.745 306.349C55.6973 306.399 57.6769 306.32 59.6344 306.194C60.9947 305.988 62.3727 305.922 63.7469 305.996C64.5456 306.088 65.3544 306.011 66.1213 305.771C66.8882 305.531 67.596 305.132 68.1992 304.601C68.7519 304.115 69.3393 303.641 69.8572 303.142C73.4827 299.796 77.6165 297.047 82.1041 294.999C85.3324 293.46 88.8772 292.701 92.4541 292.782C94.2966 292.782 96.1359 292.945 97.95 293.271C98.6688 293.462 99.4095 293.556 100.153 293.551C102.251 293.47 104.336 293.914 106.221 294.843L118.184 299.729C118.97 300.058 119.768 300.352 120.565 300.705C120.763 300.849 120.9 301.063 120.947 301.304C120.994 301.544 120.948 301.794 120.819 302.002C120.608 302.443 120.31 302.836 119.942 303.157C116.667 305.104 113.817 307.662 110.586 309.704C108.918 310.749 107.124 311.578 105.247 312.172C103.725 312.616 102.179 313.071 100.676 313.621C97.9805 314.483 95.2233 315.141 92.4282 315.588C91.4569 315.72 90.4777 315.787 89.4972 315.789C88.0327 315.86 86.641 315.839 85.0706 315.931C84.2159 315.951 83.3741 315.936 82.4975 315.908C77.7902 315.722 73.2572 314.064 69.5357 311.167C67.6674 309.741 65.4931 308.77 63.1856 308.332C61.857 308.084 60.4956 308.069 59.1624 308.288C55.6518 308.877 52.1034 309.216 48.5442 309.301C44.7257 309.451 40.9389 310.105 37.1384 310.044C35.7023 310.373 34.2335 310.539 32.7598 310.539C32.282 310.636 31.8097 310.758 31.3449 310.905C30.1419 311.23 28.9845 311.592 27.7722 311.835C25.1468 312.385 22.6313 313.173 20.0389 313.794C19.6828 313.914 19.3408 314.072 19.0187 314.266C16.646 315.363 14.197 316.668 11.6635 317.666C8.03856 319.169 4.62242 321.123 0.87488 322.423C0.708785 322.499 0.454808 322.386 0.244786 322.368C0.0347363 322.349 0.172574 321.651 0.519247 321.404C0.865886 321.157 1.10491 320.989 1.42608 320.812C3.08471 319.728 4.73054 318.678 6.41114 317.642C10.8927 314.878 15.4072 312.185 19.8887 309.42C21.7989 308.296 23.6407 307.059 25.4045 305.717C26.3594 304.947 27.3952 304.285 28.4937 303.74C30.9069 302.511 33.1668 301.002 35.2265 299.243C37.0124 297.732 38.907 296.355 40.8951 295.122C41.2061 294.932 41.502 294.718 41.7799 294.482C42.1298 294.225 42.41 293.885 42.5954 293.492C42.7807 293.099 42.8654 292.666 42.8416 292.232L42.5304 288.942C42.3433 286.98 42.0266 285.049 42.0276 283.058C42.0069 280.575 41.311 278.144 40.0148 276.025C38.6641 273.675 37.1437 271.427 35.4657 269.299C35.1296 268.937 34.8243 268.547 34.5528 268.134C32.3238 264.301 30.6396 260.175 29.5489 255.877C29.4445 255.268 29.4393 254.647 29.5336 254.038C29.6982 252.836 29.9686 251.615 30.1916 250.415C30.9756 245.564 32.7553 240.93 35.4184 236.804C36.6084 234.956 37.9136 233.17 39.2426 231.372C39.7997 230.597 40.4325 229.879 41.1317 229.229C42.7788 227.747 44.4716 226.301 46.1517 224.889C46.3762 224.814 46.9149 224.796 47.3275 224.692Z"
    fill="#36532A" fill-opacity="0.76" />
</svg>