<svg width="294" height="236" viewBox="0 0 294 236" fill="none" xmlns="http://www.w3.org/2000/svg">
<g opacity="0.45">
<path d="M218.576 142.194C226.288 141.897 233.842 142.658 241.57 142.94C248.499 143.186 284.628 144.627 292.554 145.161L292.658 132.301C286.123 132.939 251.833 133.972 246.53 134.34C240.526 134.761 234.522 135.303 228.468 135.714C216.461 136.527 204.365 134.8 192.396 134.593C168.399 134.18 144.341 131.316 120.442 128.583C115.916 128.066 110.876 128.036 106.632 126.121C102.387 124.207 101.003 119.746 101.309 115.318C102.113 103.634 114.125 103.421 122.789 104.171C146.673 106.284 170.828 105.708 194.731 104.221C208.579 103.333 221.983 104.061 235.796 105.032C246.79 105.811 281.856 106.404 292.844 106.702L292.952 93.2926C281.951 93.3739 246.87 93.461 235.884 94.0625C222.618 94.7955 209.733 95.4116 196.451 94.3745C183.338 93.3588 170.195 92.5127 157.045 92.4467C143.895 92.3807 130.648 91.9639 117.662 93.8392C108.151 95.2026 98.9712 98.8587 95.4896 108.971C92.571 117.468 95.3463 126.74 101.658 132.761C110.361 141.112 123.965 140.722 135.027 141.711C148.178 142.877 161.133 142.261 174.281 142.567C189.119 142.907 203.771 142.775 218.576 142.194Z" fill="#5B1F29"/>
<path d="M224.741 158.965C234.01 159.039 243.27 159.114 252.528 159.419C257.797 159.571 287.184 160.098 292.432 160.331L292.508 150.861C281.507 150.912 246.264 151.228 235.224 151.119C220.385 150.999 205.539 150.846 190.687 150.66C175.687 150.539 160.693 149.788 145.696 149.297C132.269 148.869 117.233 149.598 104.585 144.255C94.5893 140.015 85.4514 132.271 82.682 121.028C80.1161 110.587 83.7351 98.3158 93.0001 92.7703C98.4064 89.5338 104.811 89.0154 110.924 88.7047C117.857 88.3506 124.799 88.0866 131.741 87.8725C146.866 87.3245 161.981 86.7063 177.106 86.2383C207.694 85.3149 262.443 85.6263 293.028 86.403L293.119 75.1533C263.84 74.8372 210.428 74.8466 181.114 75.2502C164.612 75.4572 148.109 75.8141 131.612 76.6111C117.606 77.2882 102.838 76.9491 90.0045 83.5359C79.1994 89.0789 73.1453 100.731 72.6467 112.957C72.1481 125.183 77.5748 136.777 86.2899 144.858C96.4343 154.28 109.184 158.043 122.631 158.561C138.627 159.12 154.631 158.679 170.632 158.588C188.684 158.434 206.712 158.749 224.741 158.965Z" fill="#5B1F29"/>
<path d="M292.356 169.7C261.95 169.105 207.363 168.475 176.998 167.77C160.151 167.384 143.281 167.218 126.449 166.242C111.505 165.362 96.1315 163.308 83.1989 154.893C77.5697 151.264 72.8691 146.366 69.4738 140.592C65.5291 133.72 64.4824 125.861 63.8356 118.016C63.1889 110.171 62.8462 101.818 66.0257 94.4529C68.737 88.1046 74.0078 83.0669 79.7162 79.5628C93.4741 71.1935 110.798 69.5131 126.4 68.1288C142.862 66.6715 159.331 66.9143 175.805 67.7172C194.568 68.6285 213.286 70.1595 232.039 71.1707C244.394 71.8303 280.841 72.3042 293.172 72.2437L293.269 60.2441C263.772 61.0062 210.183 60.6741 180.673 59.3362C163.178 58.5351 145.543 57.9629 128.062 59.2219C111.632 60.3995 93.7126 62.7051 78.859 70.5256C65.3512 77.6469 56.621 90.0369 55.1544 105.736C53.6877 121.434 56.2551 137.896 66.427 150.098C87.6922 175.59 125.92 174.828 155.604 175.588C193.128 176.54 254.789 177.838 292.313 178.81L292.356 169.7Z" fill="#5B1F29"/>
<path d="M292.127 198.159L292.209 187.99C257.2 189.007 198.066 190.431 162.995 187.948C143.695 186.592 124.34 184.746 105.235 181.482C88.9869 178.731 72.8456 173.87 60.9249 161.504C38.8985 138.646 36.7363 101.707 56.6596 76.5668C66.9041 63.649 81.7344 56.2283 97.1472 52.2225C114.308 47.9548 132.042 46.4637 149.675 47.8058C171.523 49.2921 193.168 51.3266 215.085 51.7434C233.083 52.0885 275.272 52.3387 293.303 52.2641L293.397 40.6144C255.694 40.9205 193.86 41.1319 156.165 41.578C137.613 41.7984 118.847 39.917 100.453 42.8688C83.6004 45.573 67.3773 52.0924 54.9959 64.623C31.6745 88.2657 27.0156 126.559 44.4757 155.141C53.1855 169.433 66.4991 180.336 82.2276 186.057C100.504 192.724 121.015 194 140.154 195.404C163.141 197.089 186.22 197.335 209.22 197.381C228.85 197.469 272.557 198.082 292.127 198.159Z" fill="#5B1F29"/>
<path d="M292.073 204.849C257.781 206.253 199.336 206.531 165.063 205.595C144.807 205.032 124.328 204.847 104.187 202.324C85.5458 199.944 71.3188 190.829 55.738 179.703C41.0123 169.184 29.2844 152.759 26.5543 134.156C23.7086 115.002 24.5766 99.1389 32.7148 82.0239C36.896 73.2173 42.0167 64.4683 48.5845 57.3311C55.3439 49.9853 64.089 45.6657 72.7845 41.2957C82.6649 36.3252 91.9478 33.5299 102.952 33.0286C113.957 32.5274 124.688 32.3939 135.57 32.1716C159.575 31.6751 183.581 31.0087 207.579 31.3222C219.579 31.4689 231.579 31.5157 243.504 32.0919C249.502 32.3903 255.499 32.7786 261.413 33.5563C264.05 33.8976 290.806 34.5734 293.402 35.0743L293.487 24.5047C286.489 24.2482 255.39 24.0275 248.433 23.5913C236.748 22.8671 225.054 22.1228 213.344 22.0384C190.445 21.8537 167.54 22.4091 144.646 22.8245C132.874 23.0296 121.09 23.5046 109.32 23.4397C98.3201 23.351 87.9628 24.2075 77.6784 28.4347C68.3872 32.2599 58.6097 36.8712 50.4514 42.8356C42.293 48.8 36.0882 56.8103 30.7683 65.4577C20.159 82.7027 18.0485 98.8762 18.6024 119.471C19.1108 138.276 24.4578 158.52 36.0197 173.214C62.1818 206.546 103.163 212.756 141.272 214.284C183.469 216.004 249.762 217.228 291.944 215.868L292.073 204.849Z" fill="#5B1F29"/>
<path d="M239.225 234.184C248.727 233.991 282.346 234.172 291.838 233.988L291.928 222.789C272.657 224.163 229.293 225.664 209.949 226.128C186.066 226.659 162.172 225.949 138.364 224C116.257 222.212 93.5455 219.849 72.4034 212.578C53.954 206.239 40.9644 196.214 29.3951 179.96C6.80019 148.227 1.26579 94.1807 24.2015 60.0745C48.5442 23.8796 87.3021 18.0919 126.57 14.8485C153.168 12.6429 179.844 11.6712 206.596 11.9336C227.595 12.1529 272.664 13.6864 293.572 15.175L293.668 3.26541C274.411 1.62008 230.835 0.888701 211.576 0.693415C186.191 0.428725 160.82 1.22419 135.465 3.0798C93.3381 6.21023 52.9063 11.2344 23.6017 46.4093C-4.39018 80.0147 -4.72792 131.824 13.3385 169.551C22.0619 187.761 31.9712 202.772 49.0986 213.09C68.3159 224.666 90.5755 228.525 112.344 231.231C140.447 234.728 168.544 235.164 196.806 235.052C210.978 234.956 225.092 234.45 239.225 234.184Z" fill="#5B1F29"/>
<path d="M236.439 123.308C247.129 123.254 282.024 124.025 292.727 123.692L292.811 113.292C282.121 114.506 247.311 115.605 236.499 115.788C223.677 116.005 210.888 115.892 198.061 115.408C172.168 114.429 145.994 116.118 120.253 112.401C113.211 111.344 111.748 121.632 118.914 122.11C144.901 123.85 171.14 124.111 197.195 123.571C210.278 123.297 223.348 123.372 236.439 123.308Z" fill="#5B1F29"/>
</g>
</svg>
