<svg width="364" height="518" viewBox="0 0 364 518" fill="none" xmlns="http://www.w3.org/2000/svg">
<g style="mix-blend-mode:multiply">
<path d="M234.078 324.808C234.062 325.142 233.888 325.527 233.564 325.542C231.379 325.539 229.184 325.556 226.991 325.416C223.588 325.173 220.172 325.055 216.784 325.136C215.676 325.139 214.579 325.069 213.481 325.104C212.386 325.103 211.292 325.176 210.206 325.323C205.845 326.059 201.471 326.313 197.065 326.629C195.425 326.732 193.791 326.929 192.173 327.22C188.282 328.015 184.412 328.768 180.608 329.9C178.906 330.385 177.255 330.976 175.594 331.535C174.558 331.908 173.439 331.991 172.36 331.776C168.797 331.296 165.179 331.407 161.651 332.106C156.104 333.008 150.776 334.949 145.946 337.826C143.834 339.048 141.775 340.27 139.684 341.502C133.708 344.956 128.22 349.195 123.369 354.108C121.666 355.859 119.984 357.62 118.406 359.436C116.019 362.172 113.424 364.719 110.644 367.053C108.31 369.062 106.089 371.199 103.99 373.453C101.223 376.286 98.508 379.171 95.772 382.046C95.4099 382.438 95.0162 382.839 94.664 383.263C91.5151 386.787 88.1113 390.075 84.4803 393.1C83.4723 393.973 82.5056 394.868 81.5597 395.773C78.6904 398.499 75.831 401.257 72.9518 403.952C72.3139 404.569 71.5842 405.059 70.9383 405.541C71.1455 405.649 71.2121 406.026 71.3689 406.029C73.6552 406.191 75.9632 406.312 78.2505 406.422C79.7946 406.49 81.341 406.346 82.8466 405.994C85.0925 405.476 87.3491 404.937 89.6048 404.45C91.8606 403.963 93.4659 403.612 95.4676 403.31C97.7453 402.955 100.004 402.485 102.234 401.902C105.846 400.935 109.499 400.094 113.101 399.095C116.822 398.091 120.426 396.698 123.856 394.937C125.016 394.328 126.218 393.74 127.43 393.132C129.372 392.086 131.292 391.029 133.182 389.929C137.744 387.241 142.224 384.457 146.552 381.409C147.526 380.703 148.5 379.997 149.433 379.217C151.426 377.617 153.398 376.006 155.308 374.363C158.828 371.372 161.963 367.953 164.64 364.187C167.063 360.775 169.166 357.145 170.921 353.346C172.002 351.271 172.42 348.85 173.318 346.521C174.111 344.346 174.676 342.093 175.002 339.801C175.202 338.507 175.538 337.204 175.852 335.943C175.929 335.619 176.089 335.321 176.317 335.079C176.545 334.836 176.833 334.658 177.151 334.562C178.003 334.294 178.843 334.046 179.694 333.829C183.075 332.953 186.489 331.961 189.911 331.106C191.613 330.676 193.34 330.351 195.081 330.133C200.548 329.499 206.014 328.97 211.48 328.388L217.062 327.788C220.235 327.462 223.418 327.116 226.6 326.874C227.912 326.771 229.23 326.779 230.541 326.896C236.032 327.277 241.513 327.679 246.934 328.499C248.78 328.777 250.606 329.174 252.401 329.685C254.108 330.152 255.771 330.702 257.455 331.21C259.247 331.736 260.985 332.429 262.646 333.282C264.303 334.145 265.961 335.009 267.618 335.872C270.275 337.19 272.841 338.686 275.297 340.348C277.057 341.476 278.878 342.504 280.753 343.428C281.155 343.584 281.581 343.672 282.013 343.689C282.013 343.689 282.265 343.609 282.277 343.536C282.289 343.463 282.493 343.121 282.328 342.982C279.693 340.329 276.637 338.13 273.284 336.476C270.806 335.317 268.415 333.939 265.97 332.665C263.132 331.218 260.186 329.992 257.159 328.998C256.544 328.77 255.941 328.508 255.354 328.216C253.593 327.298 251.755 326.578 249.983 325.681C246.627 324.034 243.175 322.588 239.647 321.351C234.984 319.432 230.2 317.821 225.326 316.528C222.123 315.736 218.961 314.784 215.853 313.676C211.687 312.272 207.442 311.117 203.139 310.218C199.719 309.44 196.343 308.474 193.029 307.325C190.639 306.502 188.194 305.834 185.771 305.126C184.568 304.809 183.397 304.384 182.27 303.856C181.622 302.868 181.086 301.81 180.673 300.702C179.96 299.072 178.942 297.593 177.675 296.344C176.113 294.791 174.519 293.301 172.935 291.79C172.844 291.73 172.747 291.679 172.645 291.639C169.231 289.043 165.504 286.888 161.551 285.225C160.068 284.724 158.622 284.121 157.223 283.419C154.039 281.92 150.706 280.758 147.28 279.953C140.064 278.061 132.72 276.694 125.305 275.864C121.726 275.297 118.103 275.043 114.479 275.104C112.637 275.2 110.751 274.877 108.902 274.836C105.067 274.764 101.21 274.733 97.3843 274.745C96.5028 274.803 95.6269 274.929 94.7646 275.121C90.2169 275.924 85.5791 276.075 80.9905 275.569C78.0277 275.239 75.0611 275.118 72.1649 274.559C71.5082 274.454 70.8731 274.308 70.2056 274.224C70.2056 274.224 70.0434 274.535 69.9677 274.68C69.8921 274.826 70.0263 274.922 70.0984 274.986C70.3584 275.174 70.6446 275.323 70.9479 275.428C72.2163 275.825 73.4738 276.243 74.744 276.536C75.7155 276.749 76.6264 277.178 77.4087 277.792C78.4716 278.583 79.5031 279.385 80.5021 280.248C83.3996 282.79 86.7327 284.785 90.3409 286.14C92.5094 287.031 94.5694 288.166 96.481 289.523C99.1365 291.216 101.697 293.052 104.152 295.024C105.965 296.457 107.954 297.653 110.07 298.582C111.334 299.241 112.598 299.899 113.862 300.558C118.005 302.717 122.149 304.876 126.546 306.903C128.934 308.028 131.44 308.883 134.018 309.45C137.09 310.271 140.211 310.901 143.361 311.338C146.649 311.652 149.892 312.102 153.216 312.092C156.079 312.138 158.942 312.027 161.793 311.76C165.163 311.511 168.577 311.126 171.949 310.772C174.7 310.573 177.378 309.793 179.807 308.482C180.103 308.32 180.418 308.22 180.84 308.018C181.261 307.815 181.972 308.423 182.617 308.601C184.302 309.109 185.954 309.68 187.672 310.074C193.877 311.513 200.082 312.952 206.299 314.265C209.642 314.978 212.93 315.847 216.23 316.643C218.062 317.07 219.841 317.601 221.629 318.163C225.507 319.366 229.519 320.058 233.385 321.386C234.299 321.704 235.224 322.054 236.137 322.424C236.405 322.588 236.644 322.793 236.848 323.032C235.298 323.133 233.743 322.999 232.234 322.634C230.193 322.183 228.125 321.863 226.042 321.676C225.387 321.633 224.736 321.549 224.092 321.425C221.415 320.848 218.682 320.532 215.951 320.112C213.219 319.691 210.308 319.414 207.449 319.138L205.82 319.028L198.904 318.802C196.166 318.747 193.472 318.61 190.67 318.627C188.477 318.54 186.274 318.368 184.09 318.312C181.228 318.245 178.386 318.137 175.521 318.226C170.627 318.315 165.672 318.371 160.719 318.877C155.564 319.267 150.434 319.932 145.35 320.869C144.817 320.988 144.273 321.049 143.727 321.052L134.538 321.092C133.652 321.108 132.783 320.857 132.042 320.372C129.878 319.064 127.536 318.075 125.089 317.435C119.395 315.761 113.528 314.74 107.602 314.392C105.869 314.28 104.127 314.085 102.361 314.036C98.0762 313.876 93.787 314.218 89.5804 315.054C86.0215 315.759 82.5054 316.666 79.0493 317.772C75.5702 318.888 72.192 320.214 68.8642 321.646C65.9508 322.935 63.1514 324.468 60.496 326.23C57.251 328.312 54.0673 330.478 50.7413 332.412C43.8336 336.509 36.6612 340.14 29.2718 343.282C27.6493 343.959 25.9584 344.458 24.2288 344.77C22.1611 345.085 20.1398 345.653 18.2102 346.462C18.0251 346.571 17.8767 346.732 17.784 346.926C17.6759 347.133 17.8984 347.566 18.2092 347.728C18.4825 347.909 18.7742 348.061 19.0794 348.181C19.4796 348.362 19.9033 348.485 20.3379 348.547C24.1692 348.828 27.9392 349.632 31.7822 349.84C33.0955 349.898 34.4111 349.887 35.7235 349.809C37.9306 349.719 40.1269 349.65 42.3303 349.769C44.5338 349.888 47.3552 349.934 49.8938 350.016C51.87 350.063 53.8385 350.277 55.7782 350.655C63.33 352.117 71.0191 352.752 78.7102 352.552C81.1258 352.467 83.5315 352.195 85.9053 351.736C88.9277 351.282 91.915 350.617 94.8454 349.746C96.6219 349.168 98.4678 348.811 100.204 348.159C102.052 347.45 103.853 346.627 105.598 345.693C107.824 344.505 109.948 343.158 112.124 341.864L114.649 340.304C116.378 339.377 118.005 338.27 119.504 337.003C120.014 336.578 120.563 336.201 121.144 335.879C121.896 335.417 122.624 334.916 123.323 334.376C125.418 332.634 127.735 331.18 130.213 330.051C130.611 329.864 130.939 329.554 131.148 329.166C131.807 327.901 132.456 326.656 133.234 325.162C134.272 324.707 135.387 324.455 136.519 324.42C138.476 324.305 140.451 324.305 142.419 324.117C144.388 323.929 146.099 323.528 147.962 323.338C151.124 322.965 154.303 322.755 157.485 322.707C157.815 322.738 158.147 322.744 158.478 322.723C163.495 322.144 168.56 322.383 173.613 322.14C176.448 322.008 179.313 321.97 182.179 321.88C182.932 321.85 183.716 321.863 184.47 321.781C191.494 321.329 198.539 321.316 205.564 321.744C208.144 321.848 210.692 322.015 213.146 322.107C215.561 322.24 217.968 322.498 220.356 322.882C222.618 323.243 224.922 323.573 227.176 323.797C229.469 324.048 231.748 324.416 234.004 324.901L234.501 325.16L234.625 325.225L234.078 324.808Z" fill="#36532A" fill-opacity="0.76"/>
</g>
<g style="mix-blend-mode:multiply">
<path d="M224.72 92.6972C224.954 93.2571 225.187 93.7237 225.35 94.2369C226.119 96.5697 226.258 99.1825 226.958 101.609C226.981 101.826 226.981 102.045 226.958 102.262L227.936 114.719C228.378 117.315 228.519 119.953 228.356 122.581C228.495 124.546 228.495 126.518 228.356 128.483C228.332 128.708 228.332 128.934 228.356 129.159C228.705 131.982 229.078 134.805 229.451 137.627C229.614 138.934 229.731 140.24 229.894 141.546C230.266 144.136 230.616 146.749 231.012 149.338C231.199 150.317 231.199 151.322 231.012 152.301C230.375 155.864 230.133 159.486 230.29 163.102C230.406 164.187 230.406 165.282 230.29 166.368C230.208 167.018 230.208 167.677 230.29 168.327C230.29 170.077 230.453 171.826 230.523 173.576C230.558 173.792 230.558 174.013 230.523 174.229C229.894 177.472 230.173 180.808 229.637 184.05C229.358 185.777 228.985 187.48 228.635 189.183C228.426 190.256 228.053 191.282 227.843 192.355C227.712 192.889 227.672 193.441 227.727 193.988C227.823 195.191 227.697 196.401 227.354 197.557C226.535 200.4 225.935 203.301 225.559 206.236C225.541 206.564 225.446 206.884 225.28 207.169C224.723 208.233 224.39 209.4 224.301 210.598C223.975 212.441 223.625 214.26 223.416 216.127C223.299 217.107 223.136 218.086 223.113 219.066C223.142 220.39 222.768 221.692 222.041 222.799C221.696 223.296 221.462 223.861 221.353 224.457C221.245 225.052 221.264 225.664 221.412 226.251C221.808 228.397 222.157 230.567 222.553 232.736C222.833 234.136 223.159 235.512 223.439 236.912C223.969 239.317 224.319 241.757 224.487 244.214C224.487 246.827 225 249.439 225.256 252.052C225.256 252.729 225.443 253.358 225.489 254.035C225.819 259.175 226.488 264.287 227.493 269.338C228.967 277.439 230.912 285.446 233.319 293.32C234.841 298.578 236.669 303.742 238.795 308.786C239.588 310.583 240.147 312.496 240.776 314.362C241.405 316.228 242.267 318.701 242.99 320.894C243.356 321.926 243.883 322.895 244.551 323.763C247.534 327.713 250.493 331.671 253.429 335.637C255.392 338.28 257.5 340.811 259.744 343.219C260.606 344.057 261.309 345.045 261.818 346.135C262.209 347.039 262.808 347.839 263.566 348.468C264.612 349.397 265.571 350.42 266.432 351.524C267.62 352.97 268.762 354.393 270.021 355.816C271.279 357.239 272.351 358.499 273.446 359.805C274.238 360.715 275.031 361.625 275.776 362.465L282.324 368.95C282.639 369.243 282.872 369.612 283 370.023C283 370.256 282.86 370.629 282.674 370.886C282.487 371.143 282.231 370.886 282.091 370.886C280.996 369.976 279.901 369.066 278.852 368.087C277.804 367.107 276.149 365.544 274.704 364.354C273.26 363.164 272.001 361.788 270.673 360.482C269.345 359.175 267.83 357.752 266.432 356.329C265.034 354.906 263.566 353.32 262.121 351.827C260.676 350.334 259.791 349.494 258.719 348.258C255.759 345.458 253.15 342.356 250.33 339.44C250.165 339.293 250.016 339.129 249.887 338.95L243.129 330.155L241.522 328.079C240.799 327.099 240.007 326.189 239.378 325.163C238.016 323.039 236.53 320.998 234.927 319.051C232.224 315.598 229.474 312.169 226.748 308.74C226.666 308.665 226.595 308.578 226.538 308.483C224.418 305.007 221.645 302.021 219.268 298.732C218.722 297.909 218.114 297.13 217.45 296.399C216.538 295.439 215.755 294.365 215.12 293.203C214.461 292.056 213.68 290.985 212.79 290.007C209.154 285.621 205.473 281.259 201.814 276.873C201.255 276.22 200.649 275.567 200.066 274.914C199.484 274.261 199.158 273.957 198.738 273.444C196.688 270.878 194.637 268.312 192.61 265.699C191.532 264.317 190.34 263.029 189.044 261.85C187.809 260.754 186.598 259.657 185.432 258.491C184.467 257.442 183.343 256.552 182.1 255.855C181.518 255.551 180.982 255.155 180.399 254.852C175.556 252.266 171.171 248.901 167.42 244.89C164.426 241.683 161.691 238.243 159.24 234.603C158.821 233.973 158.425 233.32 157.959 232.713C155.687 229.744 153.69 226.574 151.993 223.242C150.898 221.119 149.663 218.996 148.661 216.827C147.271 214.092 146.117 211.243 145.212 208.312C143.612 203.53 142.457 198.61 141.764 193.615C141.139 188.973 140.765 184.301 140.645 179.618C140.645 178.848 140.645 178.078 140.505 177.285C140.012 171.709 139.88 166.106 140.109 160.512C140.109 159.859 140.249 159.206 140.319 158.553C140.459 157.34 140.598 156.22 140.715 154.96C141.141 150.04 141.849 145.149 142.835 140.31C143.183 138.597 143.747 136.935 144.513 135.364C144.589 135.298 144.679 135.251 144.776 135.227C144.873 135.202 144.975 135.202 145.073 135.225C145.408 135.494 145.706 135.808 145.958 136.158C147.566 138.49 149.22 140.823 150.618 143.156C151.76 145.022 152.669 147.029 153.671 148.988C153.868 149.379 154.009 149.795 154.091 150.225C154.51 152.721 155.512 155.054 156.071 157.503C156.556 159.419 157.156 161.304 157.866 163.148C158.588 165.201 159.45 167.231 160.196 169.284C161.119 171.551 161.852 173.892 162.386 176.282C162.537 177.027 162.821 177.738 163.225 178.382C163.823 179.431 164.263 180.563 164.53 181.741C164.981 183.881 165.768 185.936 166.86 187.83C167.603 189.176 168.272 190.563 168.864 191.982C170.938 196.438 172.919 200.963 175.086 205.396C177.253 209.828 179.304 214.54 181.448 219.113C181.727 219.719 181.984 220.326 182.263 220.909C183.103 222.701 183.503 224.669 183.428 226.648C183.385 227.429 183.44 228.213 183.592 228.981C184.25 232.766 184.631 236.594 184.733 240.435C184.81 244.835 185.912 249.156 187.949 253.055C189.19 255.582 190.756 257.935 192.61 260.054C193.719 261.409 194.738 262.835 195.662 264.323C195.907 264.688 196.125 265.07 196.315 265.466C199.066 270.334 202.34 274.886 206.078 279.043C207.081 280.233 208.036 281.376 208.991 282.635C209.901 283.87 210.923 285.018 212.044 286.065C212.749 286.748 213.396 287.489 213.978 288.281C215.917 290.811 218.137 293.112 220.596 295.139C221.252 295.717 221.804 296.404 222.227 297.169C223.441 299.125 224.923 300.899 226.631 302.441C226.631 302.441 227.004 302.441 227.191 302.441C227.221 302.35 227.221 302.252 227.191 302.161C227.18 301.945 227.133 301.732 227.051 301.531C226.777 300.937 226.466 300.36 226.119 299.805C223.823 296.326 221.782 292.685 220.013 288.911C220.013 288.794 220.013 288.701 219.897 288.607C217.917 285.185 216.263 281.585 214.957 277.853C213.489 274.074 211.811 270.388 210.296 266.656C207.163 259.647 204.409 252.475 202.047 245.17C200.882 241.298 199.577 237.449 198.272 233.506C196.478 228.211 195.266 222.729 193.961 217.293C192.47 211.111 190.978 204.929 189.58 198.631C188.769 195.216 188.155 191.758 187.739 188.273C187.6 186.966 187.343 185.66 187.157 184.377C186.477 178.812 186.345 173.195 186.761 167.604C186.959 162.666 186.607 157.721 185.712 152.861C185.654 152.485 185.504 152.129 185.277 151.824C185.049 151.519 184.751 151.274 184.407 151.111C184.055 150.947 183.739 150.714 183.479 150.426C183.219 150.137 183.019 149.799 182.892 149.431C180.08 143.732 177.598 137.874 175.459 131.889C174.667 129.369 173.874 126.873 173.292 124.307C172.373 119.787 171.951 115.179 172.033 110.567C172.15 107.063 172.5 103.572 173.082 100.116C174.286 92.7477 176.342 85.5451 179.211 78.6537C180.208 76.5489 181.321 74.5007 182.543 72.5183C183.049 71.6718 183.441 70.7619 183.708 69.8123C183.816 69.3879 183.981 68.9799 184.197 68.5992C185.782 65.2166 187.11 61.7407 188.508 58.2882C189.877 54.9373 191.433 51.6662 193.169 48.4903C195.115 44.6814 196.721 40.7079 197.969 36.6162C198.589 34.7558 199.368 32.9527 200.299 31.2274C200.299 31.0875 200.672 31.0642 200.859 31.0175C201.045 30.9708 201.092 31.0175 201.092 31.1575C201.146 33.4516 201.435 35.7341 201.954 37.9693C202.084 38.9478 202.342 39.9047 202.723 40.8153C203.491 42.8639 203.847 45.0439 203.771 47.2306C203.771 50.5199 203.888 53.8325 204.074 57.0984C204.261 60.3643 204.68 63.2104 204.913 66.2897C205.146 69.24 205.146 72.2041 204.913 75.1544C204.715 77.335 204.715 79.5291 204.913 81.7097C205.205 85.5455 205.205 89.3979 204.913 93.2338C204.668 95.2954 204.318 97.3431 203.865 99.3691C203.585 102.215 202.723 104.945 202.536 107.814C202.512 108.608 202.37 109.394 202.117 110.147C201.495 112.582 200.717 114.974 199.787 117.309C199.559 117.811 199.409 118.346 199.344 118.895C198.806 121.474 198.073 124.008 197.154 126.476C196.897 127.2 196.688 127.946 196.501 128.693C196.109 130.625 195.45 132.494 194.544 134.245C194.45 134.446 194.379 134.657 194.334 134.875C193.215 138.677 191.281 142.153 190 145.886C189.918 146.205 189.775 146.506 189.58 146.772C188.622 148.126 188.213 149.794 188.438 151.438C188.438 156.383 188.438 161.329 188.648 166.251C188.648 170.543 188.648 174.812 188.951 179.082C189.163 183.775 189.677 188.451 190.489 193.078C191.072 196.088 191.445 199.144 191.934 202.176C192.167 203.693 192.4 205.209 192.773 206.702C193.985 211.601 195.235 216.484 196.524 221.352C197.224 224.012 197.993 226.624 198.855 229.26C198.998 229.793 199.177 230.315 199.391 230.823C201.441 235.489 203.049 240.155 204.657 244.984C205.496 247.48 206.428 249.953 207.174 252.472C208.402 256.34 209.833 260.14 211.461 263.856C212.813 267.091 214.211 270.31 215.656 273.514C216.541 275.52 217.52 277.48 218.499 279.439C219.687 281.772 220.992 284.105 222.111 286.438C223.485 289.331 225.07 292.083 226.771 294.836C229.288 299.198 231.921 303.491 234.531 307.807C234.671 307.974 234.846 308.109 235.043 308.203C235.078 308.226 235.118 308.238 235.16 308.238C235.201 308.238 235.242 308.226 235.277 308.203C235.277 308.203 235.44 307.993 235.416 307.923C234.927 306.244 234.391 304.587 233.878 302.908C233.366 301.228 232.783 299.572 232.34 297.892C231.898 296.212 231.478 294.253 231.059 292.457C230.919 291.803 230.802 291.15 230.616 290.52C228.476 283.265 226.81 275.877 225.629 268.405C224.744 262.993 224.161 257.534 223.719 252.075C223.532 249.999 223.206 247.946 222.926 245.87C222.39 241.951 221.971 238.032 221.132 234.206C221.043 233.67 220.919 233.14 220.759 232.62C219.128 227.488 218.429 222.145 217.124 216.92C216.891 215.963 216.681 214.984 216.471 214.027C216.115 212.519 215.301 211.158 214.141 210.131L212.906 209.035C212.091 208.312 211.275 207.565 210.436 206.865C207.315 204.206 205.248 200.515 204.61 196.461C203.101 189.256 202.576 181.879 203.049 174.533C203.166 172.783 203.259 171.033 203.305 169.284C203.336 167.635 203.531 165.994 203.888 164.385C204.447 161.819 204.913 159.229 205.682 156.71C206.451 154.19 206.941 152.044 207.593 149.711C208.657 145.905 210.029 142.191 211.694 138.607C214.025 133.755 216.145 128.833 218.336 123.934C219.934 120.552 220.86 116.892 221.062 113.156C221.096 112.5 221.166 111.845 221.272 111.196C221.994 106.974 222.763 102.775 223.462 98.5526C223.672 97.2462 223.742 95.9165 223.905 94.6101C223.981 94.1824 224.09 93.7612 224.231 93.3504C224.355 93.1056 224.52 92.8845 224.72 92.6972Z" fill="#36532A" fill-opacity="0.76"/>
</g>
</svg>
