<svg width="154" height="75" viewBox="0 0 154 75" fill="none" xmlns="http://www.w3.org/2000/svg">
<g opacity="0.3">
<path d="M44.76 0.41186C8.52002 1.09186 -27.72 2.05187 -63.96 2.73187L-63.96 13.8119C-34.75 12.6619 -5.53999 11.9119 23.68 11.2519C38.86 10.9119 54.05 10.6519 69.24 10.2519C83.89 9.87186 98.58 8.57186 113.24 8.57186C125.75 8.57186 139.24 12.3019 142.64 26.8219C145.49 39.0219 138.55 51.6619 128.36 57.2319C115.36 64.3319 98.51 63.8519 84.36 64.7319C68.82 65.7319 53.24 66.0919 37.68 66.2819C3.74002 66.7119 -30.11 65.6919 -63.98 63.6419L-63.98 74.5119C-30.84 74.8719 2.31669 74.5552 35.49 73.5619C52.38 73.0619 69.26 72.4419 86.15 71.9019C94.5 71.6419 102.85 71.5619 111.2 71.3319C118.26 71.1419 125.2 70.3319 131.75 67.3319C142.96 62.0719 151.75 50.5419 152.99 37.4519C154.23 24.3619 147.5 11.6319 136.64 5.58187C124.35 -1.26813 108.72 0.431854 95.3 0.161858C78.42 -0.188139 61.59 0.09186 44.76 0.41186Z" fill="white"/>
<path d="M-23.98 18.1519C-37.29 18.4219 -50.65 19.1518 -63.98 19.2518L-63.98 28.3619C-41.57 26.6619 -18.83 26.8119 3.57 26.6419C29.66 26.4519 55.74 26.5818 81.81 25.7218C88.08 25.5118 94.37 25.5818 100.63 25.7818C106.16 25.9518 115.25 24.9518 118.73 30.3218C125.41 40.5918 99.28 43.7118 94.11 44.4118C68.4923 48.056 42.6721 50.0966 16.8 50.5219C-10.26 50.8019 -37.04 48.5919 -64 47.1519L-64 56.9118C-37.15 57.5218 -10.19 57.2319 16.66 57.0819C44.86 56.9219 73.08 56.6019 101.05 52.6119C110.88 51.2119 124.05 48.3218 128.12 37.7918C132.75 25.7118 119.97 19.7018 110.06 19.4518C81.53 18.7318 53.06 17.0419 24.55 17.2719C8.36 17.4019 -7.81 17.8219 -23.98 18.1519Z" fill="white"/>
</g>
</svg>
