<svg width="394" height="697" viewBox="0 0 394 697" fill="none" xmlns="http://www.w3.org/2000/svg">
<path d="M88.8759 500.064C76.001 500.153 63.3635 496.987 52.4411 490.934C20.7833 472.892 10.5006 438.136 11.5127 411.646C13.1725 365.317 43.1705 356.332 56.0441 354.607C89.3617 350.186 127.092 374.123 140.087 408.016C148.426 429.581 154.661 452.405 144.135 472.245C140.627 478.49 135.643 483.989 129.523 488.368C123.403 492.747 116.291 495.903 108.672 497.62C102.237 499.261 95.5716 500.084 88.8759 500.064ZM16.3302 411.79H21.2691C20.4595 435.907 29.6086 467.356 57.7039 483.423C64.8291 487.25 72.7693 489.728 81.0253 490.699C89.2813 491.67 97.6743 491.114 105.676 489.065C111.923 487.673 117.759 485.103 122.789 481.531C127.818 477.959 131.923 473.468 134.824 468.363C143.892 451.362 138.063 430.624 130.412 410.856C117.497 377.214 82.3581 359.998 57.1776 363.34C35.2358 366.252 22.1193 383.971 21.1072 411.934L16.3302 411.79Z" fill="white"/>
<path d="M95.7985 589.811C71.058 589.193 47.0907 582.021 26.9772 569.216C-11.6841 545.89 -41.844 504.52 -55.3654 455.388C-68.8867 406.255 -64.555 357.158 -43.2204 319.743C-25.9746 289.444 5.35928 271.473 45.0732 269.172C93.6529 266.369 146.281 288.617 173.081 323.337C204.847 364.84 224.338 412.773 229.757 462.72C231.093 475.192 231.741 489.748 226.114 503.083C220.163 517.208 208.018 528.242 197.29 537.946C170.409 562.351 145.431 583.018 112.275 588.481C106.841 589.377 101.325 589.822 95.7985 589.811ZM32.5639 561.956C58.3921 577.519 86.0826 583.88 110.494 579.927C140.816 574.931 164.579 555.199 190.286 531.908C200.326 522.779 211.661 512.464 216.883 500.064C221.822 488.418 221.215 475.12 219.96 463.618C214.656 415.136 195.709 368.615 164.863 328.333C140.127 295.985 91.1025 275.354 45.6804 278.014C9.61001 280.099 -18.8091 296.38 -34.4356 323.804C-76.6999 398.06 -43.5443 516.094 32.5639 561.956Z" fill="white"/>
<path d="M78.7956 667.625C61.7792 667.661 44.8411 665.58 28.4751 661.443C-17.8375 649.654 -61.6402 620.002 -94.7554 578.094C-127.712 535.606 -146.769 485.843 -149.812 434.326C-151.903 391.766 -145.685 349.206 -131.433 308.529C-118.519 272.587 -93.3385 226.365 -46.6615 210.156C45.7209 177.808 166.603 229.133 217.248 295.518C233.846 317.083 247.205 343.249 259.35 377.465C278.215 430.696 283.64 473.934 276.151 513.506C271.657 538.16 261.665 561.77 246.761 582.952C231.857 604.133 212.34 622.46 189.355 636.859C156.859 656.814 118.307 667.542 78.7956 667.625ZM13.294 209.113C-5.95488 208.946 -25.0687 211.981 -43.0585 218.063C-117.507 243.905 -144.873 361.831 -139.975 433.715C-137.052 483.663 -118.612 531.917 -86.6993 573.134C-54.8391 613.353 -12.7772 641.711 31.1875 652.961C56.9826 659.237 84.0162 660.405 110.376 656.38C136.735 652.356 161.776 643.237 183.728 629.67C227.8 601.764 257.592 559.465 266.556 512.068C273.722 473.898 268.499 431.954 250.079 380.089C238.258 346.699 225.263 321.396 209.232 300.442C170.652 250.159 88.4306 209.113 13.294 209.113Z" fill="white"/>
<path d="M137.01 716.003H136.201C79.2006 715.823 27.1393 695.372 -30.1442 670.716C-69.4128 653.823 -104.471 638.081 -135.603 616.515C-208.472 565.945 -256.323 482.308 -263.124 392.813C-269.197 312.734 -243.531 225.539 -190.903 147.76C-137.06 68.0051 -52.7743 12.0434 29.0825 1.72806C88.7546 -5.78381 145.755 11.2886 193.97 51.1123C237.57 87.0902 266.556 139.889 285.098 217.272C289.51 235.71 293.194 254.58 296.919 272.802C305.015 314.279 313.76 357.194 330.601 397.018C337.321 412.868 345.498 428.611 353.433 443.742C365.578 466.997 378.006 491.042 385.819 516.309C401.082 566.305 392.054 613.353 361.53 642.106C341.288 661.047 313.314 671.291 288.66 680.348C242.712 697.025 190.731 716.003 137.01 716.003ZM57.1373 8.73675C48.2239 8.73312 39.3217 9.29767 30.4994 10.426C-48.4831 20.346 -130.178 74.5824 -182.442 152.253C-234.058 228.702 -259.359 313.992 -253.247 392.238C-246.648 479.289 -200.416 560.518 -129.53 609.579C-99.1679 630.605 -64.7573 646.132 -25.853 662.809C30.3375 686.998 81.3057 707.161 136.241 707.161H137.01C188.829 707.161 239.837 688.543 284.855 672.118C308.74 663.42 335.782 653.572 354.405 635.96C382.459 609.543 390.596 565.658 376.225 518.645C368.736 494.097 356.429 470.375 344.486 447.444C336.39 432.097 328.293 416.175 321.411 400.037C304.246 359.458 295.583 316.148 287.243 274.24C283.6 256.053 279.875 237.292 275.463 218.997C257.326 143.519 229.312 92.1221 187.29 57.4381C147.941 25.0903 104.26 8.73675 57.1373 8.73675Z" fill="white"/>
</svg>
