<svg width="208" height="248" viewBox="0 0 208 248" fill="none" xmlns="http://www.w3.org/2000/svg">
<g opacity="0.3">
<path fill-rule="evenodd" clip-rule="evenodd" d="M-42.0621 181.838C-47.6244 190.054 -53.0243 198.362 -58.2617 206.764L-66.967 204.262C-59.8123 184.181 -49.296 165.356 -39.6442 145.495C-24.4272 114.213 -6.37313 81.8239 21.9558 61.6432C50.2847 41.4626 70.4708 17.7382 106.415 0.4795C78.1955 26.0597 53.7388 59.155 29.2513 88.4089C4.08483 118.436 -20.1055 149.353 -42.0621 181.838Z" fill="#8AA3A0"/>
<path fill-rule="evenodd" clip-rule="evenodd" d="M-49.677 209.3C-13.8131 184.315 24.167 162.513 63.8294 144.142C109.143 123.128 160.586 148.635 207.457 165.923C162.416 162.346 116.095 148.343 73.4401 163.189C33.777 177.213 -5.15514 193.223 -43.2087 211.159L-49.677 209.3Z" fill="#8AA3A0"/>
<path fill-rule="evenodd" clip-rule="evenodd" d="M-39.2715 212.29L-40.2558 212.007C-19.8796 202.638 1.53291 195.709 23.5362 191.364C50.3231 186.084 78.4188 198.835 103.541 209.555C133.579 222.338 165.961 227.493 192.106 247.03C163.675 235.207 132.158 228.003 101.58 223.892C68.364 219.425 34.4022 222.656 0.699146 223.832L-39.2715 212.29Z" fill="#8AA3A0"/>
<path fill-rule="evenodd" clip-rule="evenodd" d="M-56.976 207.202C-29.676 168.019 1.56711 131.735 36.2642 98.9191C76.4817 60.9171 145.344 74.5912 199.92 83.8002C152.693 88.3114 103.884 85.7129 65.4625 113.467C23.8647 143.463 -18.2439 171.72 -53.4516 208.229L-56.976 207.202Z" fill="#8AA3A0"/>
</g>
</svg>
