<svg width="264" height="235" viewBox="0 0 264 235" fill="none" xmlns="http://www.w3.org/2000/svg">
<g opacity="0.3">
<path d="M46.03 93.1482C38.32 93.5082 30.76 92.8082 23.03 92.5882C16.1 92.3982 -20.04 91.2482 -27.97 90.7782L-27.97 103.638C-21.44 102.948 12.84 101.638 18.14 101.228C24.14 100.758 30.14 100.168 36.19 99.7082C48.19 98.7982 60.3 100.428 72.27 100.538C96.27 100.758 120.35 103.428 144.27 105.968C148.8 106.448 153.84 106.438 158.1 108.318C162.36 110.198 163.78 114.648 163.51 119.078C162.8 130.768 150.79 131.078 142.12 130.398C118.22 128.478 94.07 129.248 70.18 130.928C56.34 131.928 42.93 131.308 29.11 130.448C18.11 129.758 -16.96 129.448 -27.95 129.238L-27.95 142.648C-16.95 142.478 18.13 142.108 29.11 141.418C42.37 140.578 55.25 139.858 68.54 140.788C81.66 141.698 94.81 142.438 107.96 142.398C121.11 142.358 134.36 142.668 147.33 140.688C156.83 139.248 165.98 135.518 169.38 125.378C172.23 116.858 169.38 107.608 163.02 101.638C154.25 93.3582 140.65 93.8582 129.58 92.9582C116.42 91.8982 103.47 92.6182 90.32 92.4182C75.48 92.1982 60.83 92.4482 46.03 93.1482Z" fill="#848E84"/>
<path d="M39.73 76.4282C30.46 76.4282 21.2 76.4282 11.94 76.1982C6.67004 76.0882 -22.72 75.7982 -27.97 75.6082L-27.97 85.0782C-16.97 84.9382 18.27 84.3382 29.31 84.3582C44.15 84.3582 58.9967 84.3915 73.85 84.4582C88.85 84.4582 103.85 85.0882 118.85 85.4582C132.28 85.7782 147.31 84.9282 160 90.1682C170.03 94.3282 179.23 101.998 182.09 113.218C184.74 123.638 181.22 135.938 172 141.558C166.62 144.838 160.22 145.408 154.11 145.768C147.18 146.178 140.24 146.498 133.3 146.768C118.18 147.438 103.07 148.178 87.95 148.768C57.37 149.938 2.62002 150.068 -27.97 149.538L-27.97 160.788C1.31002 160.868 54.72 160.428 84.03 159.788C100.53 159.448 117.03 158.958 133.52 158.028C147.52 157.238 162.29 157.458 175.07 150.768C185.83 145.138 191.79 133.438 192.19 121.208C192.59 108.978 187.07 97.4282 178.29 89.4182C168.07 80.0782 155.29 76.4182 141.84 76.0082C125.84 75.5782 109.84 76.1482 93.84 76.3682C75.79 76.6682 57.76 76.4982 39.73 76.4282Z" fill="#848E84"/>
<path d="M-27.97 66.2382C2.44003 66.5882 57.03 66.7782 87.4 67.2382C104.25 67.4882 121.12 67.5182 137.96 68.3582C152.91 69.1182 168.3 71.0482 181.3 79.3582C186.958 82.9424 191.698 87.8022 195.14 93.5482C199.14 100.388 200.25 108.238 200.96 116.078C201.67 123.918 202.08 132.268 198.96 139.658C196.3 146.028 191.07 151.108 185.39 154.658C171.7 163.138 154.39 164.958 138.8 166.468C122.35 168.058 105.88 167.948 89.4 167.278C70.63 166.518 51.9 165.138 33.14 164.278C20.78 163.718 -15.67 163.538 -28 163.698L-28 175.698C1.49001 174.698 55.08 174.598 84.6 175.698C102.1 176.358 119.74 176.788 137.21 175.388C153.63 174.078 171.53 171.628 186.32 163.688C199.77 156.458 208.4 143.998 209.74 128.288C211.08 112.578 208.38 96.1382 198.11 84.0182C176.64 58.6982 138.42 59.7682 108.73 59.2482C71.2 58.5982 9.53003 57.7982 -28 57.1282L-27.97 66.2382Z" fill="#848E84"/>
<path d="M-27.97 37.7782L-27.97 47.9482C7.03 46.6482 66.15 44.7482 101.24 46.9482C120.55 48.1482 139.92 49.8382 159.05 52.9482C175.32 55.5682 191.5 60.2982 203.52 72.5682C225.73 95.2482 228.19 132.168 208.47 157.468C198.33 170.468 183.56 178.008 168.18 182.138C151.054 186.544 133.333 188.178 115.69 186.978C93.83 185.668 72.17 183.808 50.25 183.568C32.25 183.368 -9.94001 183.458 -27.97 183.678L-27.97 195.328C9.72999 194.718 71.56 194.008 109.25 193.258C127.8 192.888 146.58 194.618 164.95 191.518C181.78 188.678 197.95 182.028 210.23 169.398C233.36 145.568 237.71 107.238 220.02 78.7982C211.195 64.5771 197.794 53.7821 182.02 48.1882C163.69 41.6682 143.17 40.5582 124.02 39.3082C101.02 37.8082 77.94 37.7482 54.94 37.8882C35.31 37.9582 -8.4 37.6982 -27.97 37.7782Z" fill="#848E84"/>
<path d="M-27.97 31.0882C6.31 29.4082 64.75 28.6582 99.03 29.3182C119.29 29.7182 139.77 29.7382 159.93 32.0982C178.59 34.3282 192.89 43.3282 208.56 54.3282C223.37 64.7282 235.23 81.0582 238.11 99.6382C241.11 118.768 240.37 134.638 232.37 151.818C228.26 160.658 223.21 169.448 216.7 176.638C210 184.038 201.29 188.428 192.63 192.868C182.79 197.918 173.53 200.788 162.53 201.378C151.53 201.968 140.8 202.188 129.92 202.498C105.92 203.188 81.92 204.048 57.92 203.928C45.92 203.878 33.92 203.928 21.99 203.448C15.99 203.198 9.99003 202.858 4.07003 202.128C1.43001 201.808 -25.33 201.348 -27.93 200.868L-27.93 211.438C-20.93 211.638 10.17 211.608 17.13 211.988C28.82 212.618 40.52 213.268 52.23 213.258C75.13 213.258 98.03 212.518 120.92 211.918C132.69 211.618 144.47 211.048 156.24 211.018C167.24 211.018 177.59 210.078 187.84 205.768C197.1 201.868 206.84 197.178 214.95 191.148C223.06 185.118 229.2 177.058 234.45 168.368C244.92 151.038 246.9 134.848 246.18 114.258C245.52 95.4582 240.01 75.2582 228.33 60.6582C201.9 27.5382 160.87 21.6582 122.75 20.4382C80.54 19.0582 14.24 18.3682 -27.93 20.0682L-27.97 31.0882Z" fill="#848E84"/>
<path d="M24.64 1.32819C15.14 1.59819 -18.48 1.68818 -27.97 1.94818L-27.97 13.1482C-8.70996 11.6182 34.64 9.7682 53.98 9.1482C77.8574 8.42455 101.756 8.9419 125.58 10.6982C147.7 12.3082 170.43 14.4882 191.63 21.5882C210.13 27.7782 223.2 37.6982 234.9 53.8582C257.75 85.4082 263.72 139.408 241.06 173.698C217.01 210.088 178.3 216.188 139.06 219.748C112.48 222.168 85.8133 223.355 59.06 223.308C38.06 223.258 -7.01997 222.088 -27.94 220.768L-27.94 232.678C-8.66999 234.168 34.91 234.548 54.17 234.588C79.5567 234.648 104.92 233.648 130.26 231.588C172.36 228.118 212.75 222.768 241.77 187.358C269.49 153.528 269.41 101.718 251.04 64.1382C242.17 45.9982 232.14 31.0682 214.93 20.8882C195.62 9.46819 173.33 5.78819 151.54 3.25819C123.41 -0.0118148 95.31 -0.221815 67.05 0.118183C52.88 0.328183 38.77 0.948189 24.64 1.32819Z" fill="#848E84"/>
<path d="M28.32 112.178C17.63 112.318 -17.27 111.828 -27.97 112.248L-27.97 122.648C-17.29 121.348 17.51 119.968 28.32 119.698C41.14 119.378 53.93 119.388 66.76 119.768C92.66 120.538 118.82 118.638 144.59 122.148C151.64 123.148 153.02 112.848 145.85 112.428C119.85 110.898 93.61 110.848 67.56 111.598C54.48 111.978 41.41 112.008 28.32 112.178Z" fill="#848E84"/>
</g>
</svg>
