<svg width="360" height="422" viewBox="0 0 360 422" fill="none" xmlns="http://www.w3.org/2000/svg">
<path d="M357.234 154.811L356.418 155.577C356.207 155.408 355.938 155.329 355.668 155.356C355.399 155.384 355.152 155.516 354.979 155.724C353.534 157.359 352.051 158.954 350.569 160.549L349.002 161.454C343.4 163.384 337.73 165.102 331.963 166.435C324.243 168.331 316.542 169.77 308.692 171.145C293.3 173.814 277.668 175.861 262.341 179.239C248.091 182.274 234.24 186.946 221.064 193.16C208.563 199.182 196.797 206.619 185.997 215.325C175.162 224.07 165.39 234.055 156.883 245.073C155.85 246.421 154.855 247.789 153.821 249.175C153.742 249.282 153.686 249.405 153.658 249.535C153.629 249.665 153.628 249.8 153.655 249.93C145.885 256.478 138.497 263.462 131.403 270.707C118.734 283.66 106.811 297.447 95.4282 311.563C97.0539 309.014 98.5611 306.409 99.9498 303.748C101.207 302.072 102.226 300.229 102.976 298.272C108.208 289.478 113.664 280.827 119.377 272.396C129.637 257.43 141.015 243.259 153.413 230.007C165.688 216.903 178.75 204.577 191.684 192.131C204.618 179.685 217.403 167.137 229.163 153.572C263.105 114.54 285.732 66.9909 294.604 16.0533C294.746 16.0532 294.884 16.0049 294.996 15.9162C295.107 15.8275 295.185 15.7037 295.217 15.565C296.409 10.9819 297.111 6.26301 297.963 1.60788C298.115 0.737109 296.819 0.242047 296.425 0.968776C296.316 0.820927 296.171 0.70406 296.003 0.629807C295.835 0.555552 295.651 0.526507 295.469 0.545593C295.286 0.56468 295.112 0.631233 294.963 0.738583C294.815 0.845934 294.697 0.990329 294.622 1.1574C282.154 33.632 259.573 60.6696 236.897 86.3869C214.22 112.104 190.61 137.781 174.539 168.382C165.487 185.083 159.763 203.379 157.684 222.258C145.462 234.817 134.146 248.227 123.822 262.385C117.872 270.557 112.251 279.048 106.879 287.551C107.096 286.95 107.276 286.328 107.476 285.669C116.393 271.839 124.398 257.444 131.443 242.575C135.202 234.385 138.346 225.928 140.849 217.272C143.378 207.978 145.069 198.476 145.903 188.881C146.869 178.967 147.32 169.03 148.343 159.118C149.214 149.85 150.891 140.675 153.354 131.697C158.159 114.74 165.646 98.8719 172.308 82.6817C177.895 69.9204 182.129 56.6092 184.938 42.9661L185.073 42.4951C185.084 42.4579 185.085 42.4188 185.078 42.3809C186.833 38.1875 187.748 33.6914 187.773 29.1464C188.017 28.3559 188.242 27.5836 188.429 26.7907C188.443 26.6884 188.431 26.5843 188.394 26.488C188.357 26.3917 188.296 26.3063 188.217 26.24C188.138 26.1736 188.043 26.1284 187.942 26.1086C187.84 26.0889 187.735 26.0951 187.637 26.1268L187.563 25.189C187.528 24.9529 187.411 24.7365 187.233 24.5769C187.056 24.4173 186.828 24.3243 186.589 24.3139C186.351 24.3036 186.116 24.3764 185.925 24.52C185.734 24.6636 185.599 24.869 185.543 25.1011C185.432 25.4587 185.301 25.8345 185.189 26.2111C184.988 26.2385 184.802 26.3366 184.666 26.4879C184.53 26.6392 184.452 26.8338 184.447 27.0371C184.422 27.6083 184.396 28.1984 184.371 28.7886C183.277 31.9836 182.032 35.1529 180.698 38.1658C179.805 40.2442 178.819 42.2994 177.72 44.2926C176.621 46.2857 175.236 48.2854 174.077 50.3332C174.027 50.4224 173.998 50.5225 173.993 50.6251C173.989 50.7278 174.009 50.83 174.052 50.9233C173.666 51.4406 173.281 51.958 172.878 52.4554C166.464 60.3498 159.432 67.7231 151.85 74.5059C144.158 81.4576 136.319 88.2885 129.229 95.8768C122.277 103.197 116.407 111.471 111.797 120.449C102.708 138.46 99.0375 158.747 98.1674 178.756C97.1905 201.221 99.8248 223.633 101.794 245.977C102.817 257.581 103.666 269.234 103.732 280.891C103.789 284.148 103.59 287.404 103.136 290.63C100.726 294.531 98.4655 298.508 96.3543 302.562C98.3833 293.645 98.9569 284.46 98.0527 275.36C96.7334 263.26 93.7742 251.396 89.2562 240.092C84.7977 228.453 79.4103 217.099 73.8813 205.929C71.0493 200.211 68.145 194.547 65.1683 188.937C62.2919 183.509 59.2407 178.151 56.4422 172.688C53.638 167.484 51.4119 161.989 49.8034 156.301C48.6529 151.915 48.0411 147.404 47.9815 142.87C48.1786 140.971 48.4205 138.922 48.7362 136.933C48.8936 135.948 49.0899 134.946 49.2854 133.962C49.4867 133.284 49.6873 132.625 49.8687 131.966C49.897 131.892 49.9049 131.812 49.8915 131.734C49.8781 131.657 49.8438 131.584 49.7925 131.524C49.6806 131.023 48.8105 130.833 48.6108 131.472C48.4112 132.112 48.3233 132.375 48.1883 132.846L47.9919 132.971C47.7011 133.951 47.4857 134.952 47.2703 135.954C45.474 141.254 43.8285 146.6 42.2958 151.988C40.296 158.849 38.7173 165.825 37.5685 172.878C35.3046 185.845 35.7933 199.142 39.0027 211.909C42.4636 224.533 49.925 235.177 57.9814 245.312C66.0378 255.447 74.5499 265.64 80.7684 277.203C86.9869 288.765 91.1438 302.068 89.613 315.315C89.5907 315.829 89.5692 316.324 89.4515 316.834C89.3339 317.344 88.7978 318.255 88.4796 318.985L87.9684 320.203C87.511 321.06 87.0354 321.898 86.5781 322.756L86.4364 322.94L86.4256 323.188C84.0145 327.699 81.6796 332.213 79.3621 336.766C76.6817 340.912 74.3584 345.278 72.417 349.816C71.9273 350.977 71.4741 352.178 71.0217 353.36L68.9329 357.485C57.0803 381.956 45.9544 406.84 35.8055 432.092L35.5793 432.463C36.5423 419.905 36.0664 407.277 34.1608 394.826C34.4508 392.111 34.8749 389.383 35.2784 386.692C35.7448 383.431 36.3056 380.194 36.9037 376.978C37.1017 375.937 37.2989 374.916 37.516 373.876C37.7761 373.163 38.0753 372.432 38.3735 371.72L38.6246 371.216C39.3164 369.796 39.9718 368.337 40.5891 366.876C40.9089 366.108 41.2486 365.322 41.5502 364.534C41.7999 363.98 41.9853 363.399 42.1029 362.803C42.8668 361.043 43.6116 359.283 44.3383 357.502C49.2626 345.582 52.4764 333.027 53.8843 320.209C55.3049 307.396 54.962 294.45 52.8652 281.73C51.8279 275.357 50.3207 269.07 48.3559 262.918C46.368 256.827 44.0197 250.859 41.3234 245.045C37.4392 236.446 33.1433 227.657 31.0257 218.39C30.9619 216.785 30.8781 215.198 30.8134 213.612C30.684 210.441 30.5364 207.249 30.4078 204.058C30.3899 203.913 30.3332 203.775 30.2438 203.659C30.1544 203.543 30.0355 203.452 29.8995 203.398C29.7635 203.343 29.6152 203.326 29.4703 203.348C29.3254 203.37 29.189 203.431 29.0754 203.523C28.9561 203.493 28.8321 203.487 28.7106 203.506C28.5891 203.525 28.4727 203.569 28.3683 203.634C28.2639 203.698 28.1737 203.784 28.103 203.884C28.0323 203.985 27.9825 204.098 27.9568 204.218C27.9443 204.504 27.9327 204.77 27.9203 205.056C27.9079 205.342 27.5848 206.186 27.4075 206.75C27.0529 207.879 26.7173 209.009 26.4191 210.16C26.1208 211.31 25.8043 212.441 25.506 213.591C25.2078 214.742 25.0205 215.974 24.7016 217.161C24.487 217.705 24.2906 218.269 24.0752 218.832C23.8465 218.822 23.7744 219.162 24.0586 219.213C21.6743 226.226 20.4578 233.583 20.4575 240.991C20.3063 253.249 22.9526 265.285 26.0679 277.075C29.3423 289.596 33.1189 301.986 35.1769 314.817C37.182 327.46 37.9043 340.272 37.3329 353.059C36.9985 360.054 36.2938 367.027 35.2215 373.948C34.9729 374.395 34.7434 374.843 34.4957 375.271C34.3443 373.964 34.0679 372.674 33.6702 371.42C32.7373 368.957 31.5608 366.593 30.1582 364.363C29.8035 363.737 29.4297 363.11 29.0593 362.408C28.6889 361.705 28.7568 361.46 28.5861 360.995C28.5519 360.88 28.4743 360.784 28.3697 360.726C28.2652 360.668 28.1421 360.653 28.0268 360.684C27.396 359.612 26.8509 358.491 26.3967 357.333C25.5037 341.164 23.1796 325.106 19.4517 309.346C15.657 293.281 10.4483 277.583 3.88649 262.434C-2.64812 247.635 -10.3271 233.367 -19.0807 219.759C-27.5159 206.479 -36.4607 193.501 -44.6398 180.042C-50.3375 170.778 -55.4235 161.153 -59.8654 151.227C-59.8288 151.097 -59.8229 150.96 -59.848 150.827C-59.953 150.051 -60.2198 149.305 -60.6312 148.638C-61 147.897 -61.3306 147.158 -61.6414 146.4C-62.2993 144.903 -62.8702 143.369 -63.351 141.806C-63.9776 139.709 -64.4589 137.573 -64.7914 135.41C-64.7815 135.182 -64.7724 134.972 -64.7625 134.744C-64.7427 134.637 -64.7551 134.526 -64.7984 134.425C-64.8416 134.325 -64.9136 134.24 -65.0053 134.18C-65.0907 133.509 -65.1752 132.819 -65.2407 132.129C-65.2554 131.982 -65.3106 131.842 -65.4003 131.724C-65.49 131.606 -65.6106 131.515 -65.7487 131.462C-65.8869 131.409 -66.0371 131.394 -66.1828 131.421C-66.3285 131.448 -66.4639 131.514 -66.574 131.613L-66.8408 131.602C-66.9723 131.578 -67.1078 131.589 -67.2337 131.633C-67.3597 131.678 -67.4716 131.755 -67.5584 131.857L-67.6827 132.08C-67.7646 132.094 -67.8426 132.125 -67.9118 132.171C-67.981 132.216 -68.0398 132.276 -68.0842 132.346C-68.1287 132.416 -68.1579 132.495 -68.17 132.577C-68.182 132.659 -68.1766 132.743 -68.1542 132.823C-68.024 133.343 -67.855 133.847 -67.724 134.348C-67.67 137.498 -67.4636 140.654 -67.1469 143.91C-68.5865 158.339 -68.3412 172.886 -66.416 187.259C-64.1854 204.646 -59.6537 221.66 -52.9396 237.856C-45.7282 254.443 -36.7117 270.186 -26.0527 284.803C-15.4962 299.796 -4.21051 314.268 5.57875 329.781C14.9387 344.627 23.0285 360.581 27.1524 377.717C27.5892 379.529 27.987 381.358 28.3666 383.168C28.0807 383.155 27.6739 383.29 27.7534 383.656C28.1471 385.581 28.356 387.364 28.753 389.212C29.15 391.06 29.4939 392.811 29.8163 394.618C30.4843 398.284 31.0433 401.97 31.4931 405.677C32.3963 413.088 32.8309 420.547 32.7941 428.012C32.7653 432.188 32.4307 436.37 32.2485 440.558C32.2256 440.645 32.2217 440.736 32.237 440.825C29.2948 448.326 26.4098 455.83 23.6126 463.51C21.9448 468.053 20.3523 472.619 18.7789 477.186C18.5585 477.863 19.5305 478.344 19.7899 477.649C24.4513 465.301 29.2439 453.01 34.1677 440.775C34.3084 440.715 34.4301 440.618 34.5196 440.495C34.6091 440.371 34.663 440.225 34.6756 440.072L34.7103 439.273C35.8231 436.517 36.8596 433.759 38.0668 431.026L38.2682 430.787C38.3475 430.846 38.4424 430.879 38.5409 430.883C38.6393 430.888 38.7368 430.862 38.8209 430.811C51.3222 423.477 64.9239 418.499 78.6931 414.063C92.4623 409.626 106.387 405.558 119.43 399.392C125.824 396.396 131.935 392.832 137.689 388.742C143.42 384.561 148.873 380.013 154.015 375.128C164.425 365.395 173.882 354.724 184.146 344.832C188.134 340.943 192.367 337.141 196.74 333.612C196.832 333.64 196.93 333.645 197.024 333.626C197.118 333.606 197.206 333.564 197.28 333.501C199.109 331.786 201.094 330.244 203.208 328.896C203.289 328.974 203.396 329.02 203.508 329.025C203.621 329.03 203.731 328.993 203.818 328.922C205.965 327.498 208.264 326.319 210.673 325.405L211.981 325.195L211.986 325.081L212.529 324.895L212.857 324.814L214.339 324.535C214.584 324.483 214.801 324.343 214.948 324.142L215.509 323.975C216.223 323.796 216.956 323.638 217.688 323.498C218.419 323.358 219.124 323.389 219.627 322.8C219.693 322.697 219.736 322.582 219.757 322.462C219.963 322.338 220.121 322.147 220.203 321.92C220.284 321.693 220.286 321.445 220.206 321.218C220.126 320.99 219.97 320.797 219.765 320.671C219.559 320.545 219.316 320.494 219.077 320.525C216.261 320.746 213.476 321.102 210.687 321.572C210.443 321.573 210.199 321.594 209.959 321.636C209.87 321.658 209.785 321.693 209.706 321.739L208.763 321.908C207.839 322.078 206.933 322.286 206.007 322.494C196.918 323.56 188.03 325.93 179.618 329.529C166.609 334.933 154.726 342.542 143.171 350.508C131.356 358.731 119.642 367.281 107.269 374.754C94.8949 382.227 81.8186 389.174 69.754 397.442C58.8354 404.573 49.1611 413.443 41.1159 423.701C48.5778 405.791 56.411 388.126 64.7952 370.523C66.8899 366.265 68.9837 362.027 70.9639 357.764C71.069 357.818 71.1903 357.831 71.3046 357.801C71.4188 357.77 71.5176 357.699 71.582 357.6L72.0303 356.952C81.8649 356.862 91.6807 356.078 101.404 354.605C111.33 353.303 121.024 350.617 130.202 346.626C138.913 342.543 146.854 336.99 153.677 330.213C160.593 323.533 166.775 316.172 173.454 309.252C180.085 302.044 187.828 295.941 196.39 291.176C205.276 286.671 214.792 283.528 224.616 281.856C244.059 278.238 263.922 278.568 283.504 276.138C301.666 273.876 320.481 269.316 335.132 257.784C336.896 256.397 338.519 254.838 339.974 253.13C340.098 252.965 340.162 252.764 340.157 252.558C340.151 252.352 340.076 252.154 339.944 251.996C339.811 251.837 339.629 251.729 339.427 251.687C339.225 251.645 339.015 251.672 338.831 251.765C338.752 251.687 338.658 251.628 338.554 251.59C338.45 251.553 338.339 251.538 338.229 251.548C337.503 251.72 336.831 252.071 336.275 252.569C335.647 252.977 334.994 253.343 334.318 253.667C333.213 254.172 332.065 254.576 330.886 254.872C320.177 253.033 309.425 251.325 298.652 249.655C287.272 247.882 275.729 245.912 264.22 244.496C243.727 241.964 221.541 241.915 203.286 252.89C195.208 257.745 188.521 264.417 181.785 270.914C175.048 277.411 167.559 284.105 158.704 288.374C149.85 292.643 139.943 295.187 130.47 298.323C121.668 301.05 113.281 304.965 105.542 309.961C99.6629 313.892 94.26 318.489 89.441 323.662L90.4668 321.151C90.6 321.054 90.6995 320.919 90.751 320.763C90.9581 320.19 91.1302 319.605 91.2663 319.011C91.2771 318.764 91.4594 318.524 91.5455 318.299C103.186 304.404 114.828 290.49 127.333 277.358C135.691 268.517 144.534 260.146 153.82 252.283C160.539 249.696 167.276 247.146 174.078 244.848C181.267 242.433 188.523 240.231 195.812 238.164C210.487 233.976 225.275 230.251 239.932 226.044C254.529 222.023 268.838 217.025 282.762 211.083C306.997 200.457 329.025 185.39 347.706 166.662C348.222 166.226 348.755 165.811 349.271 165.356C350.838 164.013 352.297 162.532 353.755 161.05L354.461 160.623L354.651 160.631C354.769 160.579 354.862 160.484 354.913 160.366C354.964 160.249 354.969 160.116 354.927 159.995L355.206 159.74C356.459 158.593 357.675 157.406 358.854 156.198C360.033 154.99 358.21 153.881 357.234 154.811ZM263.244 100.503C254.978 115.96 245.269 130.603 234.247 144.237C222.79 158.023 210.539 171.132 197.559 183.498C191.118 189.779 184.603 196.019 178.126 202.261C183.885 195.39 189.566 188.44 195.167 181.41C205.454 168.493 215.465 155.361 225.198 142.012C234.459 129.273 243.498 116.372 252.094 103.127C260.571 90.1681 268.374 76.7815 275.472 63.0204C280.611 52.9723 285.166 42.6369 289.115 32.0655C283.484 55.8977 274.788 78.9012 263.244 100.503ZM290.227 22.2909L289.788 24.4844C285.922 35.7903 281.379 46.8538 276.184 57.6153C269.442 71.4707 261.914 84.9307 253.637 97.9297C245.249 111.222 236.286 124.146 227.122 136.832C217.635 150.102 207.862 163.174 197.806 176.051C189.311 186.973 180.576 197.732 171.73 208.391C168.963 211.119 166.209 213.848 163.468 216.577C163.659 216.147 163.831 215.716 164.02 215.304C172.94 202.506 181.854 189.713 190.76 176.927C200.499 162.867 210.244 148.814 219.994 134.767C229.184 121.472 238.449 108.218 247.396 94.7782C256.16 81.6359 264.662 68.3488 272.569 54.6924C278.41 44.6275 283.914 34.4144 288.99 23.9537L290.227 22.2909ZM283.703 28.7402L283.336 29.2774C283.477 29.1119 283.599 28.9265 283.703 28.7402ZM282.385 30.9527C282.379 31.0705 282.415 31.1865 282.485 31.2813C282.019 31.8905 281.534 32.5179 281.087 33.1279L282.385 30.9527ZM283.323 31.7565C280.419 37.524 277.382 43.2476 274.216 48.8702C266.396 62.7211 257.924 76.2003 249.173 89.4957C240.422 102.791 231.416 115.827 222.406 128.921C212.73 143.022 203.052 157.135 193.374 171.261C184.051 184.843 174.76 198.427 165.5 212.012C170.495 200.784 175.952 189.743 181.872 178.886C189.156 165.527 197.092 152.521 205.395 139.854C213.698 127.188 222.435 114.655 231.241 102.277C240.047 89.9 249.152 77.6881 258.236 65.4944L283.323 31.7565ZM202.674 129.97C217.962 110.379 235.128 92.3754 251.189 73.4278C245.288 81.3539 239.386 89.299 233.578 97.2863C224.622 109.581 215.815 121.977 207.398 134.639C198.98 147.3 191.014 160.115 183.491 173.273C175.933 186.465 169.077 200.046 162.952 213.961C162.21 215.664 161.466 217.387 160.819 219.113C160.776 219.242 160.77 219.381 160.801 219.513L160.421 219.916C164.254 186.208 182.034 156.291 202.599 129.948L202.674 129.97ZM172.657 76.8603C166.225 93.0223 158.723 108.794 153.362 125.365C150.578 133.862 148.556 142.589 147.321 151.444C145.998 161.228 145.493 171.086 144.778 180.936C144.229 190.664 142.953 200.338 140.961 209.876C138.914 218.804 136.1 227.54 132.55 235.985C125.816 251.545 117.976 266.605 109.09 281.047L109.747 278.673C116.564 264.799 121.743 250.18 125.18 235.111C129.161 217.336 129.834 199.226 131.193 181.127C131.777 171.937 132.895 162.789 134.543 153.73C136.162 145.399 138.589 137.245 141.788 129.382C147.839 114.501 156.151 100.748 164.144 86.8663C169.41 77.7491 174.585 68.5135 178.937 58.8988C177.09 64.9221 174.92 70.9123 172.581 76.8379L172.657 76.8603ZM182.432 45.7182L182.15 46.9266C181.887 47.6972 181.606 48.448 181.325 49.1987C179.893 52.8749 178.354 56.4956 176.71 60.0608C173.34 67.2959 169.559 74.3223 165.648 81.2668C157.823 95.2319 149.471 109.021 142.971 123.693C139.706 130.969 137.071 138.512 135.097 146.239C132.978 155.114 131.545 164.138 130.811 173.233C129.125 191.375 128.808 209.634 125.582 227.614C123.987 236.382 121.818 245.035 119.09 253.52C116.778 261.009 113.952 268.33 110.633 275.43C111.488 272.161 112.267 268.889 112.969 265.614C116.767 246.342 117.717 226.7 118.835 207.14C119.99 186.724 121.403 166.091 126.657 146.253C129.198 136.347 132.922 126.781 137.749 117.763C142.935 108.673 148.743 99.952 155.133 91.6625C165.626 77.3938 176.729 62.6938 182.356 45.6958L182.432 45.7182ZM174.733 53.6996C176.51 51.4753 178.182 49.1701 179.75 46.7841C174.521 60.7668 165.973 73.3462 157.065 85.4521C150.978 93.6944 144.894 101.861 139.494 110.571C134.188 119.214 129.939 128.462 126.839 138.117C120.612 157.492 118.563 177.812 117.339 198.072C116.143 217.666 115.631 237.328 112.781 256.774C111.745 263.78 110.321 270.722 108.516 277.57C110.938 262.849 111.805 247.914 111.103 233.011C110.568 214.582 108.886 196.16 109.311 177.619C109.665 160.259 111.788 142.612 118.261 126.357C121.346 118.65 125.444 111.388 130.447 104.761C135.259 98.5657 140.439 92.6636 145.957 87.0863C156.037 76.5953 166.948 66.2931 174.658 53.6772L174.733 53.6996ZM104.699 259.093C103.076 235.81 99.884 212.611 99.8309 189.243C99.7845 168.794 102.26 147.882 110.095 128.844C113.992 119.269 119.346 110.353 125.967 102.411C132.966 94.4153 140.521 86.9232 148.576 79.9903C155.631 73.6213 162.883 67.1273 169.384 59.9139C167.902 61.9285 166.384 63.9034 164.772 65.8361C159.719 71.8344 154.169 77.3915 148.752 82.9735C137.526 94.3492 126.554 106.022 119.674 120.658C112.373 136.191 109.485 153.403 108.592 170.435C107.65 188.591 109.058 206.696 109.738 224.884C110.464 244.18 110.507 263.828 105.962 282.723C105.945 283.123 105.756 283.515 105.662 283.912C105.766 281.532 105.717 279.146 105.668 276.759C105.371 270.853 105.054 264.964 104.642 259.072L104.699 259.093ZM37.0997 240.742C39.7482 246.579 42.473 252.42 44.6766 258.39C46.9024 264.501 48.6912 270.761 50.0294 277.125C52.6923 289.796 53.5675 302.777 52.6296 315.691C51.6877 328.669 48.888 341.445 44.3158 353.629C43.2792 356.388 42.1673 359.125 40.9402 361.875C40.4836 362.489 40.1371 363.177 39.9161 363.91C39.8076 364.21 39.6808 364.491 39.5532 364.79C40.0743 362.467 40.5764 360.143 41.0975 357.819C43.9227 345.105 46.7892 332.317 47.6993 319.291C48.1692 313.038 48.1038 306.756 47.5039 300.514C46.8653 294.505 45.8491 288.543 44.4612 282.662C41.8025 270.911 38.1553 259.499 35.1129 247.789C33.0622 240.033 31.5359 232.148 30.5445 224.187C32.3825 229.821 34.5525 235.342 37.0433 240.72L37.0997 240.742ZM28.5567 225.55C29.3088 231.435 30.4002 237.271 31.8255 243.03C34.6359 254.807 38.4489 266.359 41.338 278.082C44.5738 289.858 46.2032 302.016 46.1819 314.228C45.6279 326.482 43.9157 338.657 41.0682 350.589L41.0931 350.018C41.8327 345.076 42.3167 340.1 42.5434 335.108C42.9871 325.21 42.6073 315.292 41.4078 305.456C40.1597 295.6 38.3016 285.83 35.8441 276.203C33.4116 266.274 30.303 256.525 28.2559 246.518C27.0779 240.989 26.4973 235.349 26.5242 229.696C26.5855 225.808 27.0417 221.935 27.886 218.139C28.0452 220.626 28.2625 223.096 28.5567 225.55ZM37.576 320.682C35.7395 308.077 32.9882 295.622 29.3437 283.416C26.0486 271.371 22.7585 259.211 22.0246 246.667C21.2904 236.824 22.684 226.938 26.1111 217.681C26.3796 217.215 26.6298 216.73 26.8601 216.264C27.2379 215.479 27.5975 214.674 27.919 213.868L27.8619 215.182C26.6359 219.091 25.9393 223.147 25.7908 227.242C25.5713 232.189 25.8418 237.146 26.5985 242.04C28.4113 252 30.7749 261.851 33.6786 271.55C36.2135 281.256 38.1635 291.105 39.5184 301.044C40.9268 310.899 41.554 320.851 41.3939 330.805C41.2697 336.444 40.8401 342.074 40.1069 347.667C39.7383 350.436 39.2934 353.201 38.7541 355.943L38.7483 356.077C39.4656 344.262 39.0734 332.405 37.5768 320.663L37.576 320.682ZM-55.6615 178.38C-49.0526 193.259 -40.6671 207.242 -32.7125 221.474C-24.8632 235.709 -17.7367 250.33 -11.3602 265.281C-5.0148 280.072 0.709969 295.084 6.12237 310.254C7.05801 312.889 7.97459 315.523 8.89033 318.176C8.67984 317.747 8.4884 317.319 8.27708 316.909C-1.22065 297.327 -12.0085 278.433 -22.4061 259.345C-32.9363 240.645 -42.3368 221.332 -50.5571 201.51C-57.7579 183.926 -62.8054 165.537 -65.5898 146.744C-63.6617 157.667 -60.3242 168.295 -55.6607 178.361L-55.6615 178.38ZM-19.1682 291.149C-29.9825 276.373 -40.2672 261.277 -48.004 244.671C-58.5285 222.03 -64.6645 197.603 -66.0876 172.682C-64.9501 180.155 -63.3261 187.546 -61.226 194.809C-56.9521 209.52 -51.5905 223.894 -45.1853 237.812C-38.931 251.626 -31.9741 265.09 -24.5689 278.344C-19.2521 287.807 -13.6999 297.128 -8.06812 306.375C-11.7416 301.275 -15.474 296.211 -19.1674 291.13L-19.1682 291.149ZM15.9579 342.268C11.7473 335.466 7.49782 328.682 3.2682 321.879C-4.70789 309.02 -12.6434 296.105 -20.2077 282.997C-27.7719 269.889 -35.134 256.522 -41.6402 242.792C-48.2232 229.072 -53.8978 214.935 -58.6272 200.472C-62.5986 188.325 -65.21 175.776 -66.4136 163.054C-66.4444 159.372 -66.3808 155.712 -66.221 152.038C-65.6052 155.879 -64.8808 159.859 -64.0553 163.71C-61.8523 173.783 -59.0055 183.706 -55.5325 193.416C-48.1973 213.341 -39.4088 232.702 -29.2377 251.342C-19.0555 270.554 -8.2287 289.431 1.56319 308.835C7.47014 320.536 13.0042 332.469 17.8 344.694L18.1539 345.778L15.9579 342.268ZM14.7327 330.923C13.0454 325.814 11.2628 320.701 9.47856 315.626C4.18133 300.442 -1.38602 285.322 -7.65355 270.496C-13.7742 255.727 -20.6405 241.276 -28.2261 227.201C-36.0754 212.745 -44.9225 198.837 -52.1073 184.028C-58.6415 171.178 -63.0508 157.357 -65.164 143.1C-65.0281 143.487 -64.8732 143.876 -64.7381 144.282C-64.3778 145.366 -63.985 146.432 -63.5596 147.48C-63.5671 147.652 -63.403 147.831 -63.3334 147.986C-59.4727 157.535 -54.9231 166.791 -49.7204 175.682C-41.876 189.375 -33.0464 202.367 -24.5706 215.591C-15.725 229.053 -7.82517 243.112 -0.928066 257.666C5.97073 272.647 11.5305 288.207 15.6862 304.166C19.8627 320.221 22.5941 336.618 23.8477 353.159C23.8295 353.578 23.8113 353.997 23.9455 354.422C21.2364 346.465 18.1204 338.643 14.7318 330.942L14.7327 330.923ZM29.6116 372.541C29.7823 373.006 29.9348 373.451 30.0865 373.916C30.3293 374.918 30.5564 375.843 30.7569 376.939C30.3235 375.49 29.929 374.023 29.5346 372.556L29.6116 372.541ZM188.257 338.564C177.71 348.367 168.061 359.068 157.807 369.17C147.553 379.272 136.532 388.558 123.768 395.347C111.004 402.135 96.8937 406.519 83.0856 410.973C79.7811 412.024 76.4751 413.108 73.1678 414.223L75.1134 413.392C86.7779 408.616 98.4324 404.068 109.91 398.768C121.261 393.71 132.047 387.473 142.091 380.16C153.243 371.813 162.59 361.481 172.43 351.685C178.799 345.167 185.776 339.269 193.264 334.071C191.478 335.633 189.811 337.068 188.18 338.58L188.257 338.564ZM183.574 336.911C171.51 345.599 161.061 356.246 149.632 365.705C143.866 370.579 137.697 374.956 131.191 378.789C124.588 382.481 117.729 385.695 110.666 388.406C97.0631 393.842 82.839 398.202 69.6093 404.722C64.9755 406.986 60.4948 409.55 56.1957 412.398C65.3654 405.424 75.295 399.508 85.7954 394.763C97.145 389.325 108.648 384.313 119.421 377.648C130.857 370.649 141.525 362.453 152.369 354.571C162.816 346.633 173.986 339.692 185.732 333.839C188.149 332.704 190.62 331.648 193.106 330.688C189.831 332.607 186.656 334.691 183.592 336.931L183.574 336.911ZM67.3388 402.048C78.8746 393.642 91.4124 386.787 103.662 379.537C109.875 375.859 115.998 372.044 121.979 367.993C127.96 363.943 133.637 359.86 139.449 355.745C150.894 347.659 162.524 339.715 175.235 333.725C182.931 330.057 191.029 327.298 199.365 325.505C199.389 325.573 199.428 325.635 199.478 325.687C199.529 325.738 199.59 325.778 199.657 325.804C199.946 325.864 200.242 325.877 200.534 325.842C196.993 326.925 193.51 328.187 190.097 329.622C178.078 334.985 166.704 341.689 156.194 349.606C145.233 357.522 134.669 365.989 123.383 373.471C117.902 377.111 112.231 380.456 106.392 383.49C100.786 386.393 95.0551 389.082 89.3609 391.809C78.245 397.144 66.9311 402.641 57.2389 410.364C56.0316 411.341 54.8425 412.339 53.6709 413.375C53.6213 413.412 53.5806 413.46 53.5517 413.515C53.5228 413.57 53.5064 413.63 53.5037 413.692C53.501 413.754 53.5121 413.816 53.5361 413.873C53.5602 413.93 53.5966 413.981 53.6428 414.022C52.6774 414.705 51.6748 415.367 50.7841 416.091C55.8952 410.952 61.4333 406.254 67.3388 402.048ZM41.4036 427.624C48.6234 419.745 57.2054 413.231 66.7382 408.393C79.537 401.682 93.3079 397.207 106.782 392.09C113.816 389.508 120.697 386.528 127.391 383.163C133.998 379.756 140.281 375.759 146.165 371.219C158.014 362.198 168.388 351.529 180.091 342.367L181.848 341.032C179.784 342.837 177.794 344.69 175.878 346.59C165.734 356.354 156.448 367.051 145.537 375.999C135.698 383.887 124.966 390.597 113.563 395.99C102.227 401.544 90.5083 406.26 78.843 411.055C71.4161 414.108 63.9867 417.219 56.6973 420.621C52.0036 422.614 47.44 424.9 43.0335 427.466L42.5819 427.751L40.6239 428.868C40.7838 428.264 41.0846 427.934 41.3696 427.527L41.4036 427.624ZM332.523 256.755L332.189 256.969L332.097 256.87L332.523 256.755ZM45.4063 148.08C45.4179 147.813 45.5629 147.553 45.6317 147.289C45.1899 155.927 46.0033 164.585 48.0465 172.991C51.5888 186.826 56.743 200.2 63.4035 212.836C69.8333 225.685 76.8308 238.216 82.4213 251.487C87.706 263.382 91.0241 276.056 92.2462 289.012C91.2548 284.896 90.0352 280.838 88.5931 276.856C84.5545 266.086 79.6368 255.665 73.8895 245.699C68.1723 235.341 62.0061 225.212 56.719 214.625C51.3565 204.322 47.3838 193.354 44.9047 182.009C42.4762 170.809 42.6478 159.203 45.4063 148.08ZM64.1582 249.491C56.0148 239.6 47.54 229.427 42.8751 217.265C38.4612 204.822 37.0447 191.514 38.7404 178.423C38.8041 176.957 39.0767 175.519 39.2921 174.079C39.3195 176.803 39.5008 179.524 39.8351 182.228C41.359 193.161 44.5476 203.797 49.2903 213.767C54.0611 223.881 59.3693 233.732 65.1921 243.279C70.8851 252.873 76.5766 262.505 81.2936 272.59C81.9565 274.031 82.5996 275.489 83.2228 276.966C77.7942 267.217 71.407 258.032 64.1557 249.548L64.1582 249.491ZM315.483 266.142C306.766 269.475 297.696 271.801 288.449 273.073C269.225 276.052 249.552 275.73 230.274 278.649C220.594 279.971 211.115 282.48 202.051 286.12C193.17 289.914 185.026 295.242 177.995 301.859C164.066 314.814 153.076 331.293 136.398 341.154C118.974 351.478 98.1205 353.718 78.2955 355.145C76.6681 355.246 75.039 355.385 73.4091 355.543C73.5511 355.51 73.6765 355.428 73.7629 355.31C74.0057 354.997 74.2294 354.682 74.4548 354.33C92.1303 351.837 108.469 342.762 122.939 332.748C138.568 321.984 152.832 309.252 168.461 298.488C176.271 292.981 184.57 288.202 193.255 284.211C201.951 280.389 210.987 277.39 220.244 275.257C238.863 270.821 258.101 269.273 277.178 268.367C286.323 267.945 295.491 267.886 304.615 267.1C309.328 266.744 314.004 265.997 318.594 264.866L315.483 266.142ZM327.97 257.816C328.751 257.85 329.51 257.978 330.288 258.088C316.304 266.578 298.561 266.245 282.701 266.948C263.76 267.803 244.772 268.865 226.143 272.652C217.029 274.436 208.087 277.009 199.419 280.34C190.722 283.751 182.387 288.021 174.539 293.087C158.493 303.338 144.305 316.072 129.017 327.348C114.302 338.152 98.2926 348.004 80.362 352.412C78.433 352.862 76.6398 353.261 74.7721 353.619L74.7779 353.485C84.6961 340.565 98.2265 331.082 112.646 323.546C130.407 314.266 149.378 307.443 166.485 296.952C182.415 287.173 196.875 274.755 214.208 267.403C231.91 259.895 251.281 259.249 270.244 259.635C289.208 260.021 308.824 261.637 327.606 257.838L327.97 257.816ZM305.454 257.905C295.702 258.205 285.962 257.82 276.215 257.568C257.144 257.044 237.575 256.956 219.332 263.277C201.439 269.461 186.594 281.518 170.971 291.692C162.546 297.161 153.746 302.03 144.636 306.264C135.435 310.613 126.095 314.613 116.982 319.119C103.323 325.849 89.5036 334.079 79.2108 345.515C87.6425 334.723 99.0417 326.388 110.89 319.578C127.302 310.126 145.057 303.173 161.189 293.155C169.313 288.11 176.771 282.14 184.464 276.486C191.931 270.772 200.014 265.909 208.562 261.988C225.44 254.559 243.977 251.569 262.321 251.28C281.888 250.948 301.305 253.623 320.574 256.636C315.542 257.313 310.521 257.744 305.416 257.884L305.454 257.905ZM102.19 315.023C109.328 309.631 117.239 305.346 125.656 302.31C134.913 298.898 144.542 296.57 153.732 292.945C158.239 291.211 162.567 289.042 166.654 286.469C170.498 283.939 174.122 281.092 177.488 277.956C184.407 271.657 190.726 264.665 198.099 258.882C214.824 245.762 236.374 243.742 256.877 245.607C268.175 246.632 279.36 248.492 290.547 250.294C300.467 251.832 310.387 253.351 320.311 254.793C320.21 254.88 320.132 254.991 320.083 255.115C320.034 255.239 320.017 255.373 320.032 255.506L316.449 254.911C311.241 254.062 306.011 253.294 300.758 252.608C290.485 251.217 280.143 250.385 269.78 250.116C251.103 249.743 232.144 251.875 214.524 258.376C205.773 261.637 197.469 265.986 189.806 271.32C181.934 276.7 174.447 282.898 166.534 288.352C150.453 299.402 132.247 306.621 115.103 315.794C103.177 322.18 91.4665 329.777 82.2492 339.753C82.4596 339.304 82.6891 338.856 82.9186 338.409C84.2322 335.719 85.4957 333.008 86.7093 330.276C91.2274 324.58 96.4263 319.458 102.19 315.023ZM92.4025 300.349C90.8914 292.109 88.4144 284.076 85.0225 276.415C80.483 266.377 75.2932 256.645 69.4862 247.281C63.7542 237.705 57.9045 228.199 52.895 218.254C47.7012 208.41 43.9104 197.89 41.6327 186.998C40.3853 180.358 40.0378 173.581 40.5994 166.849C41.3367 163.067 42.2265 159.291 43.2116 155.519C42.9896 157.111 42.8239 158.725 42.7171 160.304C42.3448 165.929 42.5664 171.577 43.3782 177.156C45.1645 188.524 48.5401 199.586 53.4059 210.017C58.2489 220.718 63.9519 230.961 69.7296 241.245C75.6325 251.362 80.8532 261.861 85.3572 272.672C88.8751 281.338 91.2778 290.416 92.5077 299.686L92.4025 300.349ZM94.5784 299.929C94.6248 298.863 94.672 297.777 94.7183 296.711C94.7489 283.399 92.2856 270.198 87.4555 257.79C82.4318 244.22 75.6125 231.544 69.0475 218.727C62.4826 205.91 56.0801 192.872 51.9861 178.999C49.9331 172.161 48.5628 165.137 47.8951 158.03C47.7766 156.804 47.7144 155.6 47.6721 154.377C48.6957 159.072 50.212 163.645 52.1961 168.021C54.6516 173.469 57.5752 178.688 60.3828 183.941C63.4225 189.567 66.358 195.245 69.1894 200.976C74.7193 212.127 80.0901 223.423 84.8966 234.962C89.7163 246.167 93.1551 257.916 95.1374 269.95C96.7075 279.899 96.5183 290.045 94.5784 299.929ZM183.356 219.864C193.902 210.854 205.467 203.106 217.813 196.777C230.574 190.297 244.057 185.345 257.981 182.024C273.207 178.338 288.786 176.192 304.175 173.581C316.954 171.657 329.582 168.841 341.967 165.153C339.213 166.578 336.423 167.945 333.58 169.214C326.86 172.24 319.966 174.916 313.042 177.362C299.002 182.321 284.658 186.37 270.349 190.478C256.699 194.386 243.032 198.217 229.71 202.921C216.786 207.375 204.262 212.911 192.271 219.47C181.493 225.405 171.498 232.659 162.518 241.065C168.851 233.446 175.821 226.379 183.352 219.941L183.356 219.864ZM323.309 184.98C311.796 193.614 299.432 201.053 286.407 207.179C272.691 213.43 258.531 218.661 244.043 222.828C229.552 227.176 214.896 230.925 200.34 235.023C185.719 238.82 171.373 243.606 157.403 249.349L157.308 249.345L158.316 248.55C164.758 245.759 171.094 242.773 177.605 240.138C184.681 237.26 191.843 234.577 198.963 232.006C213.467 226.915 228.145 222.213 242.754 217.336C256.588 212.73 270.411 207.952 283.922 202.417C296.877 197.215 309.445 191.101 321.532 184.12C325.745 181.652 329.887 179.048 333.921 176.305C330.54 179.4 326.977 182.297 323.305 185.056L323.309 184.98ZM162.188 245.571C165.765 242.808 169.412 240.163 173.151 237.617C181.527 231.925 190.346 226.913 199.523 222.627C209.871 217.976 220.538 214.067 231.443 210.931C252.606 204.641 274.296 200.263 295.218 193.371C301.455 191.335 307.703 189.05 313.808 186.55C305.182 191.268 296.233 195.514 287.28 199.397C274.029 205.096 260.488 210 246.844 214.633C232.386 219.536 217.785 224.223 203.455 229.245C189.475 234.15 175.593 239.421 162.147 245.645L162.188 245.571ZM341.588 168.589L339.276 170.396C327.126 178.388 314.016 184.816 300.255 189.528C279.524 196.847 257.981 201.346 236.833 207.293C225.958 210.236 215.278 213.855 204.855 218.129C195.395 222.136 186.284 226.921 177.615 232.432C171.509 236.306 165.653 240.553 159.883 245.013C163.748 241.053 167.871 237.352 172.223 233.934C177.541 229.791 183.135 226.014 188.964 222.626C200.845 215.816 213.32 210.096 226.235 205.535C239.486 200.733 253.022 196.82 266.572 193.041C280.836 189.084 295.113 185.26 309.123 180.548C321.411 176.47 333.393 171.522 344.977 165.742C343.882 166.781 342.757 167.629 341.588 168.589Z" fill="#4F7C3D"/>
</svg>
