<svg width="196" height="294" viewBox="0 0 196 294" fill="none" xmlns="http://www.w3.org/2000/svg">
<path d="M82.7125 121.222C78.3742 104.864 85.3552 87.8536 82.5804 71.2686C79.1325 50.5697 64.3485 34.226 51.2648 18.8253C47.1387 13.9541 43.0035 9.06845 39.1915 3.95622C37.1205 1.2214 35.2231 -1.62413 33.4123 -4.52498C31.3483 -9.381 30.0285 -14.5215 29.4971 -19.7737C29.463 -20.1887 29.2968 -20.5816 29.0228 -20.8949C28.7487 -21.2081 28.3812 -21.4253 27.9742 -21.5146C27.5671 -21.6039 27.1417 -21.5606 26.7604 -21.3911C26.379 -21.2216 26.0617 -20.9348 25.8548 -20.5726C21.0228 -12.5598 19.5978 -3.19237 19.7588 6.01476C20.2116 15.9966 21.4419 25.9261 23.4384 35.7132C25.3733 46.648 27.697 57.6186 32.688 67.6373C35.2225 72.6994 38.4462 77.3855 42.2674 81.5628C46.2515 85.9567 50.5706 90.0151 54.6809 94.288C63.6589 103.39 71.9634 113.132 79.529 123.436C90.5533 142.493 103.377 160.45 117.824 177.064C132.889 194.485 149.103 210.87 164.174 228.268C179.05 245.425 192.959 263.808 202.556 284.517C203.765 287.113 204.988 289.699 206.158 292.36C207.327 295.021 211.185 293.512 210.101 291.08C200.987 270.428 187.262 252.11 173.047 234.714C158.51 217.036 142.777 200.385 127.699 183.134C112.24 165.858 98.399 147.202 86.3499 127.399C85.0858 125.387 83.8991 123.304 82.7125 121.222ZM48.2172 68.5772C39.2907 52.7746 32.3692 36.0981 29.7834 17.9929C28.7489 10.7631 28.2478 3.47684 27.8847 -3.81634C34.2546 16.4575 40.819 36.7493 48.3807 56.6277C53.4941 70.0569 59.1001 83.334 65.3211 96.2997C59.3553 87.2074 53.5577 78.0281 48.2172 68.5772ZM73.4245 103.196L73.5573 103.882C66.9736 90.7624 61.0102 77.3078 55.5447 63.6774C47.036 42.4428 39.0866 20.9796 31.6965 -0.712003C32.2393 0.138308 32.7097 1.03471 33.2524 1.88502C35.6797 8.87492 38.3619 15.7224 41.3266 22.4707C44.7038 30.1524 48.3163 37.7245 51.8565 45.3428C59.0554 59.9151 65.1524 75.0073 70.0968 90.4931C71.3707 94.6561 72.4769 98.8856 73.4153 103.182L73.4245 103.196ZM75.9076 99.0556C75.4134 97.0385 74.8811 95.0254 74.3054 93.04C72.0372 85.3222 69.2919 77.7534 66.0853 70.3771C59.5305 55.008 51.9245 40.1273 44.9308 25.0585C43.4669 21.9363 42.0463 18.7864 40.6402 15.6272C45.5404 23.6553 51.0764 31.2776 56.2866 39.0267C65.8174 53.2266 74.3564 68.9317 75.7608 86.2696C76.062 90.4382 75.8849 94.7498 75.8984 99.0412L75.9076 99.0556ZM66.2043 41.7226C72.1864 49.8186 76.4678 59.0415 78.7922 68.8388C79.9532 75.2772 80.1339 81.8563 79.3282 88.3535L79.2639 88.2527C78.7761 79.7758 76.6972 71.47 73.1354 63.7681C65.8092 47.3498 54.4901 33.2162 44.7529 18.215C43.2352 15.837 41.7175 13.459 40.3009 11.0165C41.9316 12.9978 43.5952 14.9988 45.2285 16.8568C52.3847 24.9459 59.9402 32.8004 66.1951 41.7082L66.2043 41.7226ZM61.0062 96.5182C57.1351 92.1739 53.1379 87.9506 49.1052 83.8311C45.0759 79.9137 41.5065 75.5506 38.4655 70.8258C32.9661 61.3914 29.1798 51.0573 27.2807 40.2991C26.1976 34.9055 25.4575 29.4755 24.77 24.0323C24.206 19.4838 23.709 14.9128 23.5116 10.3332C23.2679 5.74689 23.4722 1.14667 24.1216 -3.40231C24.5083 2.78055 25.0186 8.96569 25.8954 15.1197C27.1566 24.2021 29.3855 33.1215 32.5443 41.7263C38.9127 58.9385 48.3188 74.7595 58.2649 90.2155C61.0245 94.5392 63.8562 98.8167 66.6736 103.103C64.7367 100.77 62.8958 98.6184 60.997 96.5038L61.0062 96.5182Z" fill="#68B687"/>
<path d="M82.7125 121.222C78.3742 104.864 85.3552 87.8536 82.5804 71.2686C79.1325 50.5697 64.3485 34.226 51.2648 18.8253C47.1387 13.9541 43.0035 9.06845 39.1915 3.95622C37.1205 1.2214 35.2231 -1.62413 33.4123 -4.52498C31.3483 -9.381 30.0285 -14.5215 29.4971 -19.7737C29.463 -20.1887 29.2968 -20.5816 29.0228 -20.8949C28.7487 -21.2081 28.3812 -21.4253 27.9742 -21.5146C27.5671 -21.6039 27.1417 -21.5606 26.7604 -21.3911C26.379 -21.2216 26.0617 -20.9348 25.8548 -20.5726C21.0228 -12.5598 19.5978 -3.19237 19.7588 6.01476C20.2116 15.9966 21.4419 25.9261 23.4384 35.7132C25.3733 46.648 27.697 57.6186 32.688 67.6373C35.2225 72.6994 38.4462 77.3855 42.2674 81.5628C46.2515 85.9567 50.5706 90.0151 54.6809 94.288C63.6589 103.39 71.9634 113.132 79.529 123.436C90.5533 142.493 103.377 160.45 117.824 177.064C132.889 194.485 149.103 210.87 164.174 228.268C179.05 245.425 192.959 263.808 202.556 284.517C203.765 287.113 204.988 289.699 206.158 292.36C207.327 295.021 211.185 293.512 210.101 291.08C200.987 270.428 187.262 252.11 173.047 234.714C158.51 217.036 142.777 200.385 127.699 183.134C112.24 165.858 98.399 147.202 86.3499 127.399C85.0858 125.387 83.8991 123.304 82.7125 121.222ZM48.2172 68.5772C39.2907 52.7746 32.3692 36.0981 29.7834 17.9929C28.7489 10.7631 28.2478 3.47684 27.8847 -3.81634C34.2546 16.4575 40.819 36.7493 48.3807 56.6277C53.4941 70.0569 59.1001 83.334 65.3211 96.2997C59.3553 87.2074 53.5577 78.0281 48.2172 68.5772ZM73.4245 103.196L73.5573 103.882C66.9736 90.7624 61.0102 77.3078 55.5447 63.6774C47.036 42.4428 39.0866 20.9796 31.6965 -0.712003C32.2393 0.138308 32.7097 1.03471 33.2524 1.88502C35.6797 8.87492 38.3619 15.7224 41.3266 22.4707C44.7038 30.1524 48.3163 37.7245 51.8565 45.3428C59.0554 59.9151 65.1524 75.0073 70.0968 90.4931C71.3707 94.6561 72.4769 98.8856 73.4153 103.182L73.4245 103.196ZM75.9076 99.0556C75.4134 97.0385 74.8811 95.0254 74.3054 93.04C72.0372 85.3222 69.2919 77.7534 66.0853 70.3771C59.5305 55.008 51.9245 40.1273 44.9308 25.0585C43.4669 21.9363 42.0463 18.7864 40.6402 15.6272C45.5404 23.6553 51.0764 31.2776 56.2866 39.0267C65.8174 53.2266 74.3564 68.9317 75.7608 86.2696C76.062 90.4382 75.8849 94.7498 75.8984 99.0412L75.9076 99.0556ZM66.2043 41.7226C72.1864 49.8186 76.4678 59.0415 78.7922 68.8388C79.9532 75.2772 80.1339 81.8563 79.3282 88.3535L79.2639 88.2527C78.7761 79.7758 76.6972 71.47 73.1354 63.7681C65.8092 47.3498 54.4901 33.2162 44.7529 18.215C43.2352 15.837 41.7175 13.459 40.3009 11.0165C41.9316 12.9978 43.5952 14.9988 45.2285 16.8568C52.3847 24.9459 59.9402 32.8004 66.1951 41.7082L66.2043 41.7226ZM61.0062 96.5182C57.1351 92.1739 53.1379 87.9506 49.1052 83.8311C45.0759 79.9137 41.5065 75.5506 38.4655 70.8258C32.9661 61.3914 29.1798 51.0573 27.2807 40.2991C26.1976 34.9055 25.4575 29.4755 24.77 24.0323C24.206 19.4838 23.709 14.9128 23.5116 10.3332C23.2679 5.74689 23.4722 1.14667 24.1216 -3.40231C24.5083 2.78055 25.0186 8.96569 25.8954 15.1197C27.1566 24.2021 29.3855 33.1215 32.5443 41.7263C38.9127 58.9385 48.3188 74.7595 58.2649 90.2155C61.0245 94.5392 63.8562 98.8167 66.6736 103.103C64.7367 100.77 62.8958 98.6184 60.997 96.5038L61.0062 96.5182Z" fill="#638448"/>
<path d="M93.9198 62.7122C93.0867 61.6618 91.1001 62.3415 91.6494 63.7758C92.5585 65.9319 93.3478 68.1366 94.0136 70.3801C94.6116 72.6555 95.2569 74.9413 95.7117 77.2472C96.6396 81.888 97.2798 86.6515 97.7544 91.3787C98.2291 96.1059 98.8391 100.726 99.1284 105.45C99.4178 110.174 99.5772 114.758 100.135 119.391C102.288 136.8 107.748 153.63 116.223 168.978C118.105 172.415 120.139 175.761 122.325 179.017C122.574 179.63 122.793 180.26 123.056 180.863C123.094 181.023 123.185 181.165 123.314 181.267C123.745 183.136 124.363 184.957 125.156 186.703C125.314 187.139 125.632 187.499 126.045 187.709C126.459 187.92 126.938 187.965 127.385 187.836C127.712 187.707 127.994 187.484 128.197 187.197C129.855 189.221 131.549 191.142 133.404 193.061C134.422 194.115 135.811 192.498 134.922 191.423C132.215 188.202 129.576 184.896 127.058 181.493C126.97 181.164 126.915 180.855 126.827 180.525C126.913 180.286 126.944 180.03 126.919 179.777L126.012 170.803C126.136 167.929 126.45 165.067 126.949 162.233C128.395 153.887 130.627 145.688 130.182 137.088C129.554 128.896 127.471 120.885 124.032 113.429C120.424 105.206 116.33 97.2062 111.771 89.4707C106.443 80.1516 100.478 71.211 93.9198 62.7122ZM122.549 169.362C122.43 171.16 122.406 172.962 122.478 174.762L122.432 174.69C118.477 162.225 115.504 149.468 113.538 136.535C110.985 121.796 109.096 106.918 105.013 92.4254C104.173 89.4525 103.266 86.502 102.225 83.5965C106.595 92.215 110.423 101.098 113.688 110.193C116.235 117.132 118.025 124.327 119.026 131.654C120.002 139.143 120.511 146.729 121.236 154.238C121.594 159.323 122.076 164.35 122.549 169.362ZM108.878 146.507C106.175 138.252 104.37 129.728 103.492 121.082C102.56 111.941 102.755 102.75 101.465 93.6552C100.63 88.6538 99.4033 83.7266 97.7956 78.919C97.3199 77.3769 96.8967 75.8215 96.488 74.2569C97.1529 76.0636 97.7746 77.898 98.387 79.718C99.5724 83.2005 100.557 86.7506 101.489 90.3138C103.386 97.6214 104.94 105.027 106.408 112.426C109.298 127.153 111.377 142.073 115.059 156.638C115.983 160.348 117.05 164.028 118.213 167.667C114.427 160.932 111.301 153.846 108.878 146.507ZM126.221 135.438C126.882 142.338 125.684 149.066 124.42 155.816C123.621 148.361 122.756 140.908 121.824 133.457C120.918 126.156 119.261 118.968 116.881 112.009C114.357 104.748 111.448 97.6269 108.167 90.6757C107.864 90.2001 107.661 89.6599 107.406 89.133C111.673 96.5512 115.697 104.226 119.224 112.015C122.837 119.387 125.217 127.302 126.268 135.448L126.221 135.438Z" fill="#68B687"/>
<path d="M93.9198 62.7122C93.0867 61.6618 91.1001 62.3415 91.6494 63.7758C92.5585 65.9319 93.3478 68.1366 94.0136 70.3801C94.6116 72.6555 95.2569 74.9413 95.7117 77.2472C96.6396 81.888 97.2798 86.6515 97.7544 91.3787C98.2291 96.1059 98.8391 100.726 99.1284 105.45C99.4178 110.174 99.5772 114.758 100.135 119.391C102.288 136.8 107.748 153.63 116.223 168.978C118.105 172.415 120.139 175.761 122.325 179.017C122.574 179.63 122.793 180.26 123.056 180.863C123.094 181.023 123.185 181.165 123.314 181.267C123.745 183.136 124.363 184.957 125.156 186.703C125.314 187.139 125.632 187.499 126.045 187.709C126.459 187.92 126.938 187.965 127.385 187.836C127.712 187.707 127.994 187.484 128.197 187.197C129.855 189.221 131.549 191.142 133.404 193.061C134.422 194.115 135.811 192.498 134.922 191.423C132.215 188.202 129.576 184.896 127.058 181.493C126.97 181.164 126.915 180.855 126.827 180.525C126.913 180.286 126.944 180.03 126.919 179.777L126.012 170.803C126.136 167.929 126.45 165.067 126.949 162.233C128.395 153.887 130.627 145.688 130.182 137.088C129.554 128.896 127.471 120.885 124.032 113.429C120.424 105.206 116.33 97.2062 111.771 89.4707C106.443 80.1516 100.478 71.211 93.9198 62.7122ZM122.549 169.362C122.43 171.16 122.406 172.962 122.478 174.762L122.432 174.69C118.477 162.225 115.504 149.468 113.538 136.535C110.985 121.796 109.096 106.918 105.013 92.4254C104.173 89.4525 103.266 86.502 102.225 83.5965C106.595 92.215 110.423 101.098 113.688 110.193C116.235 117.132 118.025 124.327 119.026 131.654C120.002 139.143 120.511 146.729 121.236 154.238C121.594 159.323 122.076 164.35 122.549 169.362ZM108.878 146.507C106.175 138.252 104.37 129.728 103.492 121.082C102.56 111.941 102.755 102.75 101.465 93.6552C100.63 88.6538 99.4033 83.7266 97.7956 78.919C97.3199 77.3769 96.8967 75.8215 96.488 74.2569C97.1529 76.0636 97.7746 77.898 98.387 79.718C99.5724 83.2005 100.557 86.7506 101.489 90.3138C103.386 97.6214 104.94 105.027 106.408 112.426C109.298 127.153 111.377 142.073 115.059 156.638C115.983 160.348 117.05 164.028 118.213 167.667C114.427 160.932 111.301 153.846 108.878 146.507ZM126.221 135.438C126.882 142.338 125.684 149.066 124.42 155.816C123.621 148.361 122.756 140.908 121.824 133.457C120.918 126.156 119.261 118.968 116.881 112.009C114.357 104.748 111.448 97.6269 108.167 90.6757C107.864 90.2001 107.661 89.6599 107.406 89.133C111.673 96.5512 115.697 104.226 119.224 112.015C122.837 119.387 125.217 127.302 126.268 135.448L126.221 135.438Z" fill="#638448"/>
<path d="M128.738 187.662C128.851 187.29 128.841 186.892 128.71 186.526C128.58 186.161 128.335 185.847 128.011 185.631C119.772 180.254 111.85 174.407 104.285 168.119C96.7359 161.518 90.1592 153.891 83.1253 146.758C76.9508 140.178 70.0214 134.349 62.4798 129.389C58.7219 127.007 54.6892 125.086 50.4689 123.668C45.91 122.267 41.2405 121.251 36.5096 120.631C25.056 118.875 13.5762 117.236 2.08721 115.807C0.760145 115.64 -0.439331 117.298 0.774798 118.308C9.34991 125.37 16.0226 134.295 23.1091 142.753C29.6923 151.028 37.4591 158.29 46.1607 164.306C54.7004 169.992 64.2393 174.018 74.2794 176.175C84.7777 178.379 95.5361 179.078 106.011 181.277C116.486 183.475 127.6 187.537 135.002 196.138C135.582 196.823 136.825 195.807 136.207 195.126C134.085 192.296 131.571 189.783 128.738 187.662ZM31.7389 123.513C40.9325 124.947 50.2417 126.085 58.5644 130.488C75.5211 139.401 86.0875 156.084 99.7492 168.884C101.059 170.077 102.477 171.342 103.878 172.517C101.764 171.148 99.6979 169.728 97.6573 168.252C90.8207 163.245 84.3558 157.737 77.7924 152.393C71.3168 146.984 64.5413 141.943 57.4979 137.294C49.8888 132.485 41.7637 128.541 33.2737 125.536C29.6236 124.214 25.9222 123.068 22.1906 122.001C25.4294 122.551 28.5973 123.085 31.7389 123.513ZM93.2203 168.853C86.2708 165.804 79.4053 162.6 72.7186 159.039C65.6003 155.279 58.7265 151.077 52.1378 146.456C45.171 141.531 38.6103 136.064 31.6291 131.149C27.967 128.598 24.259 126.198 20.4379 123.972C32.1558 127.421 43.4409 132.187 54.0766 138.18C68.5473 146.671 80.2538 158.671 93.3004 168.883L93.2203 168.853ZM51.6134 164.213C42.4589 159.064 34.324 152.29 27.6068 144.223C21.7397 137.42 16.4007 130.139 10.3208 123.513C22.9546 131.676 32.3474 144.098 43.6491 153.902C54.182 162.691 66.3635 169.298 79.4862 173.339C69.776 171.832 60.3767 168.77 51.6502 164.271L51.6134 164.213ZM92.5177 173.966C84.3838 171.87 76.4112 169.198 68.6603 165.969C60.8756 162.709 53.5362 158.479 46.8156 153.382C40.2505 147.944 34.0109 142.127 28.1292 135.959C22.4905 130.126 16.1564 125.008 9.26813 120.716L12.1167 121.515C17.679 124.694 23.067 128.168 28.2576 131.922C35.0917 136.829 41.5053 142.289 48.2605 147.328C61.4142 156.79 75.5893 164.75 90.5217 171.062C94.7211 172.925 98.9599 174.723 103.2 176.458L103.643 176.642C99.9349 175.804 96.2085 174.937 92.5177 173.966Z" fill="#68B687"/>
<path d="M128.738 187.662C128.851 187.29 128.841 186.892 128.71 186.526C128.58 186.161 128.335 185.847 128.011 185.631C119.772 180.254 111.85 174.407 104.285 168.119C96.7359 161.518 90.1592 153.891 83.1253 146.758C76.9508 140.178 70.0214 134.349 62.4798 129.389C58.7219 127.007 54.6892 125.086 50.4689 123.668C45.91 122.267 41.2405 121.251 36.5096 120.631C25.056 118.875 13.5762 117.236 2.08721 115.807C0.760145 115.64 -0.439331 117.298 0.774798 118.308C9.34991 125.37 16.0226 134.295 23.1091 142.753C29.6923 151.028 37.4591 158.29 46.1607 164.306C54.7004 169.992 64.2393 174.018 74.2794 176.175C84.7777 178.379 95.5361 179.078 106.011 181.277C116.486 183.475 127.6 187.537 135.002 196.138C135.582 196.823 136.825 195.807 136.207 195.126C134.085 192.296 131.571 189.783 128.738 187.662ZM31.7389 123.513C40.9325 124.947 50.2417 126.085 58.5644 130.488C75.5211 139.401 86.0875 156.084 99.7492 168.884C101.059 170.077 102.477 171.342 103.878 172.517C101.764 171.148 99.6979 169.728 97.6573 168.252C90.8207 163.245 84.3558 157.737 77.7924 152.393C71.3168 146.984 64.5413 141.943 57.4979 137.294C49.8888 132.485 41.7637 128.541 33.2737 125.536C29.6236 124.214 25.9222 123.068 22.1906 122.001C25.4294 122.551 28.5973 123.085 31.7389 123.513ZM93.2203 168.853C86.2708 165.804 79.4053 162.6 72.7186 159.039C65.6003 155.279 58.7265 151.077 52.1378 146.456C45.171 141.531 38.6103 136.064 31.6291 131.149C27.967 128.598 24.259 126.198 20.4379 123.972C32.1558 127.421 43.4409 132.187 54.0766 138.18C68.5473 146.671 80.2538 158.671 93.3004 168.883L93.2203 168.853ZM51.6134 164.213C42.4589 159.064 34.324 152.29 27.6068 144.223C21.7397 137.42 16.4007 130.139 10.3208 123.513C22.9546 131.676 32.3474 144.098 43.6491 153.902C54.182 162.691 66.3635 169.298 79.4862 173.339C69.776 171.832 60.3767 168.77 51.6502 164.271L51.6134 164.213ZM92.5177 173.966C84.3838 171.87 76.4112 169.198 68.6603 165.969C60.8756 162.709 53.5362 158.479 46.8156 153.382C40.2505 147.944 34.0109 142.127 28.1292 135.959C22.4905 130.126 16.1564 125.008 9.26813 120.716L12.1167 121.515C17.679 124.694 23.067 128.168 28.2576 131.922C35.0917 136.829 41.5053 142.289 48.2605 147.328C61.4142 156.79 75.5893 164.75 90.5217 171.062C94.7211 172.925 98.9599 174.723 103.2 176.458L103.643 176.642C99.9349 175.804 96.2085 174.937 92.5177 173.966Z" fill="#638448"/>
<path d="M152.539 125.111C152.329 124.93 152.071 124.813 151.796 124.776C151.522 124.738 151.241 124.781 150.99 124.898C150.738 125.016 150.526 125.204 150.378 125.439C150.231 125.675 150.154 125.947 150.159 126.225C150.762 133.516 150.591 140.853 149.646 148.112C148.95 155.371 148.022 162.617 147.615 169.915C147.108 177.352 147.587 184.821 149.04 192.128C150.718 199.686 153.371 206.992 156.933 213.864C161.017 221.762 165.811 229.272 171.254 236.303C171.332 236.68 171.386 237.051 171.478 237.418C171.988 239.364 174.978 238.409 174.454 236.472C172.433 228.939 173.881 221.139 175.465 213.678C177.257 206.167 178.333 198.506 178.679 190.796C178.951 175.22 175.271 159.838 167.981 146.085C163.877 138.382 158.676 131.317 152.539 125.111ZM168.994 225.049C169.014 225.175 169.028 225.302 169.033 225.43C165.075 215.099 162.093 204.42 160.125 193.531C158.927 186.542 158.172 179.484 157.865 172.398C157.555 165.538 157.634 158.652 157.3 151.787C157.246 150.523 157.134 149.296 156.97 148.083C157.239 148.823 157.494 149.573 157.755 150.3C159.849 156.666 161.273 163.234 162.005 169.898C163.648 183.595 163.631 197.398 166.075 211.01C166.983 215.684 167.962 220.373 168.994 225.049ZM168.561 212.77C167.262 205.781 166.414 198.714 166.021 191.614C165.191 178.331 165.343 164.867 161.597 151.985C160.83 149.351 159.854 146.769 158.863 144.197C168.48 165.319 169.831 189.648 169.108 212.705L169.026 215.029C168.88 214.291 168.701 213.532 168.561 212.77ZM152.577 193.846C149.39 179.451 151.596 164.838 152.977 150.367C153.254 147.615 153.403 144.883 153.489 142.151C153.82 144.9 154.028 147.648 154.194 150.361C154.56 157.308 154.498 164.223 154.931 171.147C155.839 185.276 158.394 199.247 162.544 212.777C164.244 218.496 166.29 224.106 168.67 229.576C161.518 218.563 155.421 206.715 152.577 193.846ZM172.644 166.84C174.575 174.237 175.579 181.847 175.632 189.495C175.543 197.144 174.607 204.762 172.84 212.209C172.392 214.28 171.953 216.365 171.586 218.466C171.608 216.971 171.697 215.454 171.709 214.006C171.946 206.857 171.961 199.647 171.745 192.584C171.486 178.235 168.975 164.021 164.304 150.46C162.197 144.643 159.509 139.054 156.281 133.777C163.946 143.557 169.515 154.811 172.644 166.84Z" fill="#68B687"/>
<path d="M152.539 125.111C152.329 124.93 152.071 124.813 151.796 124.776C151.522 124.738 151.241 124.781 150.99 124.898C150.738 125.016 150.526 125.204 150.378 125.439C150.231 125.675 150.154 125.947 150.159 126.225C150.762 133.516 150.591 140.853 149.646 148.112C148.95 155.371 148.022 162.617 147.615 169.915C147.108 177.352 147.587 184.821 149.04 192.128C150.718 199.686 153.371 206.992 156.933 213.864C161.017 221.762 165.811 229.272 171.254 236.303C171.332 236.68 171.386 237.051 171.478 237.418C171.988 239.364 174.978 238.409 174.454 236.472C172.433 228.939 173.881 221.139 175.465 213.678C177.257 206.167 178.333 198.506 178.679 190.796C178.951 175.22 175.271 159.838 167.981 146.085C163.877 138.382 158.676 131.317 152.539 125.111ZM168.994 225.049C169.014 225.175 169.028 225.302 169.033 225.43C165.075 215.099 162.093 204.42 160.125 193.531C158.927 186.542 158.172 179.484 157.865 172.398C157.555 165.538 157.634 158.652 157.3 151.787C157.246 150.523 157.134 149.296 156.97 148.083C157.239 148.823 157.494 149.573 157.755 150.3C159.849 156.666 161.273 163.234 162.005 169.898C163.648 183.595 163.631 197.398 166.075 211.01C166.983 215.684 167.962 220.373 168.994 225.049ZM168.561 212.77C167.262 205.781 166.414 198.714 166.021 191.614C165.191 178.331 165.343 164.867 161.597 151.985C160.83 149.351 159.854 146.769 158.863 144.197C168.48 165.319 169.831 189.648 169.108 212.705L169.026 215.029C168.88 214.291 168.701 213.532 168.561 212.77ZM152.577 193.846C149.39 179.451 151.596 164.838 152.977 150.367C153.254 147.615 153.403 144.883 153.489 142.151C153.82 144.9 154.028 147.648 154.194 150.361C154.56 157.308 154.498 164.223 154.931 171.147C155.839 185.276 158.394 199.247 162.544 212.777C164.244 218.496 166.29 224.106 168.67 229.576C161.518 218.563 155.421 206.715 152.577 193.846ZM172.644 166.84C174.575 174.237 175.579 181.847 175.632 189.495C175.543 197.144 174.607 204.762 172.84 212.209C172.392 214.28 171.953 216.365 171.586 218.466C171.608 216.971 171.697 215.454 171.709 214.006C171.946 206.857 171.961 199.647 171.745 192.584C171.486 178.235 168.975 164.021 164.304 150.46C162.197 144.643 159.509 139.054 156.281 133.777C163.946 143.557 169.515 154.811 172.644 166.84Z" fill="#638448"/>
<path d="M173.445 235.433C160.962 226.423 148.165 217.654 135.04 209.582C129.072 205.649 122.493 202.728 115.568 200.936C108.833 199.569 101.942 199.116 95.0816 199.59C86.4768 199.971 77.8484 200.793 69.2909 201.853C69.0225 201.873 68.7656 201.971 68.5514 202.134C68.3372 202.297 68.175 202.519 68.0845 202.772C67.994 203.026 67.9792 203.3 68.0418 203.561C68.1044 203.822 68.2417 204.059 68.4371 204.244C79.9358 213.942 91.629 224.105 105.516 230.312C112.207 233.316 119.368 235.147 126.687 235.724C133.968 236.118 141.267 236.117 148.551 235.723C156.145 235.542 163.968 235.498 171.316 237.42L171.766 237.742C171.937 237.865 172.14 237.939 172.351 237.954C172.562 237.97 172.773 237.927 172.962 237.83C173.144 237.832 173.321 237.766 173.458 237.645C173.595 237.524 173.682 237.356 173.703 237.175C173.883 236.903 173.956 236.575 173.908 236.254C173.861 235.932 173.696 235.64 173.445 235.433ZM150.748 228.074C144.529 226.202 138.423 223.933 132.275 221.853C119.729 217.589 107.035 213.826 94.3834 209.873C90.4179 208.631 86.4274 207.446 82.433 206.223C85.6679 206.511 88.9028 206.799 92.1548 207.178C98.7441 207.942 105.274 208.804 111.777 210.069C114.932 210.598 118.039 211.383 121.065 212.417C124.003 213.615 126.873 214.972 129.661 216.483C135.725 219.611 141.817 222.781 147.89 225.923L153.88 228.935C152.882 228.741 151.819 228.446 150.748 228.074ZM91.3575 210.709C97.6552 212.673 103.923 214.717 110.172 216.956C122.469 221.277 134.772 225.797 147.153 229.963C148.135 230.29 149.127 230.57 150.113 230.873C143.693 229.96 137.247 229.166 130.894 228.008C124.148 226.78 117.529 224.942 111.118 222.518C104.699 220.002 98.4207 217.144 92.3103 213.955C88.1778 211.846 84.1059 209.577 80.1022 207.224C83.8601 208.395 87.6088 209.552 91.3943 210.767L91.3575 210.709ZM112.306 204.174C119.033 205.516 125.483 207.983 131.383 211.47C137.769 215.101 143.986 219.105 150.135 223.131C153.06 225.037 155.942 226.97 158.832 228.918C156.337 227.59 153.833 226.248 151.318 224.952C145.153 221.666 138.827 218.544 132.569 215.398C129.597 213.928 126.694 212.313 123.634 210.96C120.723 209.764 117.703 208.852 114.615 208.238C108.086 206.868 101.464 205.861 94.8468 205.054C91.1021 204.605 87.3496 204.302 83.6075 203.952L82.5025 203.846L92.0836 203.37C98.8497 202.91 105.644 203.199 112.343 204.232L112.306 204.174ZM109.321 229.262C102.303 226.647 95.6901 223.056 89.6788 218.596C85.0186 215.202 80.5507 211.553 76.2958 207.666C86.4843 213.509 97.0856 218.606 108.016 222.915C114.347 225.541 120.869 227.684 127.526 229.327C133.441 230.723 139.417 231.737 145.428 232.646C140.545 232.74 135.671 232.91 130.812 232.787C123.52 232.758 116.281 231.588 109.358 229.32L109.321 229.262Z" fill="#68B687"/>
<path d="M173.445 235.433C160.962 226.423 148.165 217.654 135.04 209.582C129.072 205.649 122.493 202.728 115.568 200.936C108.833 199.569 101.942 199.116 95.0816 199.59C86.4768 199.971 77.8484 200.793 69.2909 201.853C69.0225 201.873 68.7656 201.971 68.5514 202.134C68.3372 202.297 68.175 202.519 68.0845 202.772C67.994 203.026 67.9792 203.3 68.0418 203.561C68.1044 203.822 68.2417 204.059 68.4371 204.244C79.9358 213.942 91.629 224.105 105.516 230.312C112.207 233.316 119.368 235.147 126.687 235.724C133.968 236.118 141.267 236.117 148.551 235.723C156.145 235.542 163.968 235.498 171.316 237.42L171.766 237.742C171.937 237.865 172.14 237.939 172.351 237.954C172.562 237.97 172.773 237.927 172.962 237.83C173.144 237.832 173.321 237.766 173.458 237.645C173.595 237.524 173.682 237.356 173.703 237.175C173.883 236.903 173.956 236.575 173.908 236.254C173.861 235.932 173.696 235.64 173.445 235.433ZM150.748 228.074C144.529 226.202 138.423 223.933 132.275 221.853C119.729 217.589 107.035 213.826 94.3834 209.873C90.4179 208.631 86.4274 207.446 82.433 206.223C85.6679 206.511 88.9028 206.799 92.1548 207.178C98.7441 207.942 105.274 208.804 111.777 210.069C114.932 210.598 118.039 211.383 121.065 212.417C124.003 213.615 126.873 214.972 129.661 216.483C135.725 219.611 141.817 222.781 147.89 225.923L153.88 228.935C152.882 228.741 151.819 228.446 150.748 228.074ZM91.3575 210.709C97.6552 212.673 103.923 214.717 110.172 216.956C122.469 221.277 134.772 225.797 147.153 229.963C148.135 230.29 149.127 230.57 150.113 230.873C143.693 229.96 137.247 229.166 130.894 228.008C124.148 226.78 117.529 224.942 111.118 222.518C104.699 220.002 98.4207 217.144 92.3103 213.955C88.1778 211.846 84.1059 209.577 80.1022 207.224C83.8601 208.395 87.6088 209.552 91.3943 210.767L91.3575 210.709ZM112.306 204.174C119.033 205.516 125.483 207.983 131.383 211.47C137.769 215.101 143.986 219.105 150.135 223.131C153.06 225.037 155.942 226.97 158.832 228.918C156.337 227.59 153.833 226.248 151.318 224.952C145.153 221.666 138.827 218.544 132.569 215.398C129.597 213.928 126.694 212.313 123.634 210.96C120.723 209.764 117.703 208.852 114.615 208.238C108.086 206.868 101.464 205.861 94.8468 205.054C91.1021 204.605 87.3496 204.302 83.6075 203.952L82.5025 203.846L92.0836 203.37C98.8497 202.91 105.644 203.199 112.343 204.232L112.306 204.174ZM109.321 229.262C102.303 226.647 95.6901 223.056 89.6788 218.596C85.0186 215.202 80.5507 211.553 76.2958 207.666C86.4843 213.509 97.0856 218.606 108.016 222.915C114.347 225.541 120.869 227.684 127.526 229.327C133.441 230.723 139.417 231.737 145.428 232.646C140.545 232.74 135.671 232.91 130.812 232.787C123.52 232.758 116.281 231.588 109.358 229.32L109.321 229.262Z" fill="#638448"/>
</svg>
