<svg width="218" height="75" viewBox="0 0 218 75" fill="none" xmlns="http://www.w3.org/2000/svg">
<path d="M108.377 0.411616C144.617 1.09162 180.857 2.05163 217.097 2.73163L217.097 13.8116C187.887 12.6616 158.677 11.9116 129.457 11.2516C114.277 10.9116 99.0866 10.6516 83.8966 10.2516C69.2466 9.87161 54.5566 8.57162 39.8966 8.57162C27.3866 8.57162 13.8966 12.3016 10.4966 26.8216C7.64656 39.0216 14.5866 51.6616 24.7766 57.2316C37.7766 64.3316 54.6266 63.8516 68.7766 64.7316C84.3166 65.7316 99.8966 66.0916 115.457 66.2816C149.397 66.7116 183.247 65.6916 217.117 63.6416L217.117 74.5116C183.977 74.8716 150.82 74.5549 117.647 73.5616C100.757 73.0616 83.8766 72.4416 66.9866 71.9016C58.6366 71.6416 50.2866 71.5616 41.9366 71.3316C34.8766 71.1416 27.9366 70.3316 21.3866 67.3316C10.1766 62.0716 1.38658 50.5416 0.146578 37.4516C-1.09343 24.3616 5.63657 11.6316 16.4966 5.58163C28.7866 -1.26837 44.4166 0.43161 57.8366 0.161614C74.7166 -0.188384 91.5466 0.0916159 108.377 0.411616Z" fill="#5B1F29" fill-opacity="0.6"/>
<path d="M177.117 18.1516C190.427 18.4216 203.787 19.1516 217.117 19.2516L217.117 28.3616C194.707 26.6616 171.967 26.8116 149.567 26.6416C123.477 26.4516 97.3966 26.5816 71.3266 25.7216C65.0566 25.5116 58.7666 25.5816 52.5066 25.7816C46.9766 25.9516 37.8866 24.9516 34.4066 30.3216C27.7266 40.5916 53.8566 43.7116 59.0266 44.4116C84.6443 48.0557 110.465 50.0964 136.337 50.5216C163.397 50.8016 190.177 48.5916 217.137 47.1516L217.137 56.9116C190.287 57.5216 163.327 57.2316 136.477 57.0816C108.277 56.9216 80.0566 56.6016 52.0866 52.6116C42.2566 51.2116 29.0866 48.3216 25.0166 37.7916C20.3866 25.7116 33.1666 19.7016 43.0766 19.4516C71.6066 18.7316 100.077 17.0416 128.587 17.2716C144.777 17.4016 160.947 17.8216 177.117 18.1516Z" fill="#5B1F29" fill-opacity="0.6"/>
</svg>
