<svg xmlns="http://www.w3.org/2000/svg" width="208" height="248" fill="none"><g fill="#36532A" fill-rule="evenodd" clip-rule="evenodd"><path d="M-42.062 181.838a788.175 788.175 0 0 0-16.2 24.926l-8.705-2.502c7.155-20.081 17.671-38.906 27.323-58.767 15.217-31.282 33.27-63.671 61.6-83.852C50.285 41.463 70.47 17.738 106.415.48c-28.22 25.58-52.676 58.675-77.164 87.929-25.166 30.027-49.356 60.944-71.313 93.429ZM-49.677 209.3a750.038 750.038 0 0 1 113.506-65.158c45.314-21.014 96.757 4.493 143.628 21.781-45.041-3.577-91.362-17.58-134.017-2.734a1254.332 1254.332 0 0 0-116.649 47.97l-6.468-1.859Z"/><path d="m-39.272 212.29-.984-.283a284.751 284.751 0 0 1 63.792-20.643c26.787-5.28 54.883 7.471 80.005 18.191 30.038 12.783 62.42 17.938 88.565 37.475-28.431-11.823-59.948-19.027-90.526-23.138-33.216-4.467-67.178-1.236-100.88-.06l-39.972-11.542ZM-56.976 207.202a699.2 699.2 0 0 1 93.24-108.283C76.482 60.917 145.344 74.591 199.92 83.8c-47.227 4.511-96.036 1.913-134.457 29.667-41.598 29.996-83.707 58.253-118.915 94.762l-3.524-1.027Z"/></g></svg>