<svg width="390" height="316" viewBox="0 0 390 316" fill="none" xmlns="http://www.w3.org/2000/svg">
<path opacity="0.3" d="M446 0.116488L446 312.264C446 312.264 282.541 319.718 204.817 313.568C136.299 308.226 55.2708 298.138 18.8127 233.162C-8.68928 184.125 -5.0745 136.48 23.3715 87.9774C51.8176 39.475 102.76 20.6033 157.627 8.40313C187.216 1.81853 217.724 0.948872 248.033 0.563736C314.602 -0.343196 446 0.116488 446 0.116488Z" fill="#C9C1BE"/>
<path opacity="0.3" d="M446.045 31.0938L446.045 282.344C446.045 282.344 314.455 288.344 251.885 283.394C196.725 279.094 131.495 270.974 102.145 218.674C80.0049 179.204 82.9149 140.854 105.815 101.814C128.715 62.7738 169.725 47.5837 213.895 37.7638C237.715 32.4638 262.275 31.7638 286.675 31.4538C340.265 30.7238 446.045 31.0938 446.045 31.0938Z" fill="#C9C1BE"/>
<path opacity="0.3" d="M446 65.0686L446 248.801C446 248.801 349.977 253.189 304.319 249.569C264.068 246.424 216.468 240.486 195.051 202.241C178.896 173.377 181.019 145.333 197.729 116.784C214.44 88.2353 244.365 77.1272 276.597 69.9461C293.979 66.0704 311.9 65.5585 329.706 65.3318C368.811 64.798 446 65.0686 446 65.0686Z" fill="#C9C1BE"/>
</svg>
