<svg width="90" height="285" viewBox="0 0 90 285" fill="none" xmlns="http://www.w3.org/2000/svg">
<path d="M78.8334 248.11C75.9006 252.191 72.8338 256.163 69.7502 260.135C63.7003 267.953 57.6337 275.804 52.6983 284.368C44.9557 284.323 37.2104 284.303 29.4623 284.309C27.091 281.301 25.5324 277.505 23.8482 274.195L14.9996 256.825C12.1758 251.278 9.25138 245.764 6.62026 240.116C3.99189 234.719 2.02256 229.025 0.754726 223.157C-0.192139 218.288 -0.435143 213.051 1.13179 208.283C1.85227 206.022 3.0357 203.936 4.60675 202.157C6.17779 200.378 8.10201 198.946 10.2569 197.952C14.5304 195.966 19.206 195.279 23.6638 193.829C25.9786 193.16 28.1298 192.019 29.9819 190.477C31.7935 188.8 33.1218 186.667 33.828 184.302C34.9089 180.866 34.9341 177.389 34.9592 173.886C32.923 173.702 30.8868 173.475 28.859 173.165C24.2504 172.47 25.3313 166.311 25.8676 162.859C26.1609 160.965 26.7055 159.247 28.8842 158.971C30.9465 158.802 33.017 158.754 35.0849 158.828C43.967 158.753 51.4497 159.004 60.3151 159.574C62.4099 159.708 64.5634 159.784 66.6415 160.102C70.8898 160.747 69.5826 165.875 69.281 169.738C69.245 170.577 68.9882 171.392 68.5365 172.099C68.0848 172.807 67.4542 173.383 66.7085 173.769C65.0326 174.556 62.0496 174.414 60.2397 174.339C59.033 174.288 59.2341 174.255 58.0275 174.221C57.8851 177.732 58.0275 180.397 58.0275 183.874C58.0275 186.321 58.3711 188.609 59.9715 190.578C61.4021 192.194 63.0791 193.574 64.9405 194.667C71.778 198.982 80.1322 201.789 85.3525 208.258C91.6622 216.068 90.8326 226.492 86.8776 235.173C84.6265 239.738 81.9321 244.072 78.8334 248.11Z" fill="#D5A496"/>
<g style="mix-blend-mode:multiply" opacity="0.8">
<path d="M13.2986 40.8475C14.6309 40.2944 16.4492 40.7469 17.748 41.1826C19.3879 41.8035 20.9333 42.6495 22.3399 43.6964C28.4349 47.9367 34.1463 52.7033 39.4086 57.9413C43.5145 62.0137 47.2601 66.5134 49.7739 71.7002C49.461 67.4267 49.0393 63.1644 48.5086 58.9133C48.4248 58.2262 48.3242 57.5475 48.2321 56.8688C48.1342 56.8616 48.038 56.839 47.9472 56.8017C35.2666 51.5145 24.7495 42.0901 18.1083 30.0632C16.6168 27.3232 14.2874 23.4687 15.3432 20.2259C16.466 16.782 20.8903 18.2735 22.9935 19.7064C24.4467 20.7787 25.7885 21.9942 26.9988 23.3346C28.2892 24.6502 29.5126 25.9909 30.7863 27.3483C33.3001 30.1387 35.772 33.0379 38.0512 36.0545C41.5344 40.663 44.6367 45.5476 47.3271 50.6597C46.9305 48.2185 46.5003 45.7885 46.0367 43.3696C45.8775 42.5317 45.7099 41.7524 45.5423 40.9396C43.7156 36.331 41.5872 31.8816 39.3667 27.4238C36.5345 21.7426 33.7777 15.8686 32.4873 9.60928C32.0723 7.89831 31.8808 6.14077 31.9175 4.38057C31.9929 3.01474 32.127 1.27184 33.3839 0.442285C35.6714 -1.04924 38.512 1.59025 40.0873 3.04826C44.277 6.99493 46.6735 12.5001 47.7377 18.0808C49.1119 25.3122 48.5756 32.7111 48.1902 40.0263C48.7488 42.9926 49.2404 45.9644 49.6649 48.9419C51.067 43.4864 52.745 38.1055 54.6925 32.82C55.8908 29.4683 57.2063 26.1836 58.6308 22.9492C59.8922 19.9099 61.4885 17.0207 63.3903 14.3352C64.6472 12.6594 67.9067 8.19317 70.0938 11.1427C70.9317 12.2488 70.9903 13.9414 71.049 15.3324C71.1148 16.818 71.025 18.3065 70.7809 19.7734C69.5994 26.6864 65.9963 33.2725 62.0999 39.0459C59.9799 42.1714 57.5164 44.9869 55.1115 47.8861C53.182 50.0739 51.6174 52.558 50.4777 55.2432C50.4737 55.2822 50.4737 55.3215 50.4777 55.3605C50.5783 56.1984 50.6704 56.9944 50.771 57.8156C50.8473 57.9688 50.8652 58.1446 50.8213 58.31C51.2738 62.0137 51.6592 65.7257 52.0028 69.4378C54.8964 63.1477 57.8208 56.8687 60.7759 50.601C62.4518 47.0202 64.1668 43.4478 65.9208 39.8838C66.7588 38.1521 67.5967 36.4232 68.4346 34.697C69.1386 33.1284 69.9361 31.6034 70.8228 30.1303C71.5531 28.8973 72.6778 27.9467 74.0153 27.4321C74.6207 27.1846 75.2942 27.1589 75.9167 27.3598C76.5392 27.5607 77.0707 27.9751 77.4173 28.5298C78.0625 29.77 77.6854 31.3453 77.4173 32.6441C77.1347 34.2854 76.7541 35.9083 76.2777 37.5041C74.2565 43.9024 71.0971 49.8833 66.9515 55.1594C64.6598 58.1249 62.2124 60.9667 59.6196 63.6728C58.3124 65.0637 56.9885 66.4463 55.7483 67.8624C55.2288 68.4741 54.7344 69.1026 54.2317 69.7227C53.8211 70.636 53.3937 71.541 52.9915 72.4543C52.9307 72.5963 52.8402 72.7237 52.726 72.8278C52.6118 72.9318 52.4766 73.0102 52.3296 73.0576C52.5809 76.3591 52.7904 79.6606 52.9329 82.9704C56.0732 77.363 59.508 71.9256 63.2227 66.681C65.2896 63.7482 67.4403 60.8741 69.6748 58.0586C71.8283 55.3605 73.9901 52.612 76.3783 50.1318C77.5178 48.9587 82.2438 44.2662 83.0817 48.1291C83.3666 49.5033 82.822 51.1708 82.3862 52.5031C82.1516 53.2154 81.917 53.9192 81.6405 54.6147C78.7807 61.4803 74.6852 67.7627 69.5575 73.1498C67.0948 75.7929 64.4548 78.2649 61.6558 80.5488C60.2983 81.6632 58.8989 82.719 57.4661 83.7497C56.0332 84.7803 54.5585 85.7104 53.687 87.2606C53.5627 87.5037 53.3497 87.6897 53.0921 87.7801C53.187 92.0871 53.187 96.3941 53.0921 100.701C55.8632 95.1279 58.9403 89.7121 62.3094 84.4787C65.7365 79.1746 69.6329 74.0799 75.1046 70.7617C76.7805 69.7646 80.5763 67.3429 82.2187 69.5635C83.1152 70.7785 82.1265 72.2448 81.5148 73.3342C80.8013 74.611 80.0093 75.8423 79.1434 77.0211C75.6493 81.814 71.1831 85.7858 66.8258 89.7744C61.9239 94.2574 56.9549 98.9247 53.62 104.748C53.5529 104.875 53.4602 104.987 53.3477 105.077C53.2352 105.166 53.1053 105.231 52.9664 105.268C52.891 107.706 52.7988 110.136 52.6982 112.575C52.6061 114.736 52.5055 116.898 52.4133 119.069C56.3014 113.664 60.4491 108.435 64.4293 103.098C68.2922 97.9275 72.1383 92.2044 77.5597 88.4924C80.2068 86.5795 83.3698 85.5106 86.6346 85.4255C86.8358 85.4352 87.028 85.5124 87.18 85.6447C87.332 85.7769 87.4351 85.9565 87.4725 86.1545C88.2015 89.2549 86.115 92.6402 84.5984 95.2042C82.9052 97.9988 80.8948 100.588 78.6072 102.922C73.789 107.949 68.0827 111.963 62.4099 115.96C59.0079 118.348 55.6059 120.753 52.3547 123.376L52.2039 123.468C51.9944 127.791 51.7598 132.124 51.4832 136.439C56.3344 127.395 63.3971 119.727 72.0126 114.15C73.3701 113.262 74.761 112.407 76.2023 111.636C77.6435 110.865 79.0932 110.639 80.392 111.561C83.3918 113.656 82.0678 117.502 80.5847 120.074C77.4089 125.554 72.3729 129.643 67.1191 133.037C64.1193 134.973 60.9938 136.699 57.9521 138.567C56.4756 139.442 55.0915 140.464 53.8211 141.617C52.6106 142.818 51.6082 144.211 50.8548 145.74L50.771 145.857L50.7207 146.528C51.1565 146.1 51.6089 145.69 52.0865 145.279C53.6702 143.922 55.2623 142.589 56.9633 141.383C60.3151 139.037 64.1612 137.126 68.3257 137.277C69.9262 137.327 71.7445 137.629 72.9008 138.844C73.1507 139.102 73.3423 139.411 73.4626 139.75C73.5829 140.089 73.6291 140.45 73.5981 140.808C73.5672 141.166 73.4597 141.513 73.2831 141.826C73.1064 142.14 72.8646 142.411 72.574 142.623C71.8644 143.189 71.0944 143.675 70.2781 144.073C69.3229 144.609 68.3676 145.137 67.4124 145.648C65.5994 146.642 63.7336 147.538 61.8233 148.329C59.7229 149.179 57.5492 149.836 55.3294 150.29C53.5389 150.515 51.8089 151.084 50.2347 151.966C49.7236 157.329 37.6657 246.895 36.5848 252.158L33.7274 251.714C34.9508 245.798 46.9752 155.745 47.5198 149.729C47.4999 149.7 47.483 149.669 47.4695 149.636C46.4182 147.144 44.6731 145.007 42.4419 143.478C39.7773 141.425 37.0037 139.497 34.2805 137.528C29.1523 133.808 23.3873 130.238 19.5244 125.144C18.058 123.233 15.9967 119.714 19.0049 118.071C21.1752 116.89 24.0325 118.13 26.0855 119.077C31.3896 121.549 35.4284 126.007 39.0651 130.473C42.3749 134.537 45.7015 138.659 48.031 143.344C48.3438 139.232 48.6231 135.118 48.8689 131.001C48.5807 130.935 48.3253 130.768 48.1483 130.532C46.1875 128.076 43.1207 126.576 40.456 124.942C37.4506 123.077 34.4285 121.233 31.3896 119.412C28.3507 117.591 25.3537 115.82 22.3986 114.1C19.6334 112.491 16.6755 111.05 14.3879 108.779C13.3142 107.83 12.5935 106.545 12.3433 105.134C12.2535 104.457 12.3792 103.768 12.7026 103.167C13.0259 102.565 13.5306 102.081 14.1449 101.782C16.5749 100.609 19.9183 102 22.1807 102.963C25.4161 104.431 28.4839 106.243 31.3309 108.368C33.477 109.896 35.5438 111.532 37.5233 113.27C41.8249 116.966 45.7362 121.094 49.1957 125.588C49.3633 122.454 49.5141 119.312 49.6649 116.169C49.6649 115.181 49.7571 114.192 49.799 113.211C49.6738 113.19 49.5524 113.151 49.4387 113.094C42.7352 109.742 35.9396 106.273 29.7472 101.991C24.2253 98.1621 19.1641 93.2016 16.6168 86.8668C15.4102 83.8586 14.413 80.0041 15.628 76.8116C17.0525 73.1163 21.0076 77.2138 22.5661 78.6299C27.5937 83.1883 31.5069 88.6851 35.906 93.8049C38.5204 96.855 41.3778 99.6704 44.2854 102.427C46.3688 104.427 48.2831 106.597 50.0085 108.913C50.0671 107.472 50.1258 106.03 50.1761 104.589C50.1013 104.485 50.0394 104.373 49.9917 104.254C47.4779 97.2404 41.5453 92.4139 36.2328 87.4952C29.897 81.7616 24.1688 75.3904 19.139 68.4825C17.9659 66.8067 12.6618 60.0026 17.1447 59.1396C18.5943 58.863 20.2702 59.592 21.6277 60.2624C23.4158 61.1485 25.1016 62.2275 26.6553 63.4801C32.5806 68.4496 37.7567 74.2494 42.023 80.6996C45.3491 85.5337 48.1577 90.7043 50.4023 96.126C50.4582 93.1597 50.4582 90.1906 50.4023 87.2187C50.4023 84.4703 50.285 81.7135 50.1677 78.9651C49.9085 79.0231 49.6374 78.9927 49.3975 78.8789C49.1576 78.765 48.9626 78.5741 48.8437 78.3366C47.1679 75.253 44.1429 72.9822 41.537 70.7449C38.6126 68.2311 35.6212 65.8011 32.6381 63.3627C26.8228 58.6284 20.7897 53.9444 15.5861 48.5229C14.3041 47.1403 9.99713 42.2468 13.2986 40.8475Z" fill="#8AA3A0"/>
</g>
</svg>
