<svg width="526" height="723" viewBox="0 0 526 723" fill="none" xmlns="http://www.w3.org/2000/svg">
<path d="M422.898 361.005C411.896 353.665 402.944 343.651 397.091 332.135C380.408 298.324 391.398 262.404 407.3 240.127C435.02 201.1 465.638 210.628 477.568 216.556C508.418 231.937 526.918 274.333 518.726 311.071C513.574 334.487 505.917 357.776 485.698 368.834C479.168 372.202 471.805 374.077 464.113 374.33C456.421 374.584 448.579 373.209 441.124 370.301C434.718 368.01 428.582 364.88 422.898 361.005ZM411.316 243.026L415.517 245.872C401.134 266.219 391.058 298.632 405.833 328.684C409.72 336.093 415.067 342.805 421.538 348.4C428.009 353.995 435.464 358.351 443.433 361.193C449.538 363.59 455.961 364.735 462.267 364.55C468.573 364.364 474.615 362.853 479.982 360.119C497.349 350.672 497.319 328.827 502.036 307.359C510.154 270.885 496.889 236.37 473.573 224.747C453.256 214.618 432.037 222.353 415.298 245.903L411.316 243.026Z" fill="#F4DFCE"/>
<path d="M377.824 442.448C357.131 427.661 340.817 407.662 330.98 385.023C311.341 342.617 300.157 290.118 316.555 239.925C332.954 189.732 373.539 149.276 412.932 129.277C444.806 113.065 490.369 100.26 525.455 121.156C568.368 146.725 591.794 211.595 594.874 257C598.327 311.119 587.687 363.716 563.935 409.944C557.989 421.477 550.275 434.413 537.916 442.679C524.834 451.441 508.238 453.967 493.602 456.161C456.88 461.735 423.898 465.18 392.594 450.793C387.463 448.435 382.518 445.642 377.824 442.448ZM339.855 381.976C352.987 410.288 372.927 431.732 395.936 442.384C424.565 455.542 455.982 452.204 491.074 446.915C504.797 444.82 520.296 442.448 531.78 434.756C542.593 427.551 549.628 415.724 555.092 405.075C578.11 360.178 588.411 309.114 585.047 256.576C582.376 214.409 552.391 168.358 512.245 144.484C480.38 125.501 446.962 123.18 418.098 137.844C339.982 177.578 301.16 298.547 339.855 381.976Z" fill="#F4DFCE"/>
<path d="M319.175 499.807C304.681 490.034 291.455 478.48 279.884 465.48C247.185 428.623 226.765 377.796 222.394 322.549C218.488 266.893 225.589 210.145 252.254 163.93C274.643 125.995 307.759 84.7616 342.98 57.8671C374.374 34.2887 423.325 19.8153 472.233 32.7184C569.181 58.0269 657.422 167.407 662.804 253.877C664.676 282.051 646.617 316.89 637.518 353.418C623.338 410.225 603.4 450.666 574.559 480.503C556.737 499.191 534.831 513.811 510.126 523.504C485.421 533.197 458.413 537.77 430.686 536.953C391.715 535.452 352.83 522.5 319.175 499.807ZM523.822 66.3618C507.544 55.1272 489.563 46.7346 470.807 41.6184C392.808 21.028 302.567 107.034 265.915 171.894C240.039 216.684 228.323 268.953 232.063 322.91C236.325 375.976 269.358 425.946 300.365 460.985C318.742 481.263 327.716 496.584 352.422 508.297C377.129 520.011 403.606 526.569 429.982 527.507C483.316 528.816 532.675 509.475 567.214 473.735C594.984 444.921 614.359 405.713 628.142 350.341C637.048 314.714 640.362 285.389 638.625 258.069C634.362 192.446 587.733 109.651 523.822 66.3618Z" fill="#F4DFCE"/>
<path d="M341.221 575.098L340.533 574.632C292.151 541.637 259.481 493.992 224.757 439.71C200.948 402.507 168.067 374.29 153.832 337.743C120.566 252.116 139.357 146.798 184.392 65.6423C224.698 -6.96621 296.043 -67.4304 384.974 -104.234C476.06 -142.044 579.53 -141.779 655.014 -103.52C710.036 -75.6237 748.825 -28.0495 767.223 34.0983C783.879 90.2681 778.553 152.535 750.383 230.001C743.666 248.456 736.085 266.863 728.905 284.735C712.24 325.196 695.309 367.27 687.02 411.342C683.736 428.893 681.752 447.191 679.909 464.821C677.034 491.888 673.952 519.8 666.25 546.107C650.842 598.048 616.448 633.45 574.157 640.679C546.184 645.364 516.573 638.087 490.459 631.7C441.906 619.62 386.916 606.049 341.221 575.098ZM683.348 -62.053C675.768 -67.1916 628.531 -94.6461 620.386 -98.7552C547.572 -135.699 478.179 -132.402 389.619 -95.4818C302.305 -59.2429 221.336 45.9604 182.104 117.01C138.286 195.94 142.501 246.505 174.937 329.686C188.823 365.325 209.276 398.551 232.897 435.358C266.957 488.607 298.86 535.374 345.588 567.025L346.242 567.468C390.318 597.323 444.278 610.643 491.896 622.404C517.151 628.659 545.746 635.74 571.586 631.27C610.45 624.634 642.291 591.449 656.763 542.596C664.332 517.095 667.334 489.532 670.197 462.862C672.025 444.952 674.179 426.546 677.489 408.653C685.931 363.743 703.155 321.374 719.859 280.402C727.087 262.607 734.573 244.269 741.208 225.938C768.641 150.35 773.997 89.8526 757.949 35.7091C742.847 -14.8788 723.429 -34.9039 683.348 -62.053Z" fill="#F4DFCE"/>
</svg>
