<svg width="100" height="100" viewBox="0 0 100 100" fill="none" xmlns="http://www.w3.org/2000/svg">
<circle cx="50" cy="50" r="50" fill="#E4AB81"/>
<path d="M49.9305 8C51.8945 8 53.8145 8.58285 55.4475 9.67485C57.0806 10.7669 58.3534 12.3189 59.105 14.1349C59.8566 15.9508 60.0533 17.949 59.6701 19.8768C59.287 21.8046 58.3412 23.5753 56.9524 24.9652C55.5636 26.355 53.7941 27.3016 51.8678 27.685C49.9415 28.0685 47.9448 27.8717 46.1302 27.1195C44.3157 26.3673 42.7648 25.0935 41.6736 23.4592C40.5824 21.8249 40 19.9035 40 17.938C40 15.3023 41.0462 12.7745 42.9086 10.9108C44.7709 9.04704 47.2967 8 49.9305 8Z" fill="#5B1F29"/>
<path d="M49.9305 41.1045C51.8949 41.1045 53.8152 41.6876 55.4484 42.7799C57.0817 43.8723 58.3545 45.4249 59.1058 47.2413C59.8572 49.0577 60.0534 51.0563 59.6695 52.9843C59.2857 54.9124 58.3391 56.6831 56.9494 58.0726C55.5598 59.4621 53.7896 60.408 51.8627 60.7905C49.9358 61.173 47.9389 60.975 46.1244 60.2215C44.31 59.4681 42.7597 58.193 41.6695 56.5576C40.5794 54.9222 39.9983 53 40 51.0341C40 49.7294 40.2569 48.4375 40.7561 47.2323C41.2552 46.027 41.9868 44.932 42.9091 44.0099C43.8313 43.0877 44.9261 42.3564 46.1309 41.8579C47.3357 41.3594 48.6268 41.1034 49.9305 41.1045Z" fill="#5B1F29"/>
<path d="M49.9305 72.2075C51.8945 72.2075 53.8145 72.7904 55.4475 73.8824C57.0806 74.9744 58.3534 76.5265 59.105 78.3424C59.8566 80.1583 60.0533 82.1565 59.6701 84.0843C59.287 86.0121 58.3412 87.7829 56.9524 89.1727C55.5636 90.5626 53.7941 91.5091 51.8678 91.8925C49.9415 92.276 47.9448 92.0792 46.1303 91.327C44.3157 90.5748 42.7648 89.301 41.6736 87.6668C40.5824 86.0325 40 84.111 40 82.1455C39.9989 80.8401 40.255 79.5473 40.7537 78.3411C41.2523 77.1349 41.9838 76.0389 42.9061 75.1158C43.8285 74.1928 44.9236 73.4608 46.1289 72.9618C47.3343 72.4627 48.6261 72.2064 49.9305 72.2075Z" fill="#5B1F29"/>
</svg>
