<svg xmlns="http://www.w3.org/2000/svg" width="100" height="100" fill="none"><circle cx="50" cy="50" r="50" fill="#E4AB81"/><path fill="#5B1F29" d="M49.93 8a9.925 9.925 0 0 1 9.175 6.135 9.945 9.945 0 0 1-2.153 10.83A9.928 9.928 0 0 1 40 17.938a9.941 9.941 0 0 1 2.909-7.027A9.926 9.926 0 0 1 49.93 8ZM49.93 41.105a9.925 9.925 0 0 1 9.176 6.136 9.944 9.944 0 0 1-2.157 10.832A9.928 9.928 0 0 1 40 51.034a9.935 9.935 0 0 1 6.13-9.176 9.916 9.916 0 0 1 3.8-.753ZM49.93 72.207a9.925 9.925 0 0 1 9.175 6.135 9.945 9.945 0 0 1-2.153 10.83A9.928 9.928 0 0 1 40 82.147a9.935 9.935 0 0 1 6.129-9.184 9.915 9.915 0 0 1 3.802-.755Z"/></svg>