<svg width="32" height="31" viewBox="0 0 32 31" fill="none" xmlns="http://www.w3.org/2000/svg">
<g clip-path="url(#clip0_6_61)">
<path d="M16 2.79121C20.275 2.79121 20.7813 2.80937 22.4625 2.88203C24.025 2.94863 24.8688 3.20293 25.4313 3.41484C26.175 3.69336 26.7125 4.03242 27.2688 4.57129C27.8313 5.11621 28.175 5.63086 28.4625 6.35137C28.6813 6.89629 28.9438 7.71973 29.0125 9.22734C29.0875 10.8621 29.1063 11.3525 29.1063 15.4879C29.1063 19.6293 29.0875 20.1197 29.0125 21.7484C28.9438 23.2621 28.6813 24.0795 28.4625 24.6244C28.175 25.3449 27.825 25.8656 27.2688 26.4045C26.7063 26.9494 26.175 27.2824 25.4313 27.5609C24.8688 27.7729 24.0188 28.0271 22.4625 28.0938C20.775 28.1664 20.2688 28.1846 16 28.1846C11.725 28.1846 11.2188 28.1664 9.5375 28.0938C7.975 28.0271 7.13125 27.7729 6.56875 27.5609C5.825 27.2824 5.2875 26.9434 4.73125 26.4045C4.16875 25.8596 3.825 25.3449 3.5375 24.6244C3.31875 24.0795 3.05625 23.2561 2.9875 21.7484C2.9125 20.1137 2.89375 19.6232 2.89375 15.4879C2.89375 11.3465 2.9125 10.8561 2.9875 9.22734C3.05625 7.71367 3.31875 6.89629 3.5375 6.35137C3.825 5.63086 4.175 5.11016 4.73125 4.57129C5.29375 4.02637 5.825 3.69336 6.56875 3.41484C7.13125 3.20293 7.98125 2.94863 9.5375 2.88203C11.2188 2.80937 11.725 2.79121 16 2.79121ZM16 0C11.6563 0 11.1125 0.0181641 9.40625 0.0908203C7.70625 0.163477 6.5375 0.429883 5.525 0.811328C4.46875 1.21094 3.575 1.7377 2.6875 2.60352C1.79375 3.46328 1.25 4.3291 0.8375 5.34629C0.44375 6.3332 0.16875 7.45937 0.09375 9.10625C0.01875 10.7652 0 11.292 0 15.5C0 19.708 0.01875 20.2348 0.09375 21.8877C0.16875 23.5346 0.44375 24.6668 0.8375 25.6477C1.25 26.6709 1.79375 27.5367 2.6875 28.3965C3.575 29.2562 4.46875 29.7891 5.51875 30.1826C6.5375 30.5641 7.7 30.8305 9.4 30.9031C11.1063 30.9758 11.65 30.9939 15.9938 30.9939C20.3375 30.9939 20.8813 30.9758 22.5875 30.9031C24.2875 30.8305 25.4563 30.5641 26.4688 30.1826C27.5188 29.7891 28.4125 29.2562 29.3 28.3965C30.1875 27.5367 30.7375 26.6709 31.1438 25.6537C31.5375 24.6668 31.8125 23.5406 31.8875 21.8938C31.9625 20.2408 31.9813 19.7141 31.9813 15.5061C31.9813 11.298 31.9625 10.7713 31.8875 9.11836C31.8125 7.47148 31.5375 6.33926 31.1438 5.3584C30.75 4.3291 30.2063 3.46328 29.3125 2.60352C28.425 1.74375 27.5313 1.21094 26.4813 0.817383C25.4625 0.435937 24.3 0.169531 22.6 0.096875C20.8875 0.0181641 20.3438 0 16 0Z" fill="#8AA3A0"/>
<path d="M16 7.53809C11.4625 7.53809 7.78125 11.1043 7.78125 15.5C7.78125 19.8957 11.4625 23.4619 16 23.4619C20.5375 23.4619 24.2188 19.8957 24.2188 15.5C24.2188 11.1043 20.5375 7.53809 16 7.53809ZM16 20.6646C13.0563 20.6646 10.6688 18.3518 10.6688 15.5C10.6688 12.6482 13.0563 10.3354 16 10.3354C18.9438 10.3354 21.3313 12.6482 21.3313 15.5C21.3313 18.3518 18.9438 20.6646 16 20.6646Z" fill="#8AA3A0"/>
<path d="M26.4625 7.22317C26.4625 8.25247 25.6 9.08196 24.5438 9.08196C23.4813 9.08196 22.625 8.24641 22.625 7.22317C22.625 6.19387 23.4875 5.36438 24.5438 5.36438C25.6 5.36438 26.4625 6.19993 26.4625 7.22317Z" fill="#8AA3A0"/>
</g>
<defs>
<clipPath id="clip0_6_61">
<rect width="32" height="31" fill="white"/>
</clipPath>
</defs>
</svg>
