<svg width="482" height="152" viewBox="0 0 482 152" fill="none" xmlns="http://www.w3.org/2000/svg">
<g clip-path="url(#clip0_68_139)">
<path d="M9.93047 29.772C11.8945 29.772 13.8145 30.3548 15.4475 31.4468C17.0806 32.5388 18.3534 34.0909 19.105 35.9068C19.8566 37.7228 20.0533 39.721 19.6701 41.6488C19.287 43.5765 18.3412 45.3473 16.9524 46.7372C15.5636 48.127 13.7941 49.0735 11.8678 49.457C9.94148 49.8404 7.9448 49.6436 6.13025 48.8915C4.31569 48.1393 2.76476 46.8655 1.67359 45.2312C0.582414 43.5969 0 41.6755 0 39.7099C0 37.0742 1.04625 34.5465 2.90857 32.6827C4.77089 30.819 7.29675 29.772 9.93047 29.772Z" fill="#5B1F29"/>
<path d="M9.93047 62.8765C11.8949 62.8765 13.8152 63.4595 15.4484 64.5519C17.0817 65.6443 18.3545 67.1969 19.1058 69.0133C19.8572 70.8297 20.0534 72.8283 19.6695 74.7563C19.2857 76.6843 18.3391 78.4551 16.9494 79.8446C15.5598 81.2341 13.7896 82.18 11.8627 82.5625C9.93581 82.945 7.93886 82.747 6.12445 81.9935C4.31004 81.2401 2.75969 79.965 1.66953 78.3296C0.579358 76.6942 -0.00165142 74.772 3.52562e-06 72.8061C3.06219e-06 71.5014 0.256925 70.2095 0.756081 69.0042C1.25524 67.799 1.98684 66.704 2.90908 65.7818C3.83132 64.8597 4.92611 64.1284 6.13088 63.6299C7.33565 63.1314 8.62678 62.8754 9.93047 62.8765Z" fill="#5B1F29"/>
<path d="M9.93047 93.9795C11.8945 93.9795 13.8145 94.5623 15.4475 95.6543C17.0806 96.7463 18.3534 98.2984 19.105 100.114C19.8566 101.93 20.0533 103.929 19.6701 105.856C19.287 107.784 18.3412 109.555 16.9524 110.945C15.5636 112.335 13.7941 113.281 11.8678 113.665C9.94149 114.048 7.94481 113.851 6.13025 113.099C4.31569 112.347 2.76476 111.073 1.67359 109.439C0.582417 107.804 3.53029e-06 105.883 3.53029e-06 103.917C-0.00109676 102.612 0.255011 101.319 0.753674 100.113C1.25234 98.9068 1.98377 97.8109 2.90612 96.8878C3.82847 95.9648 4.92363 95.2328 6.12895 94.7337C7.33426 94.2347 8.62608 93.9784 9.93047 93.9795Z" fill="#5B1F29"/>
<path d="M52.9234 24.8911V115.078C57.0865 115.066 61.2386 114.651 65.3219 113.839C69.4178 113.054 73.4544 111.985 77.4024 110.641C80.9399 109.442 84.3801 107.972 87.6926 106.245C90.2115 105.004 92.5252 103.383 94.5527 101.439V116.451H39.6633V24.8911H52.9234Z" fill="#5B1F29"/>
<path d="M103.613 116.451C105.989 108.637 108.153 101.495 110.105 95.0262C112.057 88.5571 113.979 82.2388 115.869 76.0711C117.76 69.9314 119.668 63.6606 121.592 57.2585C123.516 50.8564 125.635 43.8516 127.95 36.2439C128.429 34.675 129.024 33.1441 129.732 31.6642C130.407 30.2446 131.268 28.9213 132.292 27.7292C133.264 26.5973 134.446 25.6648 135.772 24.9831C137.157 24.3214 138.672 23.978 140.206 23.978C141.741 23.978 143.255 24.3214 144.64 24.9831C145.967 25.6648 147.149 26.5973 148.12 27.7292C149.145 28.9213 150.005 30.2446 150.68 31.6642C151.388 33.1441 151.983 34.675 152.462 36.2439C154.783 43.8795 156.919 50.8843 158.871 57.2585C160.823 63.6326 162.727 69.9035 164.585 76.0711C166.453 82.2444 168.361 88.5627 170.307 95.0262C172.254 101.49 174.418 108.631 176.799 116.451H162.803C160.856 110.105 159.088 104.244 157.499 98.8691C155.909 93.494 154.384 88.2753 152.922 83.2128H122.37C122.241 86.9971 122.194 90.6614 122.228 94.2057C122.261 97.7499 122.322 100.998 122.412 103.951C122.506 106.915 122.66 109.48 122.872 111.645C122.998 113.26 123.227 114.865 123.558 116.451H103.613ZM152.462 81.8397C151.347 78.2396 150.282 74.6702 149.267 71.1315C148.251 67.5928 147.167 63.9647 146.012 60.2474C144.897 56.5301 143.709 52.7011 142.448 48.7605C141.188 44.82 139.86 40.6366 138.466 36.2104C138.238 35.2858 137.8 34.4264 137.186 33.6987C136.88 33.3827 136.509 33.1374 136.099 32.9797C135.688 32.8221 135.249 32.756 134.81 32.7861C132.735 32.7861 130.964 34.2485 129.498 37.1732C127.81 40.8074 126.582 44.638 125.842 48.5764C124.774 53.803 124.003 59.0861 123.533 64.4001C122.975 70.2273 122.607 76.0405 122.428 81.8397H152.462Z" fill="#5B1F29"/>
<path d="M220.353 23.9785C222.708 23.9763 225.057 24.2374 227.355 24.7571C229.558 25.2462 231.704 25.9674 233.755 26.9088C235.618 27.7497 237.383 28.7942 239.017 30.0233C240.402 31.0407 241.607 32.2831 242.581 33.6988L233.621 44.407C230.025 40.1906 225.662 36.696 220.763 34.109C216.114 31.5803 210.911 30.2428 205.62 30.2159C202.683 30.1713 199.789 30.9328 197.254 32.4178C194.712 33.9456 192.577 36.0653 191.03 38.5966C189.236 41.5222 187.939 44.7246 187.19 48.0741C186.269 52.0342 185.823 56.0898 185.86 60.1554C185.831 65.7571 186.534 71.3385 187.951 76.7578C189.202 81.7083 191.271 86.4145 194.075 90.681C196.659 94.584 200.091 97.8524 204.114 100.242C208.309 102.672 213.088 103.908 217.935 103.817C221.209 103.913 224.474 103.432 227.581 102.394C229.768 101.636 231.823 100.54 233.671 99.1454C235.372 97.9306 236.798 96.37 237.854 94.5658L245.175 106.287C243.172 108.45 240.857 110.302 238.306 111.779C235.546 113.382 232.617 114.674 229.572 115.631C225.526 116.864 221.31 117.449 217.082 117.364C211.261 117.489 205.505 116.135 200.349 113.429C195.583 110.853 191.455 107.239 188.269 102.854C184.947 98.2372 182.484 93.0584 180.999 87.5665C179.367 81.678 178.55 75.593 178.573 69.4822C178.513 63.321 179.489 57.1935 181.459 51.3561C183.229 46.0528 186.026 41.1508 189.691 36.9305C193.312 32.8281 197.795 29.5775 202.817 27.4111C208.356 25.0446 214.331 23.8749 220.353 23.9785Z" fill="#5B1F29"/>
<path d="M279.634 68.2934C282.427 68.261 285.212 68.5988 287.917 69.298C290.385 69.9678 292.694 70.7046 294.827 71.5C296.96 72.2953 299.01 73.0237 301.043 73.6935C303.05 74.3619 305.152 74.7012 307.267 74.6982C308.242 74.7146 309.205 74.4781 310.061 74.0117C310.46 73.7947 310.787 73.468 311.005 73.0702C311.223 72.6725 311.322 72.2205 311.291 71.7679C311.291 70.4283 310.424 69.2227 308.689 68.151C306.657 66.9575 304.492 66.0051 302.239 65.3128C299.668 64.4923 296.907 63.7444 293.957 63.069C290.995 62.3992 288.301 61.7629 285.859 61.1517C282.621 60.3145 279.459 59.5443 276.346 58.7238C273.438 57.9786 270.63 56.888 267.98 55.4753C265.617 54.2233 263.579 52.4339 262.032 50.2509C260.447 47.8048 259.664 44.9251 259.79 42.0125C259.881 40.2263 260.301 38.4722 261.028 36.8384C262.074 34.5015 263.677 32.4574 265.696 30.8857C268.548 28.6714 271.789 27.0103 275.25 25.9879C279.344 24.6483 284.682 23.9785 291.263 23.9785C293.647 23.9785 296.283 24.0873 299.269 24.2966C302.256 24.506 305.176 24.866 308.104 25.3516C310.855 25.7989 313.574 26.4254 316.244 27.227C318.364 27.7991 320.352 28.7772 322.1 30.1071L318.344 43.8461C316.742 42.7296 315.004 41.821 313.174 41.1418C310.876 40.2571 308.523 39.5243 306.129 38.9483C303.417 38.283 300.669 37.7771 297.897 37.4329C295 37.0713 292.083 36.8895 289.163 36.8887C282.47 36.8887 277.621 37.6812 274.615 39.2664C273.242 39.9003 272.085 40.9237 271.288 42.2097C270.49 43.4956 270.088 44.9874 270.13 46.5001C270.1 47.8545 270.406 49.1952 271.021 50.4021C271.635 51.609 272.54 52.6445 273.653 53.4157C276.347 55.3264 279.329 56.7934 282.487 57.7609C286.274 58.9834 290.122 60.0062 294.015 60.8252C297.917 61.6538 301.766 62.7105 305.544 63.99C308.725 65.011 311.719 66.5406 314.412 68.5194C315.546 69.3562 316.46 70.4564 317.075 71.7253C317.69 72.9942 317.988 74.3938 317.942 75.8033C317.964 77.4012 317.618 78.9826 316.93 80.4249C316.289 81.7598 315.387 82.9526 314.278 83.9329C313.13 84.9237 311.812 85.6981 310.388 86.2186C308.922 86.769 307.376 87.08 305.812 87.1395C302.629 87.2229 299.452 86.8191 296.391 85.9422C293.463 85.0883 290.627 84.1422 287.883 83.104C285.139 82.0659 282.392 81.0891 279.643 80.1737C276.869 79.2545 273.964 78.7908 271.042 78.8006C266.898 78.8006 263.895 79.4732 262.032 80.8184C261.137 81.4409 260.413 82.2785 259.926 83.2543C259.439 84.2302 259.206 85.3128 259.246 86.4027C259.205 87.9676 259.489 89.524 260.08 90.9737C260.67 92.4233 261.554 93.7348 262.676 94.8253C265.267 97.2726 268.354 99.1316 271.728 100.276C275.901 101.746 280.23 102.729 284.629 103.206C289.594 103.781 294.589 104.06 299.587 104.043C303.388 104.061 307.183 103.756 310.932 103.131C314.727 102.453 318.268 100.761 321.18 98.2328L315.692 114.14C313.349 115.265 310.876 116.095 308.33 116.61C305.571 117.121 302.769 117.365 299.964 117.339C294.621 117.341 289.293 116.78 284.068 115.664C279.268 114.69 274.683 112.858 270.532 110.256C266.663 107.794 263.445 104.434 261.154 100.46C258.806 96.4356 257.632 91.4931 257.632 85.6325C257.561 82.9837 258.135 80.3575 259.305 77.9802C260.417 75.8394 262.016 73.9898 263.973 72.58C266.089 71.0836 268.459 69.983 270.967 69.3315C273.798 68.6047 276.712 68.2556 279.634 68.2934Z" fill="#5B1F29"/>
<path d="M336.03 24.891H382.419C384.679 24.839 386.919 25.3269 388.953 26.3142C390.736 27.1932 392.313 28.4401 393.579 29.973C394.794 31.4649 395.724 33.1677 396.324 34.9964C396.926 36.811 397.234 38.7105 397.235 40.6226C397.335 43.8949 396.561 47.1345 394.993 50.008C393.55 52.5386 391.643 54.7741 389.371 56.597C387.139 58.3866 384.694 59.8938 382.093 61.0846C379.499 62.2735 377.073 63.32 374.823 64.1991C372.572 65.0782 370.69 65.8736 369.193 66.669C367.695 67.4644 366.95 68.2765 366.95 69.1807C366.95 70.0849 367.653 72.0942 369.059 74.8153C370.464 77.5363 372.246 80.6257 374.413 84.1086C376.58 87.5915 378.981 91.1916 381.641 94.9089C384.302 98.6262 386.878 102.051 389.413 105.165C391.579 107.879 393.918 110.449 396.416 112.859C398.552 114.869 400.166 115.873 401.259 115.873V116.426H386.201C385.114 116.445 384.028 116.37 382.955 116.2C382.15 116.057 381.385 115.743 380.713 115.279C379.911 114.701 379.215 113.991 378.655 113.177C377.952 112.234 376.99 110.998 375.768 109.468C373.816 106.957 371.705 104.052 369.435 100.753C367.165 97.4541 365.06 94.1554 363.119 90.8567C361.2 87.6026 359.586 84.583 358.275 81.7978C356.964 79.0126 356.309 76.8916 356.309 75.4348C356.331 74.6657 356.528 73.9117 356.885 73.23C357.241 72.5483 357.748 71.9566 358.367 71.4998C359.964 70.1849 361.678 69.0191 363.487 68.0169C365.528 66.8615 367.74 65.5638 370.121 64.1238C372.53 62.6687 374.757 60.9318 376.755 58.9497C378.862 56.8485 380.594 54.4019 381.875 51.716C383.333 48.5017 384.037 44.9965 383.933 41.4682C383.946 39.4373 383.664 37.4152 383.097 35.4652C382.584 33.6723 381.678 32.0164 380.445 30.6176C379.149 29.1929 377.535 28.0943 375.735 27.411C373.524 26.5978 371.179 26.2087 368.824 26.264H349.248V116.451H336.03V24.891Z" fill="#5B1F29"/>
<path d="M405.802 116.451C408.178 108.637 410.345 101.495 412.303 95.0264C414.26 88.5574 416.182 82.239 418.067 76.0714C419.952 69.9317 421.857 63.6608 423.781 57.2588C425.705 50.8567 427.824 43.8518 430.139 36.2442C430.618 34.6752 431.214 33.1444 431.921 31.6645C432.596 30.2428 433.46 28.9191 434.489 27.7295C435.458 26.5978 436.637 25.6652 437.961 24.9833C439.348 24.3221 440.864 23.979 442.399 23.979C443.935 23.979 445.451 24.3221 446.838 24.9833C448.162 25.6652 449.341 26.5978 450.309 27.7295C451.339 28.9191 452.203 30.2428 452.878 31.6645C453.577 33.1366 454.172 34.6557 454.66 36.2107C456.98 43.8462 459.113 50.8511 461.06 57.2253C463.006 63.5994 464.914 69.8703 466.782 76.0379C468.639 82.2111 470.544 88.5295 472.496 94.9929C474.448 101.456 476.615 108.598 478.997 116.418H465C463.043 110.072 461.272 104.211 459.688 98.8358C458.104 93.4608 456.581 88.242 455.12 83.1795H424.559C424.431 86.9638 424.386 90.6281 424.425 94.1724C424.464 97.7167 424.523 100.965 424.601 103.918C424.696 106.882 424.849 109.446 425.061 111.612C425.195 113.226 425.424 114.831 425.747 116.418L405.802 116.451ZM454.66 81.84C453.544 78.2398 452.476 74.6704 451.456 71.1317C450.435 67.593 449.353 63.965 448.21 60.2477C447.094 56.5303 445.903 52.7014 444.637 48.7608C443.371 44.8202 442.047 40.6368 440.663 36.2107C440.428 35.2889 439.991 34.431 439.383 33.699C439.076 33.3832 438.703 33.1381 438.291 32.9806C437.88 32.823 437.439 32.7568 436.999 32.7864C434.924 32.7864 433.156 34.2487 431.695 37.1735C430 40.8295 428.777 44.6867 428.056 48.652C427 53.8548 426.235 59.1124 425.764 64.4004C425.206 70.2275 424.841 76.0407 424.668 81.84H454.66Z" fill="#5B1F29"/>
<path fill-rule="evenodd" clip-rule="evenodd" d="M321.289 21.7513C320.034 19.5829 312.638 19.3736 307.903 17.7996C306.497 17.3603 305.149 16.7531 303.887 15.9911C300.223 13.5464 300.692 5.30802 299.303 5.39175C298.349 5.45035 297.939 10.3649 299.796 14.5092C300.415 16.0051 301.49 17.2677 302.867 18.1177C304.686 19.2991 306.7 20.1495 308.815 20.6294C313.659 21.743 322.268 23.4342 321.297 21.7429" fill="#5B1F29"/>
<path fill-rule="evenodd" clip-rule="evenodd" d="M271.921 116.853C271.812 116.56 268.064 115.354 264.525 113.069C261.877 111.247 259.507 109.05 257.489 106.547C254.416 102.53 252.097 97.9884 250.646 93.1424C247.425 82.5262 248.237 63.295 250.797 52.3774C253.591 40.3966 259.941 29.5125 268.039 24.824C273 21.9523 278.413 19.449 281.968 16.1503C287.498 11.018 286.361 1.91727 283.391 0C282.964 3.65872 284.026 7.76116 282.613 10.951C279.944 16.9373 267.838 20.3113 262.534 24.7487C255.088 30.9609 249.241 41.4431 246.681 54.437C244.43 65.8736 243.97 85.1384 247.693 96.0392C250.763 105.014 257.941 114.802 266.767 117.112C268.533 117.573 270.423 117.95 271.929 116.853" fill="#5B1F29"/>
<path fill-rule="evenodd" clip-rule="evenodd" d="M337.996 150.912C340.991 150.912 342.923 148.015 342.923 145.21C342.923 142.405 341.007 139.5 337.996 139.5C334.984 139.5 333.06 142.414 333.06 145.21C333.06 148.006 335.001 150.912 337.996 150.912ZM307.727 150.627H309.785C312.822 150.627 313.968 147.889 313.968 145.21C313.968 142.531 312.831 139.793 309.785 139.793H307.727V150.627ZM188.495 148.651H193.514L191.005 141.66L188.495 148.651ZM173.068 144.666H175.235C175.887 144.666 176.513 144.406 176.974 143.945C177.435 143.483 177.694 142.857 177.694 142.204C177.694 141.551 177.435 140.925 176.974 140.464C176.513 140.002 175.887 139.743 175.235 139.743H173.068V144.666ZM337.996 138.47C339.331 138.469 340.637 138.863 341.748 139.604C342.859 140.345 343.726 141.399 344.238 142.633C344.751 143.867 344.886 145.226 344.627 146.537C344.368 147.848 343.727 149.052 342.784 149.998C341.841 150.944 340.639 151.589 339.329 151.852C338.02 152.114 336.662 151.982 335.428 151.472C334.194 150.962 333.138 150.098 332.395 148.987C331.652 147.877 331.254 146.571 331.253 145.235C331.253 143.444 331.963 141.726 333.227 140.458C334.491 139.189 336.206 138.475 337.996 138.47ZM324.317 138.688V151.782H322.544V138.688H324.317ZM305.912 138.688H310.396C311.106 138.68 311.809 138.829 312.455 139.126C313.1 139.423 313.671 139.859 314.127 140.404C315.125 141.817 315.661 143.505 315.661 145.235C315.661 146.965 315.125 148.653 314.127 150.066C313.671 150.611 313.1 151.047 312.455 151.344C311.809 151.641 311.106 151.791 310.396 151.782H305.912V138.688ZM297.83 147.722V138.688H299.01V147.496C299.018 148.09 298.907 148.679 298.684 149.23C298.46 149.78 298.129 150.281 297.71 150.701C297.29 151.122 296.791 151.454 296.241 151.678C295.692 151.903 295.103 152.015 294.509 152.008C293.895 152.036 293.281 151.941 292.704 151.728C292.127 151.515 291.598 151.189 291.149 150.768C290.7 150.348 290.34 149.842 290.089 149.28C289.839 148.717 289.703 148.111 289.69 147.496V138.688H291.464V147.722C291.451 148.146 291.525 148.568 291.681 148.963C291.837 149.358 292.072 149.716 292.371 150.017C292.67 150.318 293.027 150.555 293.421 150.713C293.814 150.871 294.236 150.947 294.66 150.937C295.504 150.908 296.306 150.56 296.905 149.964C297.504 149.368 297.856 148.567 297.889 147.722H297.83ZM279.509 139.818V151.782H277.727V139.818H273.912V138.688H283.407V139.818H279.509ZM260.367 141.97C260.367 145.227 268.165 143.268 268.165 148.207C268.165 150.618 265.471 152.008 263.329 152.008C261.65 152.025 260.008 151.506 258.644 150.526L258.51 150.426L259.706 149.254L259.807 149.363C260.734 150.314 262.001 150.859 263.329 150.878C264.734 150.878 266.408 150.125 266.408 148.517C266.408 145.034 258.611 146.926 258.611 141.97C258.611 139.701 260.894 138.504 262.927 138.504C264.559 138.471 266.144 139.05 267.37 140.128L267.462 140.228L266.399 141.342L266.299 141.208C265.904 140.725 265.409 140.333 264.849 140.059C264.289 139.784 263.676 139.634 263.053 139.617C262.394 139.585 261.749 139.814 261.257 140.254C260.766 140.695 260.467 141.311 260.426 141.97H260.367ZM240.975 149.095L241.72 149.932L241.619 150.032C240.675 150.983 239.471 151.631 238.159 151.896C236.846 152.161 235.485 152.029 234.247 151.518C233.009 151.008 231.951 150.141 231.206 149.027C230.462 147.914 230.064 146.604 230.064 145.264C230.064 143.925 230.462 142.615 231.206 141.501C231.951 140.388 233.009 139.521 234.247 139.01C235.485 138.5 236.846 138.368 238.159 138.633C239.471 138.897 240.675 139.546 241.619 140.496L241.72 140.597L240.665 141.652L240.565 141.518C240.129 140.934 239.566 140.459 238.917 140.128C238.269 139.797 237.553 139.619 236.825 139.609C233.839 139.609 231.873 142.455 231.873 145.252C231.873 148.048 233.83 150.953 236.825 150.953C237.579 150.979 238.33 150.843 239.027 150.555C239.724 150.266 240.351 149.831 240.866 149.279L240.975 149.095ZM223.072 138.688V151.782H221.415V138.688H223.072ZM213.693 139.818L214.973 151.749H213.216L212.38 143.376L209.502 150.912L209.837 151.749H207.946L204.256 142.121L203.286 151.749H202.173L203.378 139.902L202.901 138.654H204.792L208.866 149.354L213.049 138.688H214.229L213.693 139.818ZM193.849 149.781H188.035L187.315 151.782H186.077L190.319 139.91L189.875 138.688H191.741L196.501 151.749H194.644L193.849 149.781ZM177.218 145.495C177.883 145.957 178.401 146.602 178.707 147.353L180.589 151.749H178.665L176.992 147.655C176.749 147.079 176.343 146.588 175.824 146.241C175.305 145.894 174.696 145.707 174.072 145.704H173.068V151.749H171.311V138.688H175.979C176.801 138.685 177.598 138.97 178.232 139.493C178.866 140.016 179.297 140.745 179.451 141.553C179.605 142.36 179.472 143.197 179.075 143.917C178.677 144.636 178.041 145.195 177.276 145.495H177.218ZM159.055 139.818V144.699H163.815V145.771H159.055V150.652H164.727V151.749H157.298V138.688H164.409V139.818H159.055ZM150.003 149.095L150.747 149.932L150.647 150.032C149.703 150.983 148.499 151.631 147.187 151.896C145.874 152.161 144.513 152.029 143.275 151.518C142.037 151.008 140.979 150.141 140.234 149.027C139.49 147.914 139.092 146.604 139.092 145.264C139.092 143.925 139.49 142.615 140.234 141.501C140.979 140.388 142.037 139.521 143.275 139.01C144.513 138.5 145.874 138.368 147.187 138.633C148.499 138.897 149.703 139.546 150.647 140.496L150.756 140.597L149.702 141.652L149.593 141.518C149.158 140.934 148.594 140.458 147.946 140.127C147.297 139.796 146.581 139.619 145.853 139.609C142.867 139.609 140.909 142.455 140.909 145.252C140.909 148.048 142.867 150.953 145.853 150.953C146.607 150.981 147.359 150.845 148.056 150.556C148.753 150.267 149.38 149.832 149.894 149.279L150.003 149.095Z" fill="#5B1F29"/>
<path d="M150.664 149.915C149.74 150.846 148.561 151.481 147.276 151.74C145.991 151.999 144.658 151.87 143.447 151.37C142.235 150.87 141.199 150.021 140.47 148.931C139.741 147.841 139.352 146.559 139.352 145.248C139.352 143.936 139.741 142.654 140.47 141.564C141.199 140.474 142.235 139.625 143.447 139.125C144.658 138.625 145.991 138.496 147.276 138.755C148.561 139.014 149.74 139.649 150.664 140.58L149.769 141.417C149.33 140.821 148.758 140.334 148.099 139.997C147.439 139.66 146.711 139.481 145.97 139.475C143.21 139.475 140.951 141.986 140.951 145.201C140.951 148.416 143.21 151.012 145.97 151.012C146.754 151.04 147.535 150.897 148.257 150.592C148.98 150.287 149.627 149.827 150.153 149.245L150.664 149.915Z" fill="#5B1F29"/>
<path d="M164.526 138.839V139.726H159.155V144.825H163.957V145.662H159.155V150.761H164.769V151.657H157.499V138.839H164.526Z" fill="#5B1F29"/>
<path d="M176.163 138.839C177.051 138.839 177.902 139.192 178.53 139.82C179.157 140.448 179.51 141.3 179.51 142.188C179.508 142.918 179.271 143.629 178.834 144.214C178.397 144.799 177.783 145.228 177.084 145.436C177.833 145.89 178.419 146.57 178.757 147.379L180.497 151.615H178.748L177.117 147.605C176.863 147.003 176.438 146.49 175.895 146.127C175.353 145.764 174.716 145.567 174.063 145.562H173.06V151.615H171.445V138.839H176.163ZM175.26 144.775C175.941 144.775 176.594 144.504 177.076 144.022C177.558 143.54 177.828 142.886 177.828 142.205C177.828 141.523 177.558 140.869 177.076 140.387C176.594 139.905 175.941 139.634 175.26 139.634H173.068V144.775H175.26Z" fill="#5B1F29"/>
<path d="M191.866 138.839L196.459 151.64H194.736L194.016 149.631H188.06L187.357 151.64H186.336L190.519 139.919L190.135 138.847L191.866 138.839ZM193.699 148.743L191.047 141.359L188.394 148.743H193.699Z" fill="#5B1F29"/>
<path d="M213.769 139.802L214.973 151.64H213.367L212.53 143.142L209.544 150.928L209.82 151.64H208.029L204.189 141.593L203.169 151.64H202.332L203.537 139.919L203.11 138.847H204.85L209.033 149.731L213.216 138.847H214.112L213.769 139.802Z" fill="#5B1F29"/>
<path d="M223.155 151.64H221.524V138.839H223.13L223.155 151.64Z" fill="#5B1F29"/>
<path d="M241.627 149.915C241.015 150.535 240.285 151.026 239.481 151.359C238.676 151.693 237.813 151.862 236.942 151.858C235.19 151.858 233.509 151.161 232.269 149.921C231.03 148.68 230.333 146.998 230.333 145.244C230.333 143.489 231.03 141.807 232.269 140.567C233.509 139.326 235.19 138.629 236.942 138.629C237.814 138.626 238.677 138.797 239.481 139.132C240.286 139.467 241.015 139.96 241.627 140.58L240.741 141.417C240.301 140.821 239.729 140.336 239.07 139.998C238.411 139.661 237.683 139.482 236.942 139.475C234.182 139.475 231.923 141.987 231.923 145.202C231.923 148.417 234.19 151.012 236.942 151.012C237.726 151.04 238.507 150.896 239.229 150.591C239.951 150.286 240.599 149.827 241.125 149.246L241.627 149.915Z" fill="#5B1F29"/>
<path d="M268.081 148.207C268.081 150.284 265.763 151.858 263.387 151.858C261.741 151.881 260.13 151.373 258.794 150.409L259.79 149.43C260.259 149.91 260.818 150.294 261.436 150.558C262.053 150.822 262.716 150.962 263.387 150.97C265.228 150.97 266.466 149.873 266.466 148.517C266.466 145.068 258.811 146.843 258.811 141.97C258.811 140.028 260.735 138.621 262.994 138.621C264.587 138.573 266.137 139.136 267.328 140.195L266.491 141.124C266.104 140.622 265.611 140.212 265.047 139.922C264.483 139.633 263.862 139.472 263.229 139.45C262.885 139.423 262.54 139.465 262.214 139.574C261.888 139.683 261.587 139.857 261.329 140.085C261.071 140.313 260.862 140.591 260.714 140.902C260.566 141.213 260.482 141.551 260.468 141.895C260.426 145.277 268.081 143.435 268.081 148.207Z" fill="#5B1F29"/>
<path d="M274.121 138.839H283.407V139.726H279.567V151.64H277.894V139.726H274.121V138.839Z" fill="#5B1F29"/>
<path d="M298.14 138.839H299.085V147.504C299.094 148.078 298.988 148.649 298.773 149.181C298.557 149.713 298.237 150.197 297.831 150.603C297.425 151.009 296.942 151.329 296.41 151.545C295.879 151.761 295.309 151.867 294.735 151.858C292.158 151.858 289.916 150.133 289.916 147.504V138.839H291.547V147.722C291.525 148.163 291.595 148.605 291.752 149.018C291.909 149.431 292.15 149.807 292.46 150.121C292.77 150.436 293.142 150.683 293.552 150.847C293.963 151.01 294.402 151.087 294.844 151.071C295.715 151.035 296.54 150.669 297.152 150.047C297.764 149.426 298.117 148.594 298.14 147.722V138.839Z" fill="#5B1F29"/>
<path d="M310.597 138.839C313.433 138.839 315.717 141.141 315.717 145.235C315.717 149.329 313.433 151.64 310.597 151.64H306.113V138.839H310.597ZM309.819 150.744C312.27 150.744 314.102 148.928 314.102 145.235C314.102 141.543 312.27 139.726 309.819 139.726H307.727V150.744H309.819Z" fill="#5B1F29"/>
<path d="M324.367 151.64H322.736V138.839H324.317L324.367 151.64Z" fill="#5B1F29"/>
<path d="M344.613 145.235C344.612 146.543 344.223 147.82 343.496 148.907C342.769 149.993 341.737 150.84 340.529 151.339C339.322 151.839 337.994 151.969 336.713 151.714C335.431 151.458 334.254 150.828 333.331 149.904C332.407 148.979 331.778 147.802 331.522 146.519C331.267 145.237 331.397 143.908 331.896 142.7C332.396 141.491 333.241 140.458 334.327 139.731C335.413 139.004 336.689 138.614 337.996 138.613C338.865 138.612 339.726 138.782 340.529 139.115C341.333 139.447 342.063 139.935 342.677 140.55C343.292 141.165 343.78 141.896 344.112 142.7C344.444 143.504 344.614 144.365 344.613 145.235ZM342.94 145.235C342.94 142.029 340.74 139.375 337.996 139.375C335.252 139.375 333.043 141.995 333.043 145.235C333.043 148.475 335.268 151.046 337.996 151.046C340.723 151.046 342.94 148.4 342.94 145.235Z" fill="#5B1F29"/>
<path d="M122.295 145.704H1.42224V146.123H122.295V145.704Z" fill="#5B1F29"/>
<path d="M482.008 145.704H361.136V146.123H482.008V145.704Z" fill="#5B1F29"/>
</g>
<defs>
<clipPath id="clip0_68_139">
<rect width="482" height="152" fill="white"/>
</clipPath>
</defs>
</svg>
