<svg width="320" height="100" viewBox="0 0 320 100" fill="none" xmlns="http://www.w3.org/2000/svg">
<g clip-path="url(#clip0_214_25)">
<path d="M6.59284 19.5869C7.89678 19.5869 9.17144 19.9704 10.2556 20.6888C11.3398 21.4072 12.1848 22.4283 12.6838 23.623C13.1828 24.8177 13.3134 26.1323 13.059 27.4006C12.8046 28.6689 12.1767 29.8339 11.2547 30.7482C10.3327 31.6626 9.15793 32.2853 7.87904 32.5376C6.60016 32.7899 5.27456 32.6604 4.06987 32.1655C2.86519 31.6707 1.83553 30.8327 1.1111 29.7575C0.386665 28.6823 0 27.4182 0 26.1251C0 24.391 0.694603 22.728 1.931 21.5019C3.1674 20.2758 4.84431 19.5869 6.59284 19.5869Z" fill="white"/>
<path d="M6.59285 41.366C7.89702 41.366 9.1719 41.7496 10.2562 42.4682C11.3405 43.1869 12.1855 44.2083 12.6844 45.4033C13.1832 46.5984 13.3134 47.9132 13.0586 49.1817C12.8038 50.4501 12.1753 51.6151 11.2527 52.5292C10.3301 53.4434 9.15489 54.0656 7.87564 54.3173C6.59639 54.5689 5.27061 54.4387 4.06602 53.943C2.86144 53.4473 1.83216 52.6084 1.1084 51.5325C0.384636 50.4566 -0.00109638 49.192 2.34066e-06 47.8986C2.03299e-06 47.0403 0.170573 46.1903 0.501962 45.3974C0.833352 44.6045 1.31906 43.8841 1.93134 43.2774C2.54361 42.6707 3.27045 42.1896 4.0703 41.8616C4.87014 41.5337 5.72732 41.3652 6.59285 41.366Z" fill="white"/>
<path d="M6.59284 61.8286C7.89679 61.8286 9.17144 62.2121 10.2556 62.9305C11.3398 63.6489 12.1848 64.67 12.6838 65.8647C13.1828 67.0594 13.3134 68.374 13.059 69.6423C12.8046 70.9106 12.1767 72.0756 11.2547 72.9899C10.3327 73.9043 9.15793 74.527 7.87904 74.7793C6.60016 75.0316 5.27456 74.9021 4.06988 74.4072C2.86519 73.9124 1.83553 73.0744 1.1111 71.9992C0.386667 70.924 2.34376e-06 69.6599 2.34376e-06 68.3668C-0.000728141 67.508 0.169302 66.6574 0.500365 65.8639C0.831427 65.0703 1.31703 64.3493 1.92938 63.742C2.54172 63.1347 3.2688 62.6531 4.06901 62.3248C4.86922 61.9965 5.72686 61.8279 6.59284 61.8286Z" fill="white"/>
<path d="M35.1359 16.3757V75.7092C37.8997 75.7011 40.6563 75.4281 43.3672 74.894C46.0865 74.3776 48.7664 73.6745 51.3875 72.7899C53.7361 72.001 56.02 71.0343 58.2192 69.8982C59.8915 69.0816 61.4275 68.0153 62.7736 66.7365V76.6126H26.3325V16.3757H35.1359Z" fill="white"/>
<path d="M68.7888 76.6126C70.3662 71.4717 71.8029 66.7733 73.0989 62.5173C74.3949 58.2614 75.6705 54.1046 76.9257 50.0469C78.181 46.0076 79.4473 41.8821 80.7248 37.6702C82.0023 33.4583 83.4093 28.8498 84.946 23.8448C85.2639 22.8126 85.6594 21.8055 86.129 20.8319C86.5771 19.8979 87.1487 19.0273 87.8286 18.243C88.4738 17.4984 89.2585 16.8848 90.1392 16.4364C91.0584 16.0011 92.0642 15.7751 93.0829 15.7751C94.1016 15.7751 95.1074 16.0011 96.0266 16.4364C96.9073 16.8848 97.692 17.4984 98.3372 18.243C99.0171 19.0273 99.5887 19.8979 100.037 20.8319C100.506 21.8055 100.902 22.8126 101.22 23.8448C102.76 28.8682 104.178 33.4767 105.474 37.6702C106.77 41.8637 108.035 45.9893 109.268 50.0469C110.508 54.1083 111.775 58.2651 113.067 62.5173C114.359 66.7696 115.796 71.468 117.377 76.6126H108.085C106.793 72.4375 105.619 68.5818 104.563 65.0456C103.508 61.5093 102.495 58.076 101.525 54.7454H81.2413C81.1562 57.2351 81.1247 59.6458 81.1469 61.9775C81.1691 64.3093 81.2099 66.4465 81.2691 68.389C81.3321 70.3389 81.4339 72.0262 81.5746 73.451C81.6581 74.5134 81.8103 75.5695 82.03 76.6126H68.7888ZM101.22 53.842C100.479 51.4735 99.772 49.1252 99.0981 46.7971C98.4242 44.469 97.704 42.0822 96.9375 39.6366C96.197 37.191 95.4083 34.6719 94.5714 32.0794C93.7346 29.4869 92.8533 26.7347 91.9276 23.8228C91.7762 23.2145 91.4854 22.649 91.0778 22.1703C90.8748 21.9624 90.6285 21.801 90.356 21.6973C90.0836 21.5936 89.7916 21.5501 89.5004 21.5699C88.123 21.5699 86.9474 22.532 85.9735 24.4562C84.8532 26.8471 84.0379 29.3673 83.5463 31.9583C82.8374 35.3969 82.3256 38.8726 82.0134 42.3686C81.6431 46.2023 81.3987 50.0267 81.2802 53.842H101.22Z" fill="white"/>
<path d="M146.292 15.7752C147.856 15.7737 149.416 15.9455 150.941 16.2874C152.404 16.6092 153.828 17.0837 155.19 17.703C156.427 18.2562 157.599 18.9434 158.684 19.752C159.603 20.4214 160.403 21.2387 161.05 22.1701L155.101 29.215C152.714 26.441 149.817 24.1419 146.564 22.44C143.478 20.7763 140.024 19.8964 136.511 19.8787C134.561 19.8494 132.64 20.3504 130.957 21.3273C129.27 22.3325 127.852 23.727 126.825 25.3923C125.634 27.3171 124.773 29.4239 124.275 31.6275C123.664 34.2329 123.368 36.901 123.392 39.5758C123.373 43.2611 123.84 46.9331 124.781 50.4984C125.611 53.7553 126.985 56.8515 128.846 59.6584C130.562 62.2261 132.841 64.3764 135.512 65.9487C138.297 67.5472 141.47 68.3605 144.687 68.3006C146.861 68.3639 149.028 68.0469 151.091 67.3642C152.543 66.8655 153.907 66.1444 155.135 65.2271C156.264 64.4279 157.21 63.4012 157.912 62.2141L162.772 69.9255C161.442 71.3488 159.905 72.5667 158.212 73.5389C156.379 74.5933 154.434 75.4431 152.413 76.0726C149.727 76.884 146.928 77.2688 144.121 77.2128C140.257 77.2954 136.435 76.4047 133.012 74.624C129.848 72.9292 127.107 70.5519 124.992 67.6672C122.786 64.6296 121.151 61.2225 120.165 57.6093C119.082 53.7353 118.54 49.7321 118.555 45.7118C118.515 41.6584 119.163 37.6272 120.471 33.7867C121.646 30.2977 123.503 27.0727 125.936 24.2962C128.34 21.5973 131.316 19.4587 134.651 18.0335C138.328 16.4766 142.295 15.707 146.292 15.7752Z" fill="white"/>
<path d="M223.09 16.3758H253.888C255.389 16.3416 256.876 16.6626 258.226 17.3121C259.41 17.8904 260.457 18.7107 261.298 19.7192C262.104 20.7008 262.722 21.821 263.119 23.0241C263.519 24.2179 263.724 25.4676 263.725 26.7255C263.791 28.8783 263.277 31.0097 262.236 32.9001C261.278 34.565 260.012 36.0357 258.504 37.235C257.022 38.4123 255.399 39.4039 253.672 40.1874C251.95 40.9695 250.339 41.658 248.845 42.2364C247.351 42.8148 246.101 43.338 245.107 43.8613C244.113 44.3846 243.619 44.9189 243.619 45.5137C243.619 46.1086 244.085 47.4306 245.018 49.2207C245.951 51.0108 247.134 53.0433 248.573 55.3347C250.011 57.6261 251.606 59.9946 253.372 62.4402C255.138 64.8858 256.849 67.1386 258.532 69.1876C259.969 70.9729 261.522 72.6638 263.18 74.2496C264.599 75.5716 265.671 76.2325 266.396 76.2325V76.5961H256.399C255.677 76.6088 254.956 76.5591 254.244 76.4474C253.71 76.3533 253.202 76.1467 252.755 75.8415C252.223 75.4616 251.761 74.9939 251.389 74.4589C250.922 73.8383 250.284 73.025 249.473 72.0188C248.177 70.3664 246.775 68.4551 245.268 66.2849C243.761 64.1147 242.363 61.9445 241.075 59.7743C239.801 57.6334 238.729 55.6469 237.859 53.8145C236.989 51.9821 236.554 50.5867 236.554 49.6283C236.568 49.1223 236.699 48.6263 236.936 48.1778C237.173 47.7292 237.509 47.34 237.92 47.0395C238.98 46.1744 240.118 45.4074 241.319 44.7481C242.674 43.988 244.143 43.1342 245.724 42.1868C247.323 41.2295 248.801 40.0868 250.128 38.7828C251.527 37.4005 252.676 35.7909 253.527 34.0238C254.495 31.9092 254.962 29.6031 254.894 27.2818C254.902 25.9457 254.715 24.6154 254.338 23.3325C253.997 22.153 253.396 21.0635 252.578 20.1433C251.717 19.206 250.646 18.4832 249.45 18.0337C247.983 17.4987 246.426 17.2427 244.863 17.2791H231.866V76.6126H223.09V16.3758Z" fill="white"/>
<path d="M269.412 76.6126C270.99 71.4717 272.428 66.7733 273.728 62.5173C275.028 58.2614 276.303 54.1046 277.555 50.0469C278.806 46.0077 280.071 41.8821 281.348 37.6702C282.626 33.4583 284.033 28.8499 285.569 23.8448C285.887 22.8126 286.283 21.8055 286.753 20.8319C287.2 19.8966 287.774 19.0257 288.458 18.243C289.101 17.4986 289.884 16.885 290.763 16.4364C291.683 16.0014 292.69 15.7756 293.709 15.7756C294.729 15.7756 295.735 16.0014 296.656 16.4364C297.535 16.885 298.317 17.4986 298.961 18.243C299.644 19.0257 300.218 19.8966 300.666 20.8319C301.13 21.8004 301.525 22.7998 301.849 23.8228C303.389 28.8462 304.806 33.4547 306.098 37.6482C307.39 41.8417 308.656 45.9673 309.897 50.0249C311.13 54.0863 312.394 58.243 313.69 62.4953C314.986 66.7476 316.425 71.446 318.006 76.5906H308.714C307.414 72.4154 306.239 68.5598 305.187 65.0235C304.135 61.4873 303.124 58.0539 302.154 54.7234H281.865C281.78 57.213 281.75 59.6238 281.776 61.9555C281.802 64.2873 281.841 66.4244 281.893 68.367C281.956 70.3169 282.057 72.0042 282.198 73.4289C282.287 74.4908 282.439 75.5465 282.653 76.5906L269.412 76.6126ZM301.849 53.8421C301.108 51.4736 300.399 49.1253 299.722 46.7972C299.044 44.4691 298.326 42.0822 297.567 39.6366C296.826 37.191 296.035 34.6719 295.195 32.0795C294.354 29.487 293.475 26.7347 292.557 23.8228C292.4 23.2163 292.11 22.6519 291.707 22.1703C291.503 21.9626 291.255 21.8014 290.982 21.6977C290.709 21.5941 290.416 21.5505 290.124 21.57C288.746 21.57 287.573 22.532 286.603 24.4562C285.477 26.8615 284.665 29.3991 284.186 32.0078C283.486 35.4308 282.978 38.8897 282.665 42.3686C282.294 46.2023 282.052 50.0268 281.937 53.8421H301.849Z" fill="white"/>
<g filter="url(#filter0_d_214_25)">
<path d="M185.649 44.9299C187.503 44.9086 189.352 45.1309 191.148 45.5909C192.786 46.0315 194.319 46.5162 195.736 47.0395C197.152 47.5628 198.513 48.042 199.862 48.4826C201.195 48.9223 202.59 49.1456 203.995 49.1436C204.642 49.1544 205.281 48.9988 205.85 48.6919C206.114 48.5492 206.332 48.3342 206.476 48.0726C206.621 47.8109 206.687 47.5135 206.666 47.2158C206.666 46.3345 206.091 45.5413 204.939 44.8362C203.59 44.0511 202.152 43.4244 200.657 42.969C198.95 42.4292 197.117 41.9371 195.158 41.4928C193.192 41.0522 191.403 40.6336 189.782 40.2315C187.632 39.6806 185.533 39.1739 183.466 38.6341C181.536 38.1439 179.671 37.4264 177.912 36.497C176.343 35.6733 174.99 34.496 173.963 33.0599C172.911 31.4506 172.391 29.5561 172.475 27.6399C172.535 26.4647 172.814 25.3107 173.297 24.2359C173.991 22.6984 175.055 21.3536 176.396 20.3196C178.289 18.8628 180.44 17.77 182.739 17.0973C185.457 16.216 189 15.7754 193.37 15.7754C194.953 15.7754 196.702 15.847 198.685 15.9847C200.668 16.1224 202.606 16.3592 204.55 16.6787C206.377 16.973 208.182 17.3852 209.954 17.9125C211.362 18.289 212.682 18.9324 213.842 19.8073L211.349 28.8462C210.285 28.1116 209.131 27.5138 207.916 27.067C206.391 26.485 204.828 26.0029 203.239 25.6239C201.439 25.1863 199.614 24.8534 197.774 24.6269C195.851 24.389 193.914 24.2695 191.975 24.2689C187.532 24.2689 184.313 24.7903 182.317 25.8332C181.405 26.2503 180.637 26.9236 180.108 27.7696C179.579 28.6156 179.312 29.5971 179.34 30.5922C179.319 31.4832 179.523 32.3653 179.931 33.1593C180.339 33.9534 180.939 34.6346 181.678 35.1419C183.467 36.399 185.447 37.3641 187.543 38.0007C190.057 38.8049 192.612 39.4778 195.197 40.0166C197.787 40.5618 200.343 41.257 202.851 42.0987C204.962 42.7705 206.951 43.7768 208.738 45.0786C209.491 45.6291 210.098 46.3529 210.506 47.1878C210.915 48.0226 211.112 48.9433 211.082 49.8707C211.096 50.9219 210.866 51.9623 210.41 52.9112C209.984 53.7894 209.386 54.5741 208.649 55.2191C207.887 55.8709 207.012 56.3804 206.066 56.7228C205.093 57.0849 204.067 57.2895 203.028 57.3287C200.915 57.3835 198.806 57.1179 196.774 56.541C194.83 55.9792 192.947 55.3568 191.126 54.6738C189.304 53.9908 187.48 53.3481 185.655 52.7459C183.813 52.1412 181.885 51.8361 179.945 51.8426C177.194 51.8426 175.2 52.2851 173.963 53.17C173.369 53.5796 172.888 54.1307 172.565 54.7727C172.242 55.4146 172.087 56.1269 172.114 56.844C172.087 57.8735 172.275 58.8974 172.667 59.8511C173.059 60.8049 173.646 61.6677 174.391 62.3851C176.111 63.9952 178.161 65.2182 180.401 65.9709C183.171 66.9383 186.045 67.5852 188.965 67.8988C192.262 68.2767 195.578 68.4606 198.896 68.4496C201.419 68.4613 203.939 68.2604 206.428 67.8492C208.947 67.4035 211.298 66.29 213.231 64.6269L209.588 75.0924C208.033 75.8325 206.391 76.3783 204.7 76.7173C202.869 77.0536 201.009 77.2141 199.146 77.1965C195.599 77.1983 192.062 76.8291 188.593 76.0948C185.406 75.4541 182.362 74.2487 179.606 72.5366C177.037 70.9174 174.901 68.7065 173.38 66.0921C171.821 63.4445 171.042 60.1929 171.042 56.3372C170.995 54.5946 171.376 52.8668 172.153 51.3028C172.891 49.8944 173.953 48.6775 175.252 47.75C176.657 46.7656 178.23 46.0415 179.895 45.6129C181.774 45.1347 183.709 44.9051 185.649 44.9299Z" fill="white"/>
<path fill-rule="evenodd" clip-rule="evenodd" d="M213.304 14.3102C212.471 12.8836 207.561 12.7459 204.417 11.7103C203.483 11.4213 202.588 11.0219 201.751 10.5206C199.318 8.91221 199.629 3.49221 198.707 3.54729C198.074 3.58585 197.802 6.81911 199.035 9.54563C199.446 10.5298 200.159 11.3604 201.073 11.9196C202.281 12.6969 203.618 13.2563 205.022 13.5721C208.238 14.3047 213.954 15.4173 213.309 14.3047" fill="white"/>
<path fill-rule="evenodd" clip-rule="evenodd" d="M180.528 76.8769C180.456 76.6841 177.968 75.8909 175.618 74.3872C173.86 73.1887 172.287 71.7434 170.947 70.0964C168.907 67.4541 167.367 64.466 166.404 61.2779C164.266 54.2936 164.804 41.6414 166.504 34.4588C168.359 26.5767 172.575 19.4161 177.951 16.3316C181.245 14.4423 184.838 12.7954 187.199 10.6252C190.87 7.2487 190.115 1.26136 188.143 0C187.86 2.40705 188.565 5.10602 187.627 7.20462C185.855 11.1429 177.818 13.3627 174.296 16.282C169.353 20.369 165.471 27.2652 163.771 35.8138C162.277 43.3379 161.972 56.0121 164.443 63.1837C166.482 69.0884 171.247 75.5274 177.107 77.0477C178.279 77.3506 179.534 77.5985 180.534 76.8769" fill="white"/>
</g>
<path fill-rule="evenodd" clip-rule="evenodd" d="M224.395 99.2839C226.384 99.2839 227.667 97.3781 227.667 95.5329C227.667 93.6877 226.395 91.7764 224.395 91.7764C222.396 91.7764 221.118 93.6932 221.118 95.5329C221.118 97.3726 222.407 99.2839 224.395 99.2839ZM204.3 99.0967H205.667C207.683 99.0967 208.444 97.2955 208.444 95.5329C208.444 93.7703 207.688 91.9692 205.667 91.9692H204.3V99.0967ZM125.142 97.7967H128.474L126.808 93.1975L125.142 97.7967ZM114.9 95.1749H116.338C116.771 95.1749 117.187 95.0043 117.493 94.7006C117.799 94.3969 117.971 93.985 117.971 93.5555C117.971 93.126 117.799 92.7141 117.493 92.4104C117.187 92.1067 116.771 91.9361 116.338 91.9361H114.9V95.1749ZM224.395 91.0989C225.282 91.0978 226.149 91.3574 226.887 91.8449C227.624 92.3325 228.2 93.026 228.54 93.8378C228.88 94.6496 228.97 95.5432 228.798 96.4057C228.626 97.2682 228.2 98.0607 227.574 98.6832C226.948 99.3056 226.15 99.7299 225.281 99.9025C224.412 100.075 223.51 99.9882 222.691 99.6527C221.871 99.3173 221.171 98.7484 220.677 98.018C220.184 97.2877 219.92 96.4286 219.919 95.5494C219.919 94.371 220.39 93.2406 221.229 92.4063C222.069 91.572 223.207 91.1018 224.395 91.0989ZM215.314 91.2421V99.8568H214.137V91.2421H215.314ZM203.095 91.2421H206.072C206.544 91.2366 207.01 91.335 207.439 91.5303C207.867 91.7256 208.247 92.0128 208.549 92.3713C209.212 93.3009 209.567 94.4112 209.567 95.5494C209.567 96.6877 209.212 97.798 208.549 98.7276C208.247 99.0861 207.867 99.3733 207.439 99.5686C207.01 99.7639 206.544 99.8623 206.072 99.8568H203.095V91.2421ZM197.73 97.1854V91.2421H198.513V97.0366C198.518 97.4275 198.444 97.8154 198.296 98.1776C198.148 98.5398 197.928 98.8689 197.65 99.1455C197.371 99.4222 197.04 99.6408 196.675 99.7885C196.31 99.9362 195.919 100.01 195.525 100.006C195.117 100.024 194.709 99.9613 194.326 99.8212C193.943 99.6811 193.592 99.4664 193.294 99.1897C192.996 98.9131 192.757 98.58 192.59 98.2103C192.424 97.8405 192.334 97.4415 192.325 97.0366V91.2421H193.503V97.1854C193.495 97.4644 193.544 97.7423 193.647 98.0019C193.751 98.2616 193.906 98.4976 194.105 98.6955C194.304 98.8935 194.541 99.0492 194.802 99.1532C195.063 99.2572 195.343 99.3073 195.625 99.3005C196.185 99.2814 196.718 99.0528 197.116 98.6605C197.513 98.2682 197.747 97.7412 197.769 97.1854H197.73ZM185.566 91.9857V99.8568H184.383V91.9857H181.85V91.2421H188.154V91.9857H185.566ZM172.858 93.4013C172.858 95.5439 178.035 94.255 178.035 97.5048C178.035 99.0912 176.246 100.006 174.824 100.006C173.709 100.017 172.62 99.6753 171.714 99.0306L171.625 98.9645L172.419 98.1933L172.486 98.2649C173.102 98.891 173.942 99.2495 174.824 99.2619C175.757 99.2619 176.868 98.7662 176.868 97.7086C176.868 95.4172 171.692 96.6621 171.692 93.4013C171.692 91.9086 173.208 91.1209 174.558 91.1209C175.641 91.0994 176.693 91.4805 177.507 92.1895L177.568 92.2556L176.863 92.9882L176.796 92.9C176.534 92.5823 176.205 92.3244 175.833 92.1438C175.462 91.9632 175.055 91.8642 174.641 91.8535C174.203 91.8324 173.775 91.9829 173.449 92.2726C173.122 92.5623 172.924 92.9677 172.897 93.4013H172.858ZM159.983 98.0887L160.478 98.6395L160.411 98.7056C159.785 99.3309 158.985 99.7576 158.114 99.9316C157.242 100.106 156.338 100.019 155.517 99.6832C154.695 99.3472 153.992 98.7768 153.498 98.0443C153.004 97.3118 152.74 96.4502 152.74 95.5687C152.74 94.6873 153.004 93.8256 153.498 93.0931C153.992 92.3606 154.695 91.7902 155.517 91.4542C156.338 91.1182 157.242 91.0317 158.114 91.2058C158.985 91.3798 159.785 91.8065 160.411 92.4318L160.478 92.4979L159.778 93.192L159.711 93.1038C159.422 92.7199 159.048 92.407 158.617 92.1893C158.187 91.9715 157.712 91.8548 157.228 91.848C155.246 91.848 153.94 93.7207 153.94 95.5604C153.94 97.4002 155.24 99.3115 157.228 99.3115C157.729 99.3286 158.227 99.2392 158.69 99.0491C159.153 98.8591 159.569 98.5729 159.911 98.2099L159.983 98.0887ZM148.097 91.2421V99.8568H146.998V91.2421H148.097ZM141.871 91.9857L142.721 99.8348H141.555L140.999 94.3266L139.088 99.2839L139.311 99.8348H138.055L135.606 93.5004L134.962 99.8348H134.223L135.023 92.0408L134.706 91.22H135.961L138.666 98.2594L141.443 91.2421H142.227L141.871 91.9857ZM128.697 98.5403H124.836L124.359 99.8568H123.537L126.353 92.0463L126.058 91.2421H127.297L130.457 99.8348H129.224L128.697 98.5403ZM117.655 95.7202C118.097 96.0242 118.44 96.449 118.643 96.943L119.893 99.8348H118.616L117.505 97.1413C117.344 96.7627 117.074 96.4392 116.73 96.2111C116.385 95.9829 115.981 95.8601 115.566 95.8579H114.9V99.8348H113.733V91.2421H116.833C117.378 91.2402 117.907 91.4276 118.328 91.7717C118.749 92.1159 119.036 92.5952 119.138 93.1267C119.24 93.6582 119.152 94.2083 118.888 94.682C118.624 95.1556 118.202 95.5229 117.694 95.7202H117.655ZM105.597 91.9857V95.1969H108.757V95.9019H105.597V99.1132H109.362V99.8348H104.43V91.2421H109.151V91.9857H105.597ZM99.5869 98.0887L100.081 98.6395L100.015 98.7056C99.3881 99.3309 98.5885 99.7576 97.7172 99.9316C96.8459 100.106 95.942 100.019 95.1203 99.6832C94.2986 99.3472 93.596 98.7768 93.1016 98.0443C92.6072 97.3118 92.3433 96.4502 92.3433 95.5687C92.3433 94.6873 92.6072 93.8256 93.1016 93.0931C93.596 92.3606 94.2986 91.7902 95.1203 91.4542C95.942 91.1182 96.8459 91.0317 97.7172 91.2058C98.5885 91.3798 99.3881 91.8065 100.015 92.4318L100.087 92.4979L99.387 93.192L99.3148 93.1038C99.0259 92.7196 98.6517 92.4065 98.2211 92.1887C97.7906 91.9709 97.3153 91.8543 96.832 91.848C94.8492 91.848 93.5495 93.7207 93.5495 95.5604C93.5495 97.4002 94.8492 99.3115 96.832 99.3115C97.3327 99.3293 97.8314 99.2402 98.2943 99.0502C98.7571 98.8601 99.1734 98.5735 99.5147 98.2099L99.5869 98.0887Z" fill="white"/>
<path d="M100.026 98.6284C99.4124 99.2405 98.6296 99.6583 97.7766 99.8287C96.9236 99.9991 96.0388 99.9145 95.2343 99.5856C94.4299 99.2567 93.742 98.6982 93.258 97.9811C92.774 97.264 92.5156 96.4205 92.5156 95.5576C92.5156 94.6947 92.774 93.8512 93.258 93.1341C93.742 92.417 94.4299 91.8586 95.2343 91.5296C96.0388 91.2007 96.9236 91.1161 97.7766 91.2865C98.6296 91.4569 99.4124 91.8747 100.026 92.4868L99.4314 93.0376C99.1399 92.6451 98.7603 92.3253 98.3227 92.1035C97.885 91.8817 97.4013 91.764 96.9098 91.7598C95.0769 91.7598 93.5772 93.4122 93.5772 95.5273C93.5772 97.6424 95.0769 99.35 96.9098 99.35C97.4301 99.3687 97.9483 99.2744 98.428 99.0736C98.9077 98.8729 99.3374 98.5705 99.6869 98.1877L100.026 98.6284Z" fill="white"/>
<path d="M109.229 91.3413V91.9252H105.663V95.2796H108.851V95.8304H105.663V99.1849H109.39V99.7743H104.563V91.3413H109.229Z" fill="white"/>
<path d="M116.955 91.3413C117.544 91.3413 118.109 91.5735 118.526 91.9866C118.943 92.3998 119.177 92.9602 119.177 93.5446C119.175 94.0251 119.018 94.4925 118.728 94.8775C118.438 95.2624 118.03 95.5444 117.566 95.6817C118.064 95.9799 118.453 96.4275 118.677 96.9596L119.832 99.7467H118.671L117.588 97.1083C117.419 96.7127 117.137 96.3746 116.777 96.1358C116.417 95.897 115.994 95.7679 115.561 95.7643H114.894V99.7467H113.822V91.3413H116.955ZM116.355 95.2466C116.807 95.2466 117.241 95.0684 117.561 94.7513C117.881 94.4342 118.06 94.0041 118.06 93.5556C118.06 93.1071 117.881 92.677 117.561 92.3599C117.241 92.0427 116.807 91.8646 116.355 91.8646H114.9V95.2466H116.355Z" fill="white"/>
<path d="M127.38 91.3413L130.429 99.7632H129.285L128.808 98.4413H124.853L124.386 99.7632H123.709L126.486 92.0519L126.23 91.3468L127.38 91.3413ZM128.596 97.8574L126.836 92.9993L125.075 97.8574H128.596Z" fill="white"/>
<path d="M141.921 91.9746L142.721 99.7631H141.654L141.099 94.1724L139.116 99.2949L139.299 99.7631H138.111L135.561 93.1533L134.884 99.7631H134.328L135.128 92.0517L134.845 91.3467H136L138.777 98.5072L141.554 91.3467H142.149L141.921 91.9746Z" fill="white"/>
<path d="M148.153 99.7632H147.07V91.3413H148.136L148.153 99.7632Z" fill="white"/>
<path d="M160.417 98.6284C160.01 99.0359 159.525 99.3589 158.991 99.5783C158.457 99.7978 157.884 99.9092 157.306 99.9062C156.142 99.9062 155.026 99.4478 154.204 98.6317C153.381 97.8157 152.918 96.7089 152.918 95.5548C152.918 94.4008 153.381 93.294 154.204 92.4779C155.026 91.6619 156.142 91.2034 157.306 91.2034C157.885 91.2014 158.458 91.3139 158.992 91.5343C159.526 91.7547 160.01 92.0785 160.417 92.4868L159.828 93.0376C159.536 92.6454 159.156 92.3258 158.719 92.1041C158.281 91.8823 157.798 91.7644 157.306 91.7597C155.473 91.7597 153.974 93.4122 153.974 95.5273C153.974 97.6424 155.479 99.3499 157.306 99.3499C157.827 99.3683 158.345 99.2738 158.824 99.0731C159.304 98.8723 159.734 98.5702 160.083 98.1877L160.417 98.6284Z" fill="white"/>
<path d="M177.979 97.505C177.979 98.871 176.44 99.9065 174.863 99.9065C173.77 99.9221 172.701 99.5879 171.814 98.9536L172.475 98.3091C172.786 98.6253 173.157 98.8776 173.567 99.0515C173.977 99.2254 174.417 99.3175 174.863 99.3226C176.085 99.3226 176.907 98.6011 176.907 97.7088C176.907 95.4394 171.825 96.6071 171.825 93.4014C171.825 92.1235 173.102 91.1982 174.602 91.1982C175.659 91.1665 176.688 91.537 177.479 92.2337L176.924 92.8451C176.667 92.5148 176.339 92.2448 175.965 92.0543C175.59 91.8639 175.178 91.7578 174.758 91.7435C174.53 91.7255 174.301 91.7532 174.084 91.825C173.867 91.8968 173.667 92.0112 173.496 92.1614C173.325 92.3115 173.186 92.4943 173.088 92.6988C172.99 92.9034 172.934 93.1255 172.925 93.3518C172.897 95.5771 177.979 94.3653 177.979 97.505Z" fill="white"/>
<path d="M181.989 91.3413H188.154V91.9252H185.605V99.7632H184.494V91.9252H181.989V91.3413Z" fill="white"/>
<path d="M197.935 91.3413H198.563V97.0422C198.569 97.42 198.498 97.7951 198.355 98.1453C198.212 98.4955 198 98.8136 197.73 99.0808C197.461 99.348 197.14 99.5587 196.787 99.7006C196.434 99.8424 196.056 99.9124 195.675 99.9065C193.964 99.9065 192.475 98.7718 192.475 97.0422V91.3413H193.559V97.1854C193.544 97.4758 193.59 97.7661 193.694 98.0379C193.799 98.3096 193.959 98.5569 194.164 98.7641C194.37 98.9712 194.617 99.1337 194.889 99.2413C195.162 99.3488 195.454 99.399 195.747 99.3887C196.325 99.3651 196.873 99.1245 197.28 98.7154C197.686 98.3063 197.92 97.7594 197.935 97.1854V91.3413Z" fill="white"/>
<path d="M206.205 91.3413C208.088 91.3413 209.605 92.8561 209.605 95.5495C209.605 98.243 208.088 99.7632 206.205 99.7632H203.228V91.3413H206.205ZM205.689 99.1739C207.316 99.1739 208.533 97.9786 208.533 95.5495C208.533 93.1204 207.316 91.9252 205.689 91.9252H204.3V99.1739H205.689Z" fill="white"/>
<path d="M215.348 99.7632H214.265V91.3413H215.314L215.348 99.7632Z" fill="white"/>
<path d="M228.789 95.5496C228.788 96.4097 228.53 97.2503 228.047 97.965C227.564 98.6797 226.879 99.2366 226.078 99.5653C225.276 99.894 224.394 99.9797 223.544 99.8116C222.693 99.6435 221.912 99.2292 221.298 98.621C220.685 98.0127 220.267 97.2379 220.098 96.3943C219.928 95.5507 220.015 94.6763 220.346 93.8814C220.678 93.0865 221.239 92.4068 221.96 91.9283C222.681 91.4497 223.528 91.1937 224.395 91.1926C224.973 91.1919 225.544 91.3041 226.078 91.5228C226.611 91.7415 227.096 92.0624 227.504 92.4671C227.912 92.8718 228.235 93.3524 228.456 93.8814C228.676 94.4103 228.79 94.9772 228.789 95.5496ZM227.678 95.5496C227.678 93.4399 226.217 91.6939 224.395 91.6939C222.574 91.6939 221.107 93.4179 221.107 95.5496C221.107 97.6812 222.585 99.3722 224.395 99.3722C226.206 99.3722 227.678 97.6316 227.678 95.5496Z" fill="white"/>
<path d="M81.1914 95.8579H0.944214V96.1333H81.1914V95.8579Z" fill="white"/>
<path d="M320.006 95.8579H239.758V96.1333H320.006V95.8579Z" fill="white"/>
</g>
<defs>
<filter id="filter0_d_214_25" x="158.617" y="0" width="59.2255" height="85.3469" filterUnits="userSpaceOnUse" color-interpolation-filters="sRGB">
<feFlood flood-opacity="0" result="BackgroundImageFix"/>
<feColorMatrix in="SourceAlpha" type="matrix" values="0 0 0 0 0 0 0 0 0 0 0 0 0 0 0 0 0 0 127 0" result="hardAlpha"/>
<feOffset dy="4"/>
<feGaussianBlur stdDeviation="2"/>
<feComposite in2="hardAlpha" operator="out"/>
<feColorMatrix type="matrix" values="0 0 0 0 0 0 0 0 0 0 0 0 0 0 0 0 0 0 0.25 0"/>
<feBlend mode="normal" in2="BackgroundImageFix" result="effect1_dropShadow_214_25"/>
<feBlend mode="normal" in="SourceGraphic" in2="effect1_dropShadow_214_25" result="shape"/>
</filter>
<clipPath id="clip0_214_25">
<rect width="320" height="100" fill="white"/>
</clipPath>
</defs>
</svg>
