<svg width="74" height="117" viewBox="0 0 74 117" fill="none" xmlns="http://www.w3.org/2000/svg">
<path d="M73.6579 58.3879C41.4179 61.4579 38.9679 64.8779 37.0779 116.288C37.0684 116.327 37.046 116.362 37.0143 116.387C36.9825 116.412 36.9433 116.426 36.9029 116.426C36.8624 116.426 36.8232 116.412 36.7915 116.387C36.7597 116.362 36.7373 116.327 36.7279 116.288C34.8279 64.8779 32.3779 61.4579 0.137878 58.3879C0.0985891 58.3784 0.0636135 58.356 0.0386047 58.3243C0.013596 58.2925 0 58.2533 0 58.2129C0 58.1725 0.013596 58.1332 0.0386047 58.1015C0.0636135 58.0697 0.0985891 58.0473 0.137878 58.0379C32.3779 54.9679 34.8279 51.5479 36.7279 0.137878C36.7373 0.0985891 36.7597 0.0636287 36.7915 0.03862C36.8232 0.0136113 36.8624 0 36.9029 0C36.9433 0 36.9825 0.0136113 37.0143 0.03862C37.046 0.0636287 37.0684 0.0985891 37.0779 0.137878C38.9679 51.5479 41.4179 54.9679 73.6579 58.0379C73.6972 58.0473 73.7321 58.0697 73.7571 58.1015C73.7822 58.1332 73.7957 58.1725 73.7957 58.2129C73.7957 58.2533 73.7822 58.2925 73.7571 58.3243C73.7321 58.356 73.6972 58.3784 73.6579 58.3879Z" fill="#FFF5F5"/>
</svg>
