<svg width="31" height="31" viewBox="0 0 31 31" fill="none" xmlns="http://www.w3.org/2000/svg">
<path d="M30.6912 9.30007C30.6912 9.30007 30.3885 7.16277 29.4561 6.22429C28.2754 4.98914 26.9555 4.98308 26.35 4.91042C22.0148 4.59558 15.5061 4.59558 15.5061 4.59558H15.4939C15.4939 4.59558 8.98516 4.59558 4.65 4.91042C4.04453 4.98308 2.72461 4.98914 1.54395 6.22429C0.611524 7.16277 0.314844 9.30007 0.314844 9.30007C0.314844 9.30007 0 11.8128 0 14.3194V16.6686C0 19.1753 0.308789 21.688 0.308789 21.688C0.308789 21.688 0.611523 23.8253 1.53789 24.7637C2.71855 25.9989 4.26855 25.9565 4.95879 26.0897C7.44121 26.3259 15.5 26.3985 15.5 26.3985C15.5 26.3985 22.0148 26.3864 26.35 26.0776C26.9555 26.005 28.2754 25.9989 29.4561 24.7637C30.3885 23.8253 30.6912 21.688 30.6912 21.688C30.6912 21.688 31 19.1813 31 16.6686V14.3194C31 11.8128 30.6912 9.30007 30.6912 9.30007ZM12.2971 19.5204V10.8077L20.6707 15.1792L12.2971 19.5204Z" fill="#8AA3A0"/>
</svg>
